<svg xmlns="http://www.w3.org/2000/svg" width="250" height="248"><path d="M248.431 38.38c0-.54-.054-1.078-.27-1.564-5.39-15.2-20.158-13.313-28.944-12.181-2.102.27-5.12.647-6.414.485a80.336 80.336 0 0 0-9.378-8.84c.161-1.347-.324-2.748-1.402-3.772-.97-.863-2.21-1.294-3.503-1.186-.593.054-2.318.108-3.935.108-.323-.755-.809-1.402-1.51-1.887-1.4-1.078-3.018-1.186-4.096-1.24a4.709 4.709 0 0 0-2.156-1.778c-8.03-3.234-16.709-4.851-25.818-4.851-11.696.054-24.2 2.91-37.137 8.408-6.683-.97-12.397-2.749-17.895-4.42-7.114-2.21-13.852-4.258-21.775-4.366-6.307-.054-12.775 1.186-19.674 3.881a4.562 4.562 0 0 0-2.533 2.372c-1.51-.324-2.749-.593-3.234-.755-1.24-.431-2.587-.27-3.72.377-.754.486-1.347 1.132-1.724 1.94-.647.109-1.24.27-1.725.54-1.078.539-1.832 1.509-2.21 2.64 0 .055-.054.109-.054.163a3.052 3.052 0 0 0-.161.97v.162-.054c-1.995.485-3.504 1.347-4.743 2.21-.27-.054-.593-.162-.863-.216-.215-.054-.377-.108-.539-.108l-.162-.054c-.377-.054-.646-.161-1.024-.215-.215-.054-.43-.054-.593-.108h-.161c-.324-.054-.647-.108-.97-.108-.216 0-.486-.054-.647-.054h-.162c-.323 0-.647-.054-.97-.054H35.58c-.377 0-.7.054-1.024.054-.27 0-.593.054-.916.054-.324.054-.647.054-1.025.108-.323.054-.646.054-.916.108s-.593.107-1.024.161c-.377.054-.647.108-.916.162-.378.054-.701.162-1.024.216-.27.054-.593.161-.917.215-.377.108-.7.216-1.024.324l-.161.054c-.27.053-.54.161-.809.269-.323.108-.647.216-.916.323l-.108.054-.162.054c-.215.108-.485.162-.754.27-.324.108-.647.27-.863.377l-.161.054-.216.108c-.216.108-.431.215-.7.323-.324.162-.594.324-.863.431l-.431.216a3.589 3.589 0 0 1-.647.323l-.324.162c-.107 0-.215-.054-.323-.054-.808 0-1.617.216-2.318.647a21.03 21.03 0 0 0-1.617 1.078c-.161.108-.377.27-.593.377-.377.27-.754.593-1.131.863-.054.054-.162.161-.27.215a9.085 9.085 0 0 0-1.51.647c-.269.108-.376.216-.484.27-.054.053-.108.053-.216.107l-.431.216s-.108.054-.162.108c-.161.108-.27.161-.323.215-.054 0-.054.054-.054.054-.054.054-.108.054-.216.108-.161.108-.27.162-.377.27-.054.053-.216.161-.216.161a1.128 1.128 0 0 1-.323.216c-.108.108-.216.162-.27.215-.107.108-.215.162-.323.27s-.162.108-.215.215c-.108.108-.162.162-.27.216l-.27.27c-.107.107-.215.161-.269.27-.054.053-.162.16-.27.215l-.215.377-.54.539-.215.27-.27.269c-.053.054-.107.162-.215.27l-.161.215c-.162.162-.216.27-.27.377-.054.054-.162.162-.216.27-.107.108-.161.216-.215.323l-.216.378c-.054.107-.161.215-.215.323s-.162.216-.216.323l-.216.324-.161.27c-.108.161-.162.269-.216.377s-.108.161-.162.323c-.053.108-.107.216-.215.377l-.162.27a.869.869 0 0 1-.215.377l-.162.324c-.054.161-.108.269-.162.43 0 .055-.108.27-.108.27-.054.162-.107.324-.161.431l-.108.27-.162.485c-.054.108-.054.216-.108.27l-.161.485c-.054.107-.054.161-.054.27-.054.16-.108.376-.162.538-.054.108-.054.162-.054.27-.054.215-.108.377-.108.539 0 .107-.054.161-.054.27-.053.215-.053.43-.107.592 0 .054 0 .108-.054.216-.054.27-.054.485-.108.7v.108C.976 40.266.922 41.398.976 42.53v.215c0 .216.054.432.054.701v.216c0 .161.054.43.108.647 0 .107 0 .161.054.215.054.216.054.431.108.647 0 .108.053.162.053.216l.162.646c0 .108.054.162.054.216l.162.647a.486.486 0 0 1 .054.27c.054.269.161.43.215.592.054.108.054.216.108.324.054.215.162.377.216.592.054.108.054.162.107.27.108.216.162.431.27.593.054.108.108.215.162.27.107.161.161.377.27.538.053.108.107.216.16.27.163.27.216.431.324.539.054.108.162.27.216.323l.323.485c.054.108.162.216.216.324l.323.485c.054.108.162.215.27.323.108.162.27.324.377.485.108.108.162.216.27.324.107.161.269.323.377.485l.27.323c.107.162.269.27.43.431l1.079 1.078c.161.108.269.27.485.432l.323.323c.162.162.323.323.485.431l.377.324c.162.161.324.27.54.43.107.109.269.216.377.27.161.162.377.27.539.378.054.054.43.27.43.27.217.16.378.269.594.376l.108.054.323.216c.216.108.377.216.539.323.054.054.162.108.162.108l.323.216c.216.108.431.27.647.377l.108.054c.108.054.215.108.323.216.216.107.377.215.54.323l.107.054.162.054.323.161c.27.108.485.27.755.378l.161.054.324.161c.27.108.539.27.808.378.054 0 .162.054.162.054.054 0 .108.053.108.053-.054 4.366-1.186 6.36-2.91 9.433-1.51 2.641-3.343 5.983-4.69 11.319-.27 1.186-.108 2.425.539 3.396.647 1.024 1.617 1.778 2.803 2.048.161.054.215.054.27.108.97 1.078.269 6.953-.109 10.133-.862 7.169-1.886 15.954 2.695 22.207l.378 4.15a.667.667 0 0 1-.108.162l-.054.107a5.252 5.252 0 0 0-.27.593c-.053.054-.053.108-.053.108-.108.27-.216.431-.27.593l-.054.162c-.054.161-.162.377-.215.539l-.054.108v.053c-.108.216-.162.378-.216.54l-.054.107v.054c-.054.216-.162.431-.215.593 0 0-.054.108-.054.162v.054a8.844 8.844 0 0 0-.162.592c0 .054-.054.108-.054.162-.054.216-.108.377-.162.54 0 .107-.054.16-.054.215-.053.215-.053.431-.107.593 0 .054 0 .161-.054.215 0 .162-.054.378-.054.54v.215c0 .162-.054.377-.054.593v.97c0 .162 0 .377.054.593 0 .108 0 .162.054.215 0 .162.054.378.108.593 0 .108.053.162.053.216.054.162.054.377.108.539s.054.216.054.27c.054.161.108.323.162.538.054.162.054.216.108.27.054.162.107.323.215.539.054.108.108.216.108.27.054.107.108.323.216.485.054.107.107.215.107.27.054.16.162.322.27.484.054.108.108.162.108.216s.054.054.054.054c.054.107.161.27.27.43a.744.744 0 0 0 .16.216l.055.054c.054.108.161.216.27.378.053.107.16.161.16.215l.109.108c.054.108.161.216.27.323.053.108.16.162.215.216l.108.108c.054.108.161.215.27.323s.16.162.215.27l1.024 1.024c.108.108.27.215.323.323l.108.108c.054.054.162.108.216.216.161.107.27.215.377.323l.054.054c.108.108.215.162.27.216.161.107.323.27.43.377l.108.054.054.054.162.107c.216.162.485.378.755.54l.107.053c.054.054.108.054.162.108 1.94 11.912 5.606 21.075 10.942 27.327a4.402 4.402 0 0 0 3.395 1.564c.432 0 .863-.054 1.24-.162 1.887-.54 3.558-.863 4.959-.863 2.102-.053 3.503.378 4.204 1.348.755 1.078.7 2.749.377 3.503a4.505 4.505 0 0 0 1.132 5.013c15.146 13.69 23.932 15.739 29.753 17.033 4.474 1.024 6.145 1.401 9.325 6.845 3.288 6.037 5.39 11.373 7.169 16.116 4.581 11.912 8.246 21.29 26.572 22.961 3.342.324 7.169.378 11.643.216.593 0 1.293-.054 1.994-.108.593-.054 1.132-.108 1.563-.215.108 0 .216 0 .377-.054 1.132-.162 2.264-.485 3.396-.809.216-.054.431-.108.593-.162h.108c.377-.107.754-.215 1.024-.377.215-.108.377-.215.539-.27l.162-.053c-.108.054-.162.054-.27.108.431-.216.916-.378 1.348-.593-.108.054-.216.107-.378.161.162-.054.324-.161.485-.27 1.186-.592 2.318-1.347 3.396-2.155.108-.054.162-.108.27-.216.97-.754 1.94-1.67 2.802-2.587.108-.108.27-.27.432-.485.269-.27.485-.539.7-.809.162-.215.324-.43.431-.592l.054-.108.809-1.132c.27-.377.485-.7.647-1.024.161-.27.323-.485.43-.7.216-.324.378-.702.594-1.079l.054-.162c.054-.107.161-.27.215-.485.27-.539.54-1.132.809-1.725.054-.161.108-.269.161-.377l.054-.162c.216-.485.378-.97.593-1.509l.054-.108.162-.485c.108-.377.215-.7.323-1.024.216-.323.377-.647.54-1.024l.484-1.509c1.94-5.767 2.48-9.433 2.695-12.72 5.768-2.911 10.672-9.756 15.74-16.979 3.772-5.336 8.515-11.966 11.641-13.098.162-.054.27-.107.432-.161 2.371-1.132 5.39-1.779 8.516-2.48 2.91-.647 6.252-1.347 9.594-2.587l-.485.162c.7-.162 1.294-.431 1.886-.755.054 0 .054.054.108.054.216.108.431.162.647.216h.108c.162.054.377.054.539.107h.647c.161 0 .377 0 .539-.053.107 0 .161 0 .27-.054.215-.054.484-.108.7-.216.054 0 .054 0 .108-.054.215-.108.485-.215.7-.377l.054-.054s.054 0 .054-.054c2.91-1.886 4.528-4.42 5.498-6.737.323-.162.593-.324.862-.54.324-.215.647-.485.97-.808l.216-.216c.377-.43.7-.862 1.024-1.293.054-.054.108-.216.162-.27 0 0 0 .054-.054.054.108-.215.27-.485.377-.7.701-.378 1.294-.863 1.78-1.564s.915-1.4 1.4-2.21l.108-.107c1.402-1.402 4.043-4.043 4.797-9.11.054-.215.054-.43.108-.646a65.96 65.96 0 0 0 .162-1.725c.97-2.533 2.102-4.581 3.18-6.522 1.24-2.21 2.372-4.312 3.234-6.791.108-.431.27-.755.323-1.132 0-.054.054-.162.054-.216.108-.377.162-.7.216-.97 0-.108.054-.216.054-.27.054-.377.108-.646.161-.916 0-.161.054-.27.054-.377.054-.377.108-.647.108-.916 0-.162.054-.27.054-.432.054-.377.054-.646.054-.916v-1.994c0-.27 0-.593-.054-.863 0-.215 0-.43-.054-.646 0-.27-.054-.54-.054-.863 0-.215-.054-.43-.054-.7-.054-.324-.107-.647-.107-.917-.054-.215-.054-.485-.108-.7-.054-.324-.108-.647-.162-.917s-.108-.485-.162-.754c-.054-.324-.161-.701-.215-.97v-.108l-.162-.647c-.108-.377-.162-.7-.27-1.024l-.053-.216-.162-.593c-.108-.377-.216-.7-.27-1.024 0-.108-.107-.323-.107-.323l-.162-.593s-.054-.108-.054-.216c.97-.808 1.51-2.048 1.51-3.288.377-22.422-1.726-37.137-6.954-47.432l.485-.161.431-.216c.162-.054.324-.108.54-.216.538-.215 1.024-.485 1.509-.7 0 0 .054-.054.107-.054.108-.054.27-.108.432-.216.539-.27 1.078-.539 1.509-.808l.054-.054.323-.162a15.671 15.671 0 0 0 1.51-.916c-.055 0 0 0 0 0 .053-.054.161-.108.269-.162.431-.323.916-.647 1.455-1.024 0 0 .054-.054.162-.108.485-.377.916-.754 1.401-1.186l-.108.108c.054-.054.162-.108.216-.215.431-.378.862-.809 1.294-1.294l-.108.108.162-.162c.43-.431.808-.916 1.185-1.401 0-.054.054-.054.054-.108 1.995-2.587 3.126-5.552 3.396-8.786.323-.485.647-1.024.916-1.509 0-.054.054-.054.054-.108 1.671-1.994 2.048-5.012 1.186-7.654z" fill="#fff"/><path fill="#E64100" d="m83.497 11.537 6.252 5.768c-5.875.539-10.24 1.024-16.385 1.185-1.725.108-6.36-.161-7.169 0-1.024.162 2.21 1.456 1.186 1.671-.809.162-7.708-1.724-11.265-.539 3.719.809 6.037 1.779 5.444 1.94-3.45.97-5.013 1.78-7.924 3.396l1.294 7.87c-8.516-4.959-20.482-7.492-35.844-7.6l.054-.054c-.862.324-1.67.7-2.371 1.078-12.99 18.542-.701 23.123 7.438 26.25-6.414-6.522-6.576-13.206 1.617-17.087 7.276-1.94 13.367 1.24 18.38 9.702-14.122 12.236-14.176 27.759-12.074 52.93l-11.319 21.452.862 6.684c.486 3.288 2.695 4.42 6.576 3.396-1.67 3.557-.593 8.516 0 11.372.917-2.048 2.264-4.42 5.282-6.144 1.186 14.337 5.121 28.136 15.578 26.087 1.832 2.372 4.635 5.283 7.869 8.247.97.863 2.587 7.438 3.611 8.3.917.81 1.24-3.988 2.21-3.233 1.078.916 1.725 8.84 2.857 9.702.162.323 1.24-6.953 3.719-4.69 10.672 7.493 20.805 11.212 19.35-.162-57.673-24.363-42.958-79.772-42.958-79.772l-5.444 5.228c-.916-8.893-1.186-16.924-.863-23.985.054-1.51 2.48-5.713 2.642-7.115 1.724-3.45 2.695-6.522-3.073-1.132-.161-6.144 5.875-8.678 6.36-10.564.324-1.24-2.856-.97-2.479-2.102 6.522-3.665 4.905-4.743 5.552-6.145.7-1.455-2.264-1.293-1.456-2.48 3.073-4.527 7.007-6.952 11.481-7.168-5.013 7.277-10.834 21.614-8.84 34.766 19.997-4.905 7.439-24.04 22.692-34.12 7.115-3.557 11.32-4.311 26.142 3.235-4.15.647-10.726 1.617-10.672 6.576 2.695 6.845 19.296-1.887 24.309 16.816-5.444-2.91-7.762-3.773-11.858-1.563 10.025 3.288 16.17 6.307 11.75 17.572-4.474-8.516-8.516-10.08-13.26-6.684-.7-2.48-1.67-4.258-2.856-5.66-.7 9.541-6.36 12.99-15.523 6.738.808 1.51 2.102 3.126 3.773 5.067-3.127-1.078-5.283-2.426-6.36-4.097-1.079 1.94-.162 3.935 2.694 5.875-4.905 9.163 2.318 9.81 7.439 6.199 6.414-8.085 10.456-10.403 14.606-9.864-4.797 10.672-18.218 20.051-10.348 21.776-4.582 5.39-4.636 7.761-.108 7.115-2.856 4.473-3.072 7.384.108 6.522-2.75 16.385.7 21.613 6.414 25.333-4.905 7.222-2.803 16.924 3.988 28.459.054-.324.162-.7.216-.97-.755-14.446.269-15.308 3.665-23.986 2.48 1.455 3.665 7.6 6.953 8.84 1.294-4.474 2.587-7.277 3.827-8.355l3.827 3.396 3.126-1.348 2.156.97 2.102-1.4 3.666 1.239 3.557-2.641c.916-.593 1.67 1.994 2.318 7.761l4.635-5.983c2.156 3.72 2.749 12.397 1.725 25.98 4.743-5.929 7.923-11.642 8.947-17.302 1.51-5.174.377-9.81-3.395-13.744l7.33 3.935v-.054c4.096 1.024 7.007-.377 7.977-4.366 11.75 16.87-6.845 36.49-11.211 49.157l2.48 4.42c12.18-12.72 19.134-22.8 20.859-30.184l4.42 4.365c1.67-2.102 2.802-5.659 3.395-10.726 20.32 8.409 22.207-12.936 34.55-14.068l3.88 6.307c0 .054-.053.054-.053.108.755-.808 1.402-1.994 1.671-4.042v-.055l-1.51-5.552c3.127-14.93 2.911-26.034-.646-33.202 6.468-13.799 5.93-29.753-1.725-47.918-14.714-3.826-20.05-11.911-15.954-24.255 7.654 8.301 33.202 2.318 36.598 6.199 2.264-2.695 3.665-5.821 1.994-8.355-10.941 1.564-16.655-10.51-45.491-3.45-2.534-4.904-6.199-6.844-10.996-5.766 0-15.955-38.754-17.841-47.863-11.535a65.72 65.72 0 0 0 21.722 1.994c-7.654 5.282-18.758 7.33-28.082 3.827-5.229 8.031 2.48 18.272 16.816 9.433 3.288-1.024 21.183-8.14 33.257 7.6-25.818-6.576-33.364 15.469-41.827 7.276-2.263-3.126 1.024-15.146-17.14 3.396 2.587-15.955 1.51-24.848-.808-32.718l.16-.323c-13.744-4.258-27.165-6.36-40.209-6.252zm31.909 9.54c3.88 4.69 4.581 12.128 2.102 22.37-2.749 27.057 4.905 10.833 7.223 15.738 1.24 2.048-.108 7.169-1.94 13.421l-8.086-3.18c-1.186-6.953-5.066-12.828-11.642-17.68 9.109-8.354 13.26-18.54 12.343-30.668zm71.148 27.005c37.568 10.833 19.727 63.602 12.181 77.077 6.792-.97 11.535-6.846 14.122-17.518l7.87 11.804c-3.72 2.156-5.876 8.247-6.415 18.38-1.185 4.096-7.815 7.977-11.75 10.08-1.132.592 5.821-6.037 1.132-9.864-2.91 2.91-9.594 14.337-9.864 14.121-2.317.917 1.51-6.63-.916-5.605-1.401.593-7.33 9.378-8.732 10.08-1.347.7 1.078-5.499-.215-4.69-2.372 1.455-5.39 8.3-7.439 10.402.701-8.947-1.131-15.684-5.497-20.212-3.72-1.401-6.091-1.078-12.451.323 1.132-7.6.808-15.146-.917-22.692 11.266 23.716 37.084-15.307 34.065-22.691-6.899 9.055-16.709 7.707-29.483-4.097 23.285-3.342 24.417-6.414 14.391-15.685.162 2.048-3.934 5.013-11.912 9.055 4.15-3.826 6.199-7.06 6.199-9.594-.7-5.713-8.624-10.51-15.416-4.204.97-.862 2.318-1.294 3.935-1.132l1.51 3.18 4.042-2.102c6.144 3.611 1.509 14.284-7.87 9.379-3.826-2.695-3.988-6.738-1.94-8.948-1.67 1.671-3.288 4.043-4.635 7.223-1.78-3.126-8.894-1.186-8.678 17.194-4.69-13.421-7.816-27.758-16.44-18.865l9.81-25.71c2.749 4.581 3.126 6.576 13.205-.647 5.337 9.27 15.146 1.401 17.895 13.421-10.24-1.51-15.307 1.94-15.954 9.379 4.204-7.169 9.163-8.355 15.685-7.061 2.371-4.42 6.198-5.66 13.583 3.988 8.893 2.857 9.54-8.785-2.318-14.39 0-.055.055-.11.055-.163-5.282-2.641-8.786-2.695-12.72-2.21 3.988-7.87 10.079-8.786 18.272-2.695 3.557-.862 6.899-.593 3.61-4.366zm-99.176 22.53 1.455 3.988 2.749-2.91c-.539-.324-1.078-.593-1.617-.863-.916-.107-1.779-.214-2.587-.214zm-29.86 19.943c-3.127 6.198-4.043 11.427-3.289 15.954.108.7-.7 6.09-.485 6.792.27.916 1.51-2.857 1.94-1.995.27.647-1.94 6.63.647 8.786.54.862 1.456-5.174 2.103-4.312s2.21 6.576 3.018 7.384c.755.755.755-3.395 1.617-2.695.7.593.916 10.726 5.013 13.421.646.485-.917-9.594 1.94-8.731 7.708 7.06 2.533 26.788 15.9 29.375-4.958-15.415-7.6-32.717-5.282-39.67-13.151-4.097-20.859-12.236-23.123-24.31zm48.617 8.03c-.755 3.882-2.318 7.385 3.557 8.14 6.36-2.048 9.487.593 9.379 7.977-3.288-1.348-5.174-.27-5.498 3.126l-7.115-4.15c-2.479 3.45-1.401 6.252 3.288 8.462 2.534 1.186 8.14-2.533 10.942.593l-2.102 5.013c3.719.27 13.205-3.989 11.48 4.959l4.852-10.08c7.653-2.803 11.103-7.222 10.348-13.205 7.546 8.84-2.048 14.068-3.719 18.919l4.42-2.318c4.474 4.527 2.695 10.08-5.444 16.763l4.043 3.18s-28.675-2.048-42.42 0l3.666-2.803-5.93-1.67c-9.594-17.033.863-37.192 6.253-42.905zm28.783 6.469c1.024.166 2.059.96 3.153 2.393 1.778 3.126 1.725 6.037-.162 8.786-1.78 1.832-10.08-.109-8.14-6.9 1.785-3.099 3.445-4.554 5.148-4.28zm-105.105 2.555c5.444 8.893 5.929 12.612-1.887 21.83.377-7.331-.323-18.435 1.887-21.83zm84.084 55.517a2.692 2.692 0 0 0-1.413.299c-7.653 13.96-3.45 31.909 3.666 48.24 3.773.701 6.683.323 8.731-1.185l3.666 2.156 3.557-.809 5.282.432-6.522 3.665-4.096-1.887c-3.45 2.911-4.15 2.803-8.408 0l-4.097 2.857-.808-3.557c-7.223-3.126-5.444-6.953-8.84-15.685l-.161-.809c-3.45 14.607-.647 25.226 9.702 22.638l.27.162c9.863 6.683 19.134 1.67 22.8-.108 11.857 2.695 13.636-14.068 10.617-28.782-2.64 8.893-5.983 19.296-9.54 20.913 2.857-17.68 2.533-34.173-1.132-45.6-5.821-4.096-9.378 4.851-15.361 2.965-2.167.377-4.711-5.66-7.924-5.93zm-2.652 67.375c.161 5.551 4.204 10.834 20.104 9.324 9.756-1.132 14.122-3.88 13.098-8.354-12.72 5.66-28.998 4.797-33.202-.97z"/><path fill="#0B162A" d="M82.419 5.932c-4.83.164-10.08 1.19-16.17 3.546-1.024.378 4.635 3.396 3.557 3.881S57.41 11.257 57.41 11.15c0 0 6.307 3.396 5.714 3.72-.7.377-8.624-1.564-9.379-1.186-.754.43 3.558 3.18 2.75 3.61-.702.378-3.504 0-4.205.431-3.288-.107-4.905 1.51-7.169 2.965-6.791-2.587-17.517-2.048-26.087 4.42l-.054.053c15.415.108 27.381 2.695 35.897 7.654l-1.293-7.87c2.91-1.616 4.473-2.425 7.923-3.395.593-.162-1.725-1.132-5.444-1.94 3.558-1.186 10.457.7 11.265.539.97-.216-2.21-1.456-1.186-1.671.809-.162 5.444.108 7.17 0 6.144-.162 10.51-.647 16.385-1.186l-6.253-5.767c13.044-.108 26.465 1.94 40.21 6.252l-.163.324c2.318 7.869 3.396 16.762.809 32.717 18.164-18.542 14.93-6.576 17.14-3.396 8.409 8.193 16.008-13.906 41.827-7.276-12.074-15.74-29.969-8.624-33.257-7.6-14.337 8.84-22.045-1.348-16.817-9.433 9.271 3.45 20.375 1.402 28.082-3.827-7.33.593-14.553-.107-21.721-1.994 9.163-6.252 47.863-4.42 47.863 11.535 4.797-1.078 8.462.808 10.995 5.767 28.837-7.06 34.604 5.013 45.6 3.665-6.253-17.571-28.298-5.767-33.795-9.432-2.803-3.234-6.253-6.576-10.295-9.702-.809-.593-3.989-.324-4.797-.917-.863-.593 3.557-1.724 3.88-2.479.054.054-7.923.323-8.785-.162-1.294-.324.862-2.156.215-2.48-1.186-.916-6.198.54-7.33-.593-2.21-1.24 3.126-1.401 2.102-1.778-14.769-5.93-34.496-7.169-59.829 3.719l-.215.432C107.483 12.685 96.92 5.435 82.42 5.92zm33.04 15.146c.917 12.073-3.233 22.314-12.342 30.669 6.575 4.85 10.456 10.726 11.696 17.679l8.031 3.18c1.779-6.252 3.18-11.373 1.94-13.421-2.317-4.905-10.025 11.265-7.222-15.739 2.425-10.187 1.725-17.68-2.102-22.368zm-98.636 5.174c-9.756 1.51-21.83 23.07 5.66 33.58.862 12.882-4.636 12.99-7.6 24.848 10.24 2.425-2.588 25.17 5.982 34.873L32.238 98.1c-2.048-25.172-1.994-40.695 12.074-52.93-5.013-8.462-11.104-11.696-18.38-9.756-8.193 3.88-8.031 10.564-1.671 17.086-8.085-3.126-20.428-7.707-7.438-26.249zm188.65 14.23c-4.097 12.343 1.24 20.428 15.954 24.255 7.6 18.164 8.193 34.118 1.725 47.917 3.557 7.168 3.773 18.272.647 33.202l1.509 5.552c4.528-14.607 13.475-14.445 4.042-39.185l3.396 1.293c.485-27.866-3.126-41.395-9.163-49.803 12.559-3.612 18.703-9.271 18.542-17.033-3.45-3.827-28.945 2.102-36.652-6.198zM82.58 42.136c-3.795-.31-6.63.766-10.187 2.544C57.14 54.76 69.699 73.894 49.702 78.8c-2.048-13.152 3.827-27.49 8.84-34.766-4.474.161-8.355 2.64-11.481 7.168-.809 1.186 2.156.97 1.455 2.48-.647 1.401.97 2.48-5.552 6.144-.377 1.132 2.803.863 2.48 2.102-.485 1.887-6.522 4.42-6.36 10.565 5.767-5.39 4.797-2.318 3.072 1.132-.108 1.401-2.534 5.605-2.641 7.115-.324 7.06-.054 15.092.862 23.985l5.444-5.228s-14.769 55.517 42.958 79.772c1.402 11.373-8.678 7.654-19.35.16-2.425-2.263-3.557 5.014-3.719 4.69-1.132-.862-1.779-8.786-2.857-9.702-.97-.808-1.293 4.043-2.21 3.234-1.024-.862-2.64-7.438-3.61-8.3-3.235-3.019-5.984-5.93-7.87-8.247-10.457 2.048-14.445-11.804-15.577-26.088-3.073 1.725-4.42 4.097-5.283 6.145-.592-2.857-1.67-7.816 0-11.373-3.88 1.024-6.09-.107-6.575-3.396-3.935 7.277-4.15 11.211 5.228 17.464 1.725 12.073 5.12 21.075 10.24 27.004 14.931-4.366 16.656 5.713 14.931 9.971 26.573 24.094 30.885 9.54 39.94 25.01 13.69 25.063 7.061 38.323 41.341 36.975 10.08-.215 16.817-5.983 20.105-17.194.108-.108.216-.162.27-.27 2.749-7.815 2.91-11.426 3.126-15.846 10.618-2.21 20.697-27.758 30.184-31.154 5.282-2.533 11.912-2.803 18.488-5.228 2.533-.647 4.473-4.312 5.228-4.69.808-.43 1.725-.162-.43 4.204 5.066-3.234 4.635-9.54 5.227-10.025.755-.593.108 3.665.863 2.965 2.425-1.348 1.994-5.876 2.587-6.576.647-.755.323 3.719.916 2.856 1.24-1.778 2.426-3.826 3.558-6.198 0-.054.055-.053.055-.107l-3.827-6.522c-12.343 1.132-14.23 22.476-34.55 14.068-.593 5.066-1.725 8.624-3.396 10.726l-4.42-4.366c-1.724 7.384-8.677 17.41-20.859 30.184l-2.48-4.42c4.367-12.666 22.962-32.286 11.212-49.157-.97 4.043-3.88 5.39-7.977 4.366v.054l-7.33-3.935c3.772 3.989 4.904 8.57 3.395 13.745-1.024 5.713-4.204 11.373-8.947 17.302 1.024-13.637.43-22.315-1.725-25.98l-4.636 5.983c-.592-5.768-1.401-8.355-2.317-7.762l-3.558 2.641-3.665-1.24-2.102 1.402-2.156-.97-3.126 1.347-3.827-3.396c-1.24 1.078-2.533 3.827-3.827 8.355-3.288-1.24-4.474-7.384-6.953-8.84-3.396 8.678-4.474 9.54-3.665 23.986-.108.323-.162.647-.27.97-6.737-11.535-8.84-21.183-3.988-28.46-5.66-3.718-9.163-8.947-6.36-25.332-3.18.862-2.965-2.048-.108-6.522-4.527.647-4.474-1.725.107-7.115-7.869-1.725 5.552-11.05 10.35-21.775-4.151-.593-8.194 1.724-14.608 9.863-5.12 3.612-12.343 2.965-7.438-6.198-2.857-1.995-3.773-3.935-2.695-5.875 1.078 1.67 3.234 3.018 6.36 4.096-1.724-1.886-2.964-3.557-3.773-5.067 9.163 6.253 14.823 2.803 15.524-6.737 1.185 1.401 2.156 3.18 2.856 5.66 4.797-3.45 8.84-1.833 13.26 6.683 4.473-11.265-1.725-14.283-11.75-17.571 4.042-2.21 6.414-1.348 11.857 1.563-5.012-18.704-21.613-9.972-24.308-16.817-.054-4.959 6.521-5.929 10.672-6.576-7.385-3.773-12.182-5.444-15.955-5.767zm104.027 5.93c3.288 3.772-.055 3.503-3.612 4.365-8.192-6.037-14.283-5.174-18.272 2.695 3.935-.485 7.492-.431 12.72 2.21 0 .054-.054.108-.054.162 11.858 5.66 11.21 17.248 2.317 14.392-7.33-9.648-11.21-8.409-13.582-3.989-6.522-1.347-11.427-.108-15.685 7.061.647-7.438 5.767-10.834 15.954-9.379-2.749-12.02-12.559-4.15-17.895-13.42-10.025 7.222-10.402 5.228-13.205.646l-9.81 25.71c8.678-8.893 11.75 5.444 16.44 18.865-.216-18.326 6.845-20.32 8.677-17.194 1.402-3.234 2.965-5.551 4.636-7.222-1.994 2.156-1.887 6.198 1.94 8.947 9.379 4.905 14.068-5.767 7.87-9.379l-4.043 2.103-1.51-3.18c-1.616-.162-2.964.269-3.934 1.131 6.792-6.306 14.769-1.509 15.416 4.205.054 2.533-2.049 5.713-6.199 9.594 7.977-4.043 12.02-7.007 11.912-9.055 10.025 9.27 8.84 12.343-14.391 15.684 12.774 11.805 22.584 13.206 29.483 4.097 3.072 7.384-22.746 46.354-34.065 22.692 1.779 7.492 2.102 15.092.917 22.692 6.36-1.402 8.731-1.779 12.45-.324 4.42 4.528 6.253 11.265 5.498 20.213 2.102-2.102 5.12-8.948 7.438-10.403 1.294-.808-1.131 5.39.216 4.69 1.401-.701 7.33-9.487 8.732-10.08 2.425-1.024-1.402 6.522.916 5.606.216.215 6.953-11.212 9.864-14.122 4.69 3.827-2.264 10.456-1.132 9.864 3.935-2.103 10.564-5.983 11.75-10.08.54-10.079 2.641-16.224 6.414-18.38l-7.87-11.804c-2.586 10.672-7.33 16.548-14.121 17.518 7.816-13.367 25.656-66.297-12.181-77.077zM87.97 70.648c.808 0 1.67.054 2.587.162.539.27 1.078.539 1.617.862l-2.749 2.964zM58.056 90.592c2.318 12.074 10.026 20.159 23.123 24.31-2.317 6.952.325 24.2 5.175 39.724-13.206-2.588-8.085-22.315-15.793-29.43-2.803-.916-1.294 9.163-1.94 8.732-4.097-2.695-4.312-12.828-5.013-13.421-.862-.755-.862 3.45-1.617 2.695-.809-.809-2.318-6.576-3.018-7.384-.647-.809-1.617 5.174-2.103 4.312-2.533-2.156-.322-8.14-.646-8.786-.378-.862-1.671 2.91-1.94 1.994-.162-.7.592-6.09.483-6.791-.7-4.528.217-9.81 3.288-15.955zm48.618 7.924c-5.39 5.713-15.793 25.872-6.252 42.904l5.929 1.671-3.666 2.803c13.691-2.048 42.42 0 42.42 0l-4.097-3.234c8.14-6.63 9.972-12.182 5.498-16.71l-4.42 2.319c1.671-4.851 11.212-10.08 3.72-18.92.754 5.984-2.75 10.35-10.35 13.206l-4.85 10.08c1.724-8.894-7.762-4.636-11.481-4.96l2.102-5.012c-2.803-3.126-8.408.593-10.942-.593-4.635-2.21-5.767-5.013-3.288-8.462l7.115 4.15c.378-3.396 2.21-4.42 5.498-3.126.108-7.384-3.018-10.026-9.379-7.977-5.875-.701-4.258-4.205-3.557-8.14zm28.89 6.522c-1.703-.278-3.363 1.18-5.147 4.28-1.994 6.79 6.306 8.731 8.139 6.898 1.886-2.748 1.886-5.659.162-8.785-1.089-1.434-2.129-2.226-3.153-2.393zM30.46 107.592c-2.263 3.45-1.509 14.5-1.886 21.83 7.87-9.217 7.33-12.936 1.886-21.83zm83.545 55.517c3.164.221 5.714 6.307 7.924 5.93 5.983 1.886 9.54-7.115 15.361-2.965 3.665 11.48 3.989 27.974 1.132 45.6 3.558-1.618 6.953-12.074 9.54-20.914 3.019 14.715 1.24 31.478-10.618 28.783-3.665 1.778-12.936 6.845-22.8.107l-.27-.161c-10.348 2.641-13.15-7.977-9.701-22.638l.161.808c3.396 8.732 1.617 12.56 8.84 15.685l.808 3.558 4.097-2.857c4.258 2.803 5.012 2.91 8.408 0l4.096 1.886 6.522-3.665-5.282-.431-3.557.808-3.666-2.156c-2.048 1.51-4.958 1.887-8.731 1.186-7.115-16.332-11.32-34.28-3.666-48.24.48-.243.944-.331 1.396-.3zm-2.635 67.375c4.204 5.714 20.482 6.63 33.202.97 1.024 4.474-3.342 7.277-13.152 8.355-15.846 1.51-19.889-3.773-20.05-9.325z"/></svg>