<svg xmlns="http://www.w3.org/2000/svg" width="250" height="172.74"><path d="M145.285 13.441 133.2 26.113c19.8-8.23 62.98-22.355 62.98-22.355L182.344 17.29C220.106 6.111 248.802.813 248.802.813s-8.316 19.352-20.739 38.731c2.403-.26 18.09-2.087 18.09-2.087s-14.126 23.399-30.437 40.264l9.129 2.271s-14.224 20.498-32.996 37.23c-26.996 24.057-40.888 20.361-40.888 20.361-20.037 14.515-36.102 7.16-36.102 7.16s6.942-17.514-.228-19.374c-6.464-1.679-16.294 3.374-17.521 5.4-1.276 4.42-6.651 15.642-12.202 22.435-10.643 13.021-22.445 18.344-22.445 18.344s-9.296-7.933-9.355-21.437c0 0-6.387 6.764-16.781 8.974-7.276 1.548-17.204.29-27.377-8.202C2.117 145.18.812 126.024.812 126.024s6.419-12.264 18.798-23.008c-2.738-2.35-4.417-5.308-4.946-7.133C47.568 81.519 47.59 67.812 73.75 51.143c25.772-16.42 41.968-23.97 71.534-37.702" fill="#fff"/><path d="M129.257 25.071 118.92 35.907c20.414-9.039 63.529-23.714 63.529-23.714l-12.513 12.239C214.143 10.745 242.18 6.11 242.18 6.11s-9.162 20.418-21.355 37.764c5.904-.564 18.218-1.997 18.218-1.997s-12.314 20.634-30.511 38.108c2.022.299 10.279 2.181 10.279 2.181s-10.974 16.286-30.05 32.992c-24.35 21.32-35.152 18.796-35.152 18.796s.234-.833.21-2.13c-.018-.713-.17-1.363-.176-1.413C134.897 148.05 119.28 142.1 119.28 142.1s6.935-16.788-3.702-20.176c-8.238-2.623-20.858 4.122-21.862 7.732-1.096 3.928-6.328 14.828-11.517 21.217-9.002 11.083-18.963 16.14-18.963 16.14s-9.058-6.969-5.917-27.364c.686-4.445-.194-6.18-.681-6.93-1.487-2.275-13.076.21-15.901 6.674-1.996 4.564 9.52 8.425 9.52 8.425s-5.315 5.862-14.605 7.76c-5.841 1.193-14.886.814-24.383-7.409-5.62-4.865-6.783-21.326-6.783-21.326s6.94-12.716 20.46-23.698c-2.666-1.746-4.693-4.706-5.205-5.868C46.985 85.543 50.72 68.949 81.476 50.407c14.337-8.644 29.435-17.146 47.78-25.336" fill="#004851"/><path d="M232.248 13.37s-24.555 5.169-36.307 7.68c-22.066 4.715-39.582 10.714-39.582 10.714l10.567-10.235s-33.877 10.694-53.873 20.507c-2.213 1.086-7.289 3.257-7.289 3.257l6.063-7.635s-16.07 6.861-37.066 20.83C55.706 71.164 46.93 88.222 24.548 98.484c0 0 1.445 2.411 6.088 4.191-4.38 3.141-14.946 11.59-22.962 24.88 0 0 1.52 14.765 5.61 18.262 16.668 14.257 31.076 2.754 31.076 2.754s-9.978-4.42-7.13-10.717c3.537-7.82 14.742-9.17 17.693-9.034 0 0 7.406-.364 5.45 11.341-2.654 15.878 3.533 22.929 3.533 22.929s19.365-11.095 26.993-34.678c2.939-9.081 41.252-21.686 32.22 11.396 7.436 1.722 25.349-4.862 31.215-15.584 1.226 1.537 2.242 3.767 2.417 6.381 15.634-1.225 43.604-31.032 52.963-46.212-2.493-1.033-6.97-1.842-8.06-2.068 19.37-18.481 27.952-35.736 27.952-35.736s-7.981.433-15.383.956c12.254-17.216 18.024-34.173 18.024-34.173zM71.412 90.58c1.51.168 2.815.874 3.545 2.087 1.44 2.403.097 5.846-3.002 7.693-3.1 1.85-6.777 1.4-8.22-.996a4.145 4.145 0 0 1-.414-.956c.46-.257.905-.538 1.336-.845.063.29.159.572.316.833 1.02 1.698 3.683 1.976 5.952.625 2.27-1.357 3.283-3.829 2.264-5.527-.575-.96-1.683-1.45-2.938-1.464.425-.525.814-1.016 1.161-1.45z"/><path d="M153.92 29.516s-20.586 4.926-48.468 18.167c-7.861 3.73-12.012 5.952-12.012 5.952 1.206-1.395 6.797-6.3 8.152-8.045-20.693 10.148-28.245 16.861-40.54 29.895-10.968 11.628-10.47 13.656-27.115 22.656 0 0 12.26 5.03 24.683-3.057 2.147-1.397 4.175-3.36 6.1-5.414 4.391-5.094 2.94-10.324 8.77-14.08-.83 1.939-2.2 4.396-2.322 6.933 2.802-3.859 8.342-8.94 14.503-12.616 15.673-9.346 26.072-10.955 26.072-10.955-.4.138-.788.28-1.177.423C89.144 68.28 85.65 79.918 85.54 81.142c-.234 2.625 7.742-3.255 14.261-4.05-6.858 2.422-12.746 8.257-15.597 14.993-1.206 2.853-1.577 6.1-4.962 8.64-.954.87-2.21 1.727-3.879 2.484-4.503 2.035-7.614 1.008-8.67.303-.634-.42-1.023-1.133-1.023-1.133 2.181.615 5.149.082 7.855-1.627 2-1.261 3.484-2.928 4.283-4.62h.003c.435-.901 1.252-2.66.055-4.905-.608-1.141-1.876-1.758-3.315-1.982.09-.24.842-2.15 3.193-4.969-3.192 2.296-5.26 5.056-6.336 6.305 1.51.17 2.814.876 3.542 2.09 1.443 2.4.098 5.845-3 7.692-3.101 1.849-6.776 1.403-8.22-.996a4.057 4.057 0 0 1-.413-.956c-.165.094-.326.19-.493.276-.97.502-2.929 1.333-2.929 1.333.927.215 2.166.312 2.938.165.255 3.395 2.38 8.85 14.332 5.766-3.416 3.36-11.639 3.137-16.62.527a33.7 33.7 0 0 0 2.39 1.623c14.986 9.311 32.243.548 36.459-1.88a32.727 32.727 0 0 1 3.122-1.774s-4.371 3.852-7.328 9.828c5.251-6.716 20.508-17.48 40.966-14.994 0 0-10.705-5.2-27.583.313 0 0 23.281-13.8 52.751-7.932-19.12-6.42-36.336-3.37-46.498.05-5.965 2.298-9.506 4.203-9.506 4.203s1.493-1.092 4.285-2.749c6.902-5.08 16.378-10.574 25.75-14.435 6.508-2.68 19.474-6.145 24.746-6.446 0 0-13.56-2.298-25.93.818 0 0 19.587-7.638 38.589-8.06 6.364-.142 20.927.628 20.927.628-21.004-6.237-42.772-7.464-57.65-5.18-8.454 2.095-15.122 4.184-15.122 4.184s1.167-.591 3.4-1.54c5.36-3.186 27.362-15.006 68.258-21.386 0 0-5.23-.621-11.623-.621-6.536-.003-19.39 2.205-19.39 2.205 9.31-4.254 26.86-8.373 48.559-10.465 0 0-33.158-3.934-73.296 8.646-.345.146-.53.226-.53.226s4.235-3.064 9.016-6.237c3.524-2.338 8.621-5.986 8.621-5.986zM67.143 95.468a22.844 22.844 0 0 1-1.68 1.483c.089.251.303.686.8 1.054.877.646 2.225.536 2.225.536-1.184-.893-1.404-2.112-1.345-3.072z" fill="#fff"/><path d="M214.91 25.218s-18.458 1.489-39.41 5.376c-21.788 4.045-35.868 9.73-38.679 10.92 40.139-12.58 73.294-8.646 73.294-8.646-21.699 2.093-39.248 6.214-48.559 10.468 0 0 12.857-2.209 19.393-2.209 6.394 0 11.623.622 11.623.622-40.897 6.38-62.897 18.2-68.26 21.385 5.434-2.303 17.203-6.742 34.049-10.08 15.89-3.147 34.351-3.931 41.784-4.671 10.602-10.24 14.764-23.165 14.764-23.165zM176.467 55.47c-8.167.069-16.738.526-24.398 1.704-5.285.813-10.976 2.066-16.03 3.314 14.877-2.281 36.647-1.054 57.65 5.181 0 0-14.563-.77-20.926-.628-19.003.423-38.593 8.063-38.593 8.063 12.37-3.118 25.934-.82 25.934-.82-5.273.303-18.238 3.766-24.746 6.445-9.374 3.86-18.849 9.358-25.751 14.436 11.05-6.553 42.476-21.954 82.357-13.456 0 0 2.607-2.004 9.547-9.62 7.361-8.07 8.924-13.05 8.924-13.05s-16.002-1.72-33.969-1.569zm-65.894 3.903a46.45 46.45 0 0 0-.787.285c-19.63 7.324-29.952 18.96-28.425 24.852.573 2.213 4.415-.073 4.415-.073s-5.192 4.397-7.273 9.145c-.013.261 0 1.213-.683 2.552.506.117 1.033.192 1.476.144 1.343-.147 2.92-1.094 2.92-1.094s.03 2.817-2.969 5.542c3.386-2.541 3.757-5.79 4.963-8.642 2.853-6.737 8.74-12.572 15.597-14.993-6.519.794-14.493 6.677-14.26 4.053.108-1.224 3.605-12.865 25.025-21.77zm43.775 24.34c-16.114.167-30.553 4.533-39.519 7.996 10.164-3.417 27.38-6.47 46.503-.05-29.47-5.87-52.752 7.936-52.752 7.936 16.878-5.516 27.581-.316 27.581-.316-20.46-2.489-35.713 8.28-40.962 14.996-.406.82-.788 1.679-1.124 2.574 4.735-4.463 9.802-8.081 21.485-10.98 27.675-6.864 46.91 1.457 49.22 10.202 0 0 .09-.045.269-.141 1.12-.609 5.423-2.443 11.896-8.811 6.797-6.69 11.058-12.059 12.741-15.67-10.616-5.322-21.646-7.446-32.09-7.712a90.649 90.649 0 0 0-3.245-.024zM52.127 104.23c-4.496 1.376-10.2.985-13.348.132-3.63 2.503-16.694 8.095-25.005 22.163.43 4.768.924 10.868 2.883 14.215 7.991 12.621 21.952 7.959 21.952 7.959s-21.21-9.411 1.461-23.133c7.238-4.38 27.264-7.666 39.206-3.827 1.016.377 2.276 1.268 2.19 1.498-1.238 6.078-6.25 23.106-14.561 27.944-4.595-6.71 7.53-22.119-4.84-22.705 0 0 3.08 4.771 1.752 11.18-.582 2.812-2.499 10.322.925 18.096 0 0 18.803-11.247 24.384-37.202.723-2.558 1.21-4.721 2.319-6.685-24.156 9.52-39.314-9.635-39.314-9.635zm-5.698 3.873c1.295 1.06 2.636 1.8 6.158 2.135 0 0-6.322 1.838-7.724 2.255-1.733.516-5.475 1.044-3.697-1.618 0 0 2.251-1.212 5.263-2.773zm75.58 1.776c-15.102.327-22.031 7.083-22.031 7.083s6.976-5.251 18.813-3.348c17.512 2.815 17.012 13.85 17.012 13.85s7.88-3.393 11.869-10.324c0 0-4.947-4.717-13.887-6.299-4.372-.771-8.292-1.037-11.777-.962z" fill="#a2aaad"/></svg>