<svg xmlns="http://www.w3.org/2000/svg" xml:space="preserve" height="38.601" viewBox="0 0 192.564 38.601" width="192.56"><path d="M107.86 1.04c-4.71 0-8.399 2.933-8.399 6.714 0 3.785 3.689 6.719 8.399 6.719s8.4-2.934 8.4-6.72c0-3.78-3.69-6.712-8.4-6.712zm-63.636.253.989 1.72-6.44 11.21h4.104l.961-1.665h6.863l.957 1.664h5.103L49.33 1.292h-5.106zm12.924 0 1.592 1.99v10.94h4.504v-3.815h1.939l2.936 3.815h5.144l-3.759-4.436c1.817-.758 2.775-2.165 2.775-3.935 0-2.699-2.215-4.559-6.336-4.559h-8.795zm17.074 0 1.586 1.99v10.94h4.504V1.293h-6.09zm9.709 0V4.32h6.557l-7.379 9.903h14.348v-3.026h-6.559l7.383-9.904h-14.35zm33.359 0 1.83 1.916v11.014h4.16V7.416l6.65 6.807h3.89V1.293h-4.16v6.803l-6.65-6.803h-5.72zm23.96 0 .99 1.72-6.44 11.21h4.1l.96-1.665h6.86l.96 1.664h5.1l-7.43-12.93h-5.1zm-33.39 2.892c2.12 0 3.71 1.728 3.71 3.569 0 1.847-1.59 3.572-3.71 3.572s-3.72-1.725-3.72-3.572c0-1.84 1.6-3.569 3.72-3.569zm-44.616.135h2.486c.758 0 2.026.47 2.026 1.531 0 1.064-1.268 1.537-2.026 1.537h-2.486V4.32zM47.277 6.607l1.832 3.18h-3.67l1.838-3.18zm97.023 0 1.83 3.18h-3.67l1.84-3.18zM11.78 19.728c-6.253 0-10.967 3.856-10.967 8.957 0 5.103 4.714 8.955 10.967 8.955 3.482 0 6.364-1.055 8.148-2.278l-2.004-3.49c-3.351 2.064-10.767 1.792-10.767-3.187 0-4.975 7.416-5.254 10.767-3.19l2.004-3.488c-1.784-1.217-4.666-2.279-8.148-2.279zm170.16 0c-5.08 0-8.49 2.265-8.49 5.631 0 3.773 3.89 4.755 8.21 5.576 2.49.47 3.42.827 3.34 1.625-.1.98-2.12 1.053-3.23 1.013-2.04-.08-5-.444-7.17-1.7l-2.01 3.49c3.05 1.681 6.61 2.277 9.91 2.277 5.19 0 9.01-2.194 9.01-5.725 0-3.627-3.9-4.798-8.12-5.52-2.92-.535-3.53-.909-3.46-1.597.08-.807 1.6-.912 2.72-.889 1.85.047 4.33.453 6.2 1.586l2.01-3.488c-2.25-1.495-5.36-2.279-8.92-2.279zm-153.21.338 1.32 2.295-8.59 14.941h5.473l1.281-2.217h9.151l1.273 2.217h6.809l-9.908-17.236H28.73zm17.228 0 2.125 2.654v14.582h6.004v-5.078h2.584l3.918 5.078h6.858l-5.012-5.912c2.423-1.015 3.699-2.882 3.699-5.242 0-3.604-2.952-6.082-8.445-6.082H45.958zm22.764 0 2.121 2.654v14.582h7.885c6.932 0 11.41-3.365 11.41-8.617 0-5.253-4.478-8.619-11.41-8.619H68.722zm23.299 0 2.121 2.654v14.582h6.006V20.066h-8.127zm11.387 0 2.44 2.552v14.684h5.55v-9.068l8.87 9.068h5.18V20.066h-5.54v9.066l-8.87-9.066h-7.63zm31.95 0 1.32 2.295-8.59 14.941h5.47l1.28-2.217h9.15l1.28 2.217h6.8l-9.91-17.236h-6.8zm17.23 0 2.12 2.654v14.582h15.57v-4.029h-9.57V20.066h-8.12zm-98.501 4.035h3.317c1.01 0 2.699.626 2.699 2.047 0 1.418-1.689 2.045-2.699 2.045h-3.317v-4.092zm22.764 0h1.959c3.186 0 5.166 2.102 5.18 4.584-.014 2.48-1.994 4.588-5.18 4.588h-1.959v-9.172zm-44.049 3.05 2.44 4.243h-4.895l2.455-4.244zm106.63 0 2.44 4.243h-4.9l2.46-4.244z" fill="#97233f"/></svg>