<svg xmlns="http://www.w3.org/2000/svg" height="93.707" width="447.739" viewBox="0 0 449.37 95.707"><path d="m1.258 45.68 9.186 7.607v41.68h20.6V79.165l22.272-.016 4.197-10.988-26.47.02V56.694h32.33V45.68zm69.196 0 9.468 7.426-16.095 41.86h18.985l4.98-13.357h23.73l5.088 13.357h19.017L116.29 45.68zm65.172 0 9.408 7.496v41.79h45.4V82.394h-25.031V45.68zm54.458 0 9.449 7.453v41.833h47.082V82.394h-26.608v-25.7h26.608V45.68zm60.768 0 9.406 7.404v41.882h56.448V45.68zm70.79 0 9.138 7.385v41.9h19.796V73.252l23.74 21.715h11.376V45.68h-19.856v21.333L342.161 45.68zm69.016 0 9.015 7.289v21.61l29.104-.021v7.836h-29.104v12.571h48.944V63.58h-29.138v-6.886h29.138V45.679zM273.27 56.694h23.675v25.7h-16.809V62.37zM96.575 58.07h5.988l4.805 12.614H91.872z"/><path d="M104.296 1.261 109.06 5l-8.101 21.072h9.556l2.508-6.725h11.945l2.562 6.725h9.572L127.37 1.26zm31.546 0 2.209 5.562h9.228v19.248h10.434V9.567l-3.357-2.744h14.065V1.261zm36.724 0 4.553 3.852V26.07h22.78l-.025-6.289-12.54.008V1.26zm35.077 0L212.407 5l-8.1 21.072h9.557l2.506-6.725h11.944l2.563 6.725h9.574l-9.734-24.81zm33.761 0 4.524 3.914v20.896h9.888V15.274l11.859 10.797h5.722V1.26H263.5v10.892L251.673 1.26zm37.761 0v5.562h10.762v19.248h10.436V9.567l-3.357-2.744h14.075l-.02-5.562zm36.955 0L320.885 5l-8.103 21.072h9.556l2.508-6.725h11.945l2.56 6.725h9.574L339.19 1.26zM117.445 7.5h3.013l2.418 6.35h-7.799zm103.347 0h3.015l2.418 6.35h-7.8zm108.477 0h3.016l2.416 6.35h-7.799z" fill="#a71930"/></svg>