<svg xmlns="http://www.w3.org/2000/svg" xml:space="preserve" height="39.333" viewBox="0 0 192.695 39.333" width="192.69"><path d="M177.195 12.002c-9.442 0-12.794 3.546-12.794 6.582 0 2.427 2.444 4.709 6.373 5.96l8.657 2.802.19.07c.866.322.866.396.866.595 0 .958-1.99 1.8-4.261 1.8-1.06 0-2.088-.186-2.912-.517l-4.571-3.026-6.06 6.283 9.386.852c1.407.149 3.058.229 4.762.229 12.805 0 14.186-5.205 14.186-7.442 0-2.364-1.79-4.223-5.041-5.227l-9.823-3.19c-.438-.141-.789-.552-.852-.719.044-.627 1.527-1.13 3.35-1.13 1.03 0 1.763.137 2.25.416.056.037 4.373 2.781 4.373 2.781l6.144-5.99-9.22-.867c-1.496-.126-3.234-.262-5.003-.262zm-162.25.384c-1.755.01-3.498.145-4.995.27-.009.003-9.226.867-9.226.867l6.146 5.993s3.895-2.48 3.957-2.523c.106-.058.256-.099.397-.145v12.43c-.63.441-5.5 3.875-5.5 3.875H28.16s-4.869-3.433-5.498-3.875v-4.371h.386l7.466 8.246h23.067s-4.17-2.954-5.078-3.6l.858-1.32h9.587l.859 1.32c-.906.646-5.076 3.6-5.076 3.6h23.64s-5.576-3.917-5.83-4.099L61 12.386h-7.927S42.074 28.62 41.812 29.005l-.922.486a86.079 86.079 0 0 1-.954-.502c-.153-.15-4.045-3.877-5.703-5.465 3.473-1.038 5.368-2.739 5.368-4.88 0-5.954-13.588-6.259-16.312-6.259h-8.343zm48.81 0s5.533 3.888 5.815 4.089c.203.313 14.023 22.132 14.023 22.132l13.183-22.086 2.26-1.19c.942.494 1.693.893 1.93 1.015v12.931c-.629.442-5.497 3.875-5.497 3.875h30.84v-7.84s-6.448 3.395-6.837 3.598h-7.067v-4.674h4.334c.383.202 5.745 3.064 5.745 3.064V18.21l3.825 2.016v-7.84H86.973s2.624 2.848 3.21 3.481c-.529.921-3.7 6.417-4.872 8.444-1.121-2.046-4.124-7.523-4.623-8.43l3.224-3.496H63.756zm64.97 0 3.518 3.762v13.245l-3.518 3.76h15.9s-4.867-3.43-5.496-3.875v-7.909c2.61 1.939 20.7 15.345 20.7 15.345V16.267c.627-.446 5.495-3.881 5.495-3.881H147.51l5.496 3.88v5.003l-12.09-8.883h-12.19zM22.66 16.627h.626c2.53 0 4.144 1.196 4.144 2.018 0 .791-1.652 1.989-4.144 1.989h-.626v-4.007zm89.742 0h7.067c.129.069.98.514 1.806.949-.047.022-4.156 2.187-4.537 2.386h-4.335v-3.335zM54.24 20.961c.66 1.01 1.203 1.85 1.952 2.999h-3.933a1538.72 1538.72 0 0 0 1.981-3z" fill="#9a7611"/><path d="M125.525 1.275c-2.107 0-3.342 1.36-3.342 2.906s1.235 2.91 3.342 2.91c2.106 0 3.34-1.363 3.34-2.91 0-1.547-1.235-2.906-3.34-2.906zm-84.218.152v5.51h3.01c1.679 0 2.7-.437 2.7-1.572 0-.811-.724-1.206-1.625-1.262V4.09c.901-.17 1.384-.54 1.384-1.246 0-1.029-.902-1.417-2.238-1.417h-3.23zm16.325 0-2.44 5.51h1.764l.335-.868h2.44l.334.867h1.773L59.34 1.427h-1.709zm12.67 0v5.51h4.231V5.775h-2.58V1.427H70.3zm11.574 0v1.07h1.728v4.44h1.65v-4.44h1.727v-1.07h-5.105zm13.654 0v5.51h1.652v-5.51H95.53zm10.69 0v5.51h1.503V2.657h.019l1.344 4.278h1.458l1.31-4.278h.018v4.278h1.56V1.427h-2.396L109.83 5.52h-.019l-1.17-4.093h-2.423zm31.432 0v5.51h1.653V4.954h1.046l1.3 1.981h1.85l-1.515-2.213c.826-.2 1.364-.774 1.364-1.484 0-1.238-.91-1.812-2.395-1.812h-3.303zm14.498 0v5.51h5.14V5.868h-3.49V4.567h3V3.501h-3V2.497h3.213v-1.07h-4.863zm-26.625 1.007c1.223 0 1.688.883 1.688 1.747 0 .85-.465 1.749-1.688 1.749-1.3 0-1.69-.945-1.69-1.75 0-1.238.722-1.746 1.69-1.746zm-82.638.016h1.374c.548 0 .864.108.864.572 0 .401-.335.572-.864.572h-1.374V2.45zm96.42 0h1.511c.53.008.884.232.884.741 0 .51-.354.736-.884.743h-1.51V2.45zm-80.81.325h.019l.817 2.273h-1.651l.815-2.273zm-15.59 1.84h1.644c.61 0 .815.2.815.656 0 .356-.242.642-1.114.642h-1.345V4.615zm134.288 8.341c-8.683 0-11.839 3.068-11.839 5.628 0 2.111 2.49 4.027 5.706 5.05l8.682 2.81c.849.323 1.698.544 1.698 1.567 0 1.762-2.607 2.748-5.216 2.748-1.337 0-2.492-.252-3.342-.605l-4.005-2.655-4.13 4.283 7.407.674c1.519.156 3.155.223 4.675.223 9.106 0 13.234-2.781 13.234-6.49 0-2.526-2.613-3.77-4.371-4.315l-9.836-3.195c-.789-.258-1.517-1.055-1.517-1.599 0-1.628 2.49-2.111 4.31-2.111 1.276 0 2.126.195 2.733.548l3.764 2.397 4.13-4.03-7.168-.67c-1.517-.132-3.216-.258-4.915-.258zm-162.25.384-.011.012c-1.695 0-3.389.13-4.904.254l-7.165.674 4.13 4.03 3.353-2.142c.436-.248 1.028-.4 1.83-.453v14.058L8.735 32.2h16.418l-3.442-2.427v-5.82h1.76l7.466 8.247h19.651l-3.383-2.397 1.639-2.526h10.625l1.64 2.526-3.384 2.397h17.63l-3.5-2.462L60.5 13.34h-6.922l-11.11 16.398-1.58.832-1.514-.797-7.043-6.75c3.643-.765 6.315-2.267 6.315-4.378 0-3.898-8.378-5.305-15.358-5.305h-8.343zm51.825 0 3.505 2.462 13.293 20.984 12.524-20.984 2.945-1.55 2.884 1.519v14.002L98.478 32.2h26.875v-5.307l-5.646 2.97h-8.256v-6.581h5.524l4.555 2.43V18.52l-4.555 2.397h-5.524v-5.244h8.256l5.646 2.973V13.34H89.148l2.209 2.401-6.068 10.516-5.767-10.516 2.21-2.4H66.77zm64.155 0 2.275 2.431v14.002l-2.275 2.427h10.693l-3.442-2.427V19.477l20.701 15.34V15.772l3.443-2.43h-11.804l3.444 2.43v7.384l-13.356-9.815h-9.68zM21.71 15.672h1.579c2.852 0 5.096 1.408 5.096 2.973 0 1.536-2.244 2.942-5.096 2.942H21.71v-5.914zm32.537 3.55 3.703 5.692h-7.464l3.762-5.691z"/></svg>