<svg xmlns="http://www.w3.org/2000/svg" xml:space="preserve" height="48.6" viewBox="0 0 189.337 48.588" width="189"><g fill="#00338d"><path d="M187.875 27.438a15.23 15.23 0 0 0-3.156-4.657 15.062 15.062 0 0 0-4.656-3.156 14.115 14.115 0 0 0-5.625-1.156H161.28a4.792 4.792 0 0 1-3.403-1.397c-.434-.435-.925-1.31-.872-2.6.043-1.031.435-1.64.872-2.075a4.783 4.783 0 0 1 1.531-1.022 4.624 4.624 0 0 1 1.872-.372h7.156c.635 0 1.213.12 1.775.366.576.25 1.094.606 1.544 1.056.456.456.803.963 1.06 1.544.244.556.362 1.156.362 1.828v.406H186.744V.047H173.18v.628a14.323 14.323 0 0 0-4.75-.794h-10.437a14.418 14.418 0 0 0-5.688 1.153c-1.737.744-3.344 1.816-4.656 3.157a15.19 15.19 0 0 0-3.119 4.656 14.303 14.303 0 0 0-1.153 5.687c0 1.944.385 4.657 1.156 6.438a14.659 14.659 0 0 0 3.157 4.625 15.135 15.135 0 0 0 4.656 3.119c1.79.772 3.719 1.159 5.687 1.156h13.157c.634 0 1.215.119 1.775.366.58.255 1.087.6 1.543 1.056s.966 1.375.944 2.01c-.04 1.333-.497 2.18-.934 2.627a4.708 4.708 0 0 1-1.497 1.04 4.463 4.463 0 0 1-1.831.367h-7.157a4.645 4.645 0 0 1-1.871-.372 4.673 4.673 0 0 1-1.529-1.025 4.743 4.743 0 0 1-1.025-1.529 4.666 4.666 0 0 1-.371-1.871v-.404H145.672v16.157c4.531 0 9.031 0 13.562.002v-.644c1.525.535 3.125.81 4.782.81h10.437a14.357 14.357 0 0 0 5.688-1.16 14.624 14.624 0 0 0 4.625-3.156 15.08 15.08 0 0 0 3.118-4.656 14.316 14.316 0 0 0 1.157-5.688c0-1.925-.388-4.625-1.157-6.406M64.75 11.5V-.063H44.531V11.5c1.678 0 3.407.322 3.407 2.834v19.688c0 2.453-1.744 2.947-3.407 2.947V48.53H64.75V36.97c-2.24 0-3.406-.49-3.406-3.01V14.272c0-1.95.753-2.772 3.406-2.772M30.125 16.188a5.19 5.19 0 0 1-1.047 1.562 4.64 4.64 0 0 1-1.497 1.04 4.428 4.428 0 0 1-1.828.366h-9.937c0-3.187-.003-5.062 0-8.25 3.75-.002 6.187 0 9.937 0a4.3 4.3 0 0 1 1.772.366c.581.253 1.084.6 1.544 1.056a4.94 4.94 0 0 1 1.056 1.544c.244.556.244 1.747 0 2.306zm-.004 18.062a5.145 5.145 0 0 1-1.044 1.575 4.64 4.64 0 0 1-1.497 1.04 4.428 4.428 0 0 1-1.828.366h-9.937c-.003-3.187-.003-5.062 0-8.25h9.937c.631 0 1.213.122 1.772.366.581.257 1.084.6 1.54 1.056.46.46.807.966 1.06 1.544.244.56.244 1.71-.004 2.294zm12.344-25.5a15.39 15.39 0 0 0-3.116-4.656A14.612 14.612 0 0 0 34.724.937a14.223 14.223 0 0 0-5.688-1.159H-.277v11.563c1.698 0 2.941.443 2.941 2.456v20.375c0 1.637-1.243 2.634-2.94 2.634V48.37H29.036c1.95.004 3.875-.385 5.688-1.16a14.694 14.694 0 0 0 4.625-3.156 15.126 15.126 0 0 0 3.116-4.656c.774-1.788 1.153-3.75 1.156-5.688.004-3.562-1.228-7.03-3.625-9.656 2.406-2.644 3.625-6.125 3.625-9.656a14.515 14.515 0 0 0-1.157-5.688M90.688 32.125v1.863c0 .828-.005 3.437-3.22 3.437-3.468 0-3.812-2.51-3.812-3.438V14.3c0-3.156 3.375-2.772 3.375-2.772V-.034H66.887v11.562c3.562 0 3.375 2.772 3.375 2.772v19.687s.242 3.01-3.375 3.01v11.562h37.375V32.122H90.699M130.063 32.125v1.863c0 .828-.003 3.437-3.22 3.437-3.468 0-3.812-2.51-3.812-3.438V14.3c0-3.156 3.375-2.772 3.375-2.772V-.034h-20.144v11.562c3.562 0 3.375 2.772 3.375 2.772v19.687s.242 3.01-3.375 3.01v11.562h37.375V32.122h-13.563"/></g></svg>