<svg xmlns="http://www.w3.org/2000/svg" xml:space="preserve" height="74.3" viewBox="0 0 189.988 74.35" width="190"><g fill="#0085ca"><path d="m42.5 50.375.622-2.753c.712-2.85.369-5.188-.99-6.781-1.263-1.475-3.376-2.257-6.094-2.257l-11.344-.016-.135.522c.685.27 1.407 1.031 1.166 2.15l-7.531 31.562h7.125l2.89-12.062c.129-.435.504-1.338 1.413-1.356.184-.006 1.181-.054 1.406-.054 5.781 0 10.156-3.469 11.469-9.094zm-6.531-2.144-.344 1.597c-.5 2.147-1.278 3.469-3.594 3.469l-5.625-.006.138-.41 3.75-.821 1.76-7.344 1.971-.003c.903 0 1.481.184 1.819.581.447.525.484 1.431.11 2.928M47.813 38.5l-.136.522c.671.264 1.521 1.044 1.193 2.081l-5.218 13.25c.656-.116 5.125-.894 7.437-1.21l1.325-3.843.003.004s.385-1.228.872-1.228c0 0 .397.07.39.707l-1.237 10.593h-3.469l.002-.006h-7.281L36.38 72.84h8l2.785-8.126h3.012c1.45.132 1.519 1.163 1.516 1.41l-.788 6.75H58l3.969-34.376-14.094.004"/><path d="M41.875 58.5c1.96-.243 5.156-.64 7.563-.95l.068-.2H42.32l-.453 1.15M50.313 54.75H43.25l-.64 1.628c2.05-.226 5.062-.56 7.406-.847l.267-.781M80.625 38.5l-3.028 12.469c-.223.847-.312.997-.69.997-.52 0-.641-1.178-.641-1.178v.003l-1.51-12.282h-8.062l-.13.52c.684.268 1.406 1.03 1.16 2.152l-7.688 31.563h6.53l3.438-14.125c.186-.663.302-.79.632-.79.409 0 .568.73.615 1.037l1.494 13.906h6.094l8.343-34.375h-6.53M101.875 44.75h4.219l1.462-6.125H89.463L88 44.75l3.938.007c1.537 0 1.278 1.154 1.278 1.154l.009-.008L86.6 72.997h7.406l6.344-27.094s.258-1.15 1.543-1.15l-.001-.001M142.813 53.188h-4.75c-.747 0-1.097-.447-.875-1.385l1.275-5.25c.16-.66.297-1.603 2.328-1.603h6.5l1.509-6.313h-17.406l-.135.522c.682.266 1.391 1.016 1.17 2.116l-7.563 31.875h15.968l1.507-6.281h-7.157c-1.54 0-1.515-.581-1.225-2l.928-4c.134-.744.532-1.2 1.2-1.2v-.002h5.188l1.51-6.312M164.688 70.063h-.005l-1.675-12.282c2.713-1.528 4.656-4.156 5.469-7.593l.622-2.754c.712-2.85.368-5.187-.991-6.78-1.26-1.476-3.375-2.257-6.094-2.257l-11.343-.017-.136.522c.687.27 1.406 1.032 1.165 2.15l-7.531 31.563h7.125l2.887-12.063c.132-.437.51-1.33 1.413-1.35l.762-.03 1.675 13.437h8.688l-.06-.513c-.793-.272-1.837-1.094-1.978-2.184zm-2.738-22-.344 1.596c-.5 2.147-1.278 3.47-3.594 3.47l-5.625-.007.14-.41 3.75-.821 1.759-7.344 1.672.006c.095-.006.197-.009.299-.009.903 0 1.48.184 1.818.581.45.525.485 1.432.11 2.929"/><path d="M188.438 40.375c-1.297-1.544-3.313-2.36-5.875-2.36h-.005c-.35 0-1.294.066-1.294.066-.325.033-.615.066-.894.112l-.047.01c-4.72.787-8 3.937-8.97 8.656a9.792 9.792 0 0 0-.143 3.218c.313 3.625 2.647 5.938 4.75 8.063 1.772 1.775 3.313 3.344 3.407 5.406-.003.08.02.647-.088 1.103-.332 1.435-1.332 2.372-2.828 2.54-.196.014-.991.077-1.522-.168-.775-.331-1.22-1.115-1.235-2.028-.013-.772.413-1.456 1.125-1.987l.093-.385-7.188.002-.183.922c-.622 3.037-.153 5.687 1.321 7.437 1.297 1.544 3.313 2.36 5.875 2.36h.005c.35 0 .706-.015 1.094-.044.043-.003.085-.009.128-.015l.07-.007c.325-.029.616-.066.894-.111l.05-.01c4.718-.785 8-3.938 8.968-8.657.24-1.162.27-2.231.145-3.218-.312-3.594-2.644-5.938-4.75-8.063-1.769-1.775-3.312-3.344-3.406-5.406.006-.08.006-.716.091-1.1.313-1.444 1.335-2.372 2.828-2.538.16-.012 1.178-.05 1.778.428l.002.002c.584.397.866 1.028.878 1.716.014.83-.503 1.556-1.347 2.08l-.083.36h7.468l.21-.944c.621-3.037.153-5.687-1.323-7.437M122.188 38.5l-3.47 14.375c-.213.872-.921 1.028-1.277 1.05H117.233h.001-7.406l.127-.531 3.531-.597 3.375-14.313-6.937.003-8.219 34.375h7.062l2.616-11.093.002.003s.215-1.135 1.812-1.135v-.003h2.066l-.002.006c1.422 0 1.363.897 1.331 1.1l-2.684 11.125h7.094l8.125-34.375-6.938-.009M20.031 20.375h-8.156l-.14.597c.438.299.788.847.632 1.584l-.569 2.519c-.48 2.069-1.3 2.875-2.921 2.875-.507 0-1.163-.067-1.429-.39-.29-.357-.294-1.16-.01-2.385l3.844-16.594c.547-2.36 1.406-3.187 3.281-3.187.416 0 .725.124.928.372.39.478.45 1.468.159 2.725l-.344 1.478c-.256.637-.813 1.112-1.347 1.387l-.14.613h1.021l-.003.012h7.188l.681-2.928c.722-3.113.308-5.813-1.165-7.625-.9-1.104-2.66-2.413-5.938-2.413-5.719 0-10.062 3.438-11.344 9l-4 16.563c-.659 2.843-.275 5.25 1.113 6.937.928 1.134 2.797 2.49 6.406 2.49 5.531 0 9.781-3.437 11.063-9l1.118-4.937M29.531-.563l-.133.522c.672.263 1.522 1.044 1.19 2.085l-12.5 31.875h8l2.785-8.125h3.013c1.453.131 1.515 1.169 1.512 1.412l-.787 6.75h7.093l3.97-34.375-14.095.002zm4.625 20.875h-7.375l.214-.534 4.094-.687 3.037-8.875.005.006s.384-1.225.868-1.225c0 0 .397.068.394.703l-1.237 10.593M87.188 1.313c-.897-1.1-2.654-2.407-5.938-2.407-5.688 0-10.031 3.438-11.344 9L65.97 24.781c-.66 2.838-.276 5.25 1.11 6.938.927 1.131 2.79 2.484 6.405 2.484 5.532 0 9.782-3.437 11.063-9l3.781-16.281c.725-3.106.31-5.813-1.162-7.594zm-5.876 7.03L77.47 24.939c-.478 2.065-1.297 2.868-2.913 2.868-1.328 0-1.718-1.547-1.434-2.769l3.844-16.593c.547-2.357 1.412-3.407 3.28-3.188 1.6.176 1.373 1.838 1.082 3.085M94.375 26.625 101-.531l-8.781-.002-.133.516c.69.273 1.415 1.044 1.156 2.175h.003L85.557 33.72h16l1.472-6.156h-7.468c-1.232-.037-1.232-.847-1.204-1.081M110-.563l-.134.516c.69.274 1.418 1.044 1.156 2.175l-7.688 31.563h7.094l8.313-34.375-8.75-.002M135.313-.563l-2.757 11.344h-.006c-.319 1.25-.422 1.469-.912 1.469-.65 0-.794-1.469-.794-1.469l-.002.005-1.396-11.344h-8.063l-.133.516c.687.27 1.406 1.037 1.16 2.159l-7.688 31.562h6.531l3.188-13.062c.266-1.022.384-1.19.846-1.19s.67.809.75 1.209l1.407 13.062h6.093l8.344-34.375h-6.531M147.5-.563l-.133.522c.669.263 1.516 1.044 1.19 2.082l-12.5 31.875h8l2.788-8.125h3.013c1.45.131 1.518 1.162 1.515 1.409l-.787 6.75-.002.01h7.094v-.01l3.969-34.375-14.094.002zm-2.747 20.875.215-.534s1.988-.347 4.094-.687l3.04-8.875.004.006s.384-1.225.872-1.225c0 0 .393.068.39.703l-1.234 10.625h-7.375M62.813 31.313h-.005L61.133 19.03c2.713-1.528 4.656-4.156 5.469-7.593l.622-2.757c.709-2.85.368-5.187-.991-6.781-1.26-1.475-3.375-2.256-6.094-2.256L48.796-.374l-.136.522c.687.27 1.406 1.034 1.165 2.153l-7.531 31.562h7.125l2.887-12.062c.13-.438.51-1.331 1.416-1.353.1-.003.438-.018.763-.032l1.675 13.438h8.687l-.06-.513c-.793-.275-1.837-1.093-1.978-2.184zm-2.738-22-.344 1.596c-.503 2.147-1.278 3.47-3.593 3.47l-5.625-.008.139-.41 3.78-.818 1.757-7.344 1.675.004c.096-.004.194-.009.3-.009.903 0 1.478.186 1.816.582.45.528.484 1.43.112 2.93"/></g></svg>