<svg xmlns="http://www.w3.org/2000/svg" height="28.919" viewBox="0 0 191.751 28.919" width="191.75"><path d="M172.985 1.107c-9.31 0-15.94 2.983-15.94 9.264 0 3.92 3.27 5.758 7.86 6.455 4.7.71 6.29.795 6.29 1.858 0 1.094-1.14 1.119-3.59 1.119-2.22 0-5.2-.742-6.96-1.133-.52-.115-2.23-.658-3.26-1.05v7.585c6.09 2.487 11.12 2.823 15.49 2.823 9.44 0 17.81-1.316 17.81-8.18 0-5.405-3.99-6.291-9.02-7.221-4.75-.878-6.44-.36-6.45-1.89 0-1.406 2.26-1.18 3.88-1.18 1.19 0 2.96.215 4.02.359 1.3.175 4.47.823 6.05 1.666V3.869c-2.77-1.41-7.82-2.762-16.18-2.762zM.815 1.623v25.694h28.962c5.047 0 10.284-1.977 10.284-7.038 0-3.364-2.924-5.607-5.137-6.115 2.99-1.09 4.414-3.718 4.414-6.1 0-2.626-1.869-6.441-12.018-6.441H.815zm82.974 0-10.73 25.694H88.83l1.004-2.547c.212-.55.538-.807 1.035-.807h6.313c.555 0 .974.155 1.185.774l.858 2.58h16.571l-9.96-25.694H83.789zm32.907 0v25.694h15.72l-.01-5.08c.01-.632.25-1.083.83-1.083h.74c.48 0 .99.15 1.44 1.004l2.75 5.159h17.73l-6.47-9.485c3.86-.95 5.54-4.63 5.54-7.871 0-5.886-5.4-8.338-12.84-8.338h-25.43zm-75.028.002v25.694h30.824v-7.887l-13.586-.004c-.503-.002-.793-.39-.793-.887v-.322c0-.41.297-.973.762-.973l13.631-.006v-6.037l-13.615-.006c-.502-.002-.776-.517-.776-1.017v-.272c0-.41.325-1.053.791-1.053l13.846-.002V1.625H41.668zM17.119 8.57l1.963.006c2.427 0 3.776.163 3.776 1.588 0 1.526-1.17 1.528-2.54 1.528l-3.167-.006c-.502 0-.665-.135-.665-.633V9.236c0-.405.166-.666.633-.666zm116.18.506 1.31.014c2.43 0 3.97.384 3.97 2.217 0 2.262-2.44 2.156-3.33 2.156l-1.92.014c-.5-.002-.66-.135-.66-.633V9.742c0-.405.16-.666.63-.666zm-38.913 2.7c.155.003.311.19.43.568l1.095 3.685c.175.486-.053.745-.55.745h-2.106c-.407 0-.716-.31-.541-.76l1.254-3.703c.109-.358.263-.54.418-.535zm-77.273 5.029 3.158.012c1.608 0 2.922.105 2.922 1.617 0 1.72-1.161 1.74-2.444 1.74l-3.605.004c-.502-.002-.662-.137-.662-.635V17.47c0-.407.164-.666.631-.666z" fill="#E64100"/></svg>