<svg xmlns="http://www.w3.org/2000/svg" xml:space="preserve" height="62.6" viewBox="0 0 378.664 62.561" width="379"><defs><clipPath id="a" clipPathUnits="userSpaceOnUse"><path d="M.54 343h606v100H.54V343z"/></clipPath><clipPath id="b" clipPathUnits="userSpaceOnUse"><path d="M0 0h612v792H0V0z"/></clipPath></defs><g><g clip-path="url(#a)" transform="matrix(.63 0 0 -.63 0 277)"><path d="M524 368v-25.5h-63.8l-7.84 13.3h5.89c1.1 0 1.95.873 1.95 1.94v23.9c0 1.07-.855 1.94-1.95 1.94h-5.89l7.84 13.3h25.3v-39.6c0-.81.639-1.46 1.44-1.46h16.9v12.2h20.2zm-173 0v-9.5h-6.24a1.94 1.94 0 0 1-1.94-1.95v-14.1h-31.5c-19.9 0-35.8 10.3-35.8 27.2s15.9 27.2 35.8 27.2h31.5v-19.7h-20.2v6.42h-16a2.33 2.33 0 0 1-2.34-2.34v-23.1c0-1.29 1.04-2.34 2.34-2.34h16v12.2h28.3zm-93.2 28.8v-54.4h-22.1l-27.1 27.2v-27.2H190l-7.85 13.3h5.9c1.08 0 1.95.873 1.95 1.94v23.9c0 1.07-.873 1.94-1.95 1.94h-5.9l7.85 13.3h22.1l27.1-27.2v13.9h-7.86l7.86 13.3h18.6zm-94.5 0v-19.7h-20.2v6.42h-16.9c-.801 0-1.45-.657-1.45-1.45v-7.68h11.2v-9.5h-11.2v-7.68c0-.81.648-1.46 1.45-1.46h16.9v6.42h20.2v-19.7H99.5l-7.85 13.3h5.91c1.07 0 1.94.873 1.94 1.94v23.9c0 1.07-.864 1.94-1.94 1.94h-5.91l7.85 13.3h63.8zm230-32.8 5.38 13.6a.585.585 0 0 0 1.1 0l5.37-13.6h-11.9zm19-22h27.4l-23.9 54.4h-29.2l-17.3-39.3c-.621-1.19-1.67-1.74-2.69-1.74h-5.58l7.85-13.3h14.5l4.27 10.8h20.4l4.28-10.8zm193 17c0-11-8-17-27-17h-31.2l-9.55 16.2h25.1v-5.42h16c1.29 0 2.33 1.05 2.33 2.34v4.9c0 1.28-1.04 2.32-2.33 2.32h-13c-19.2 0-27.5 6.4-27.5 17s8.31 17 27.5 17h35.8v-16.2h-20.2v5.42h-16c-1.3 0-2.34-1.05-2.34-2.35v-4.9c0-1.29 1.04-2.33 2.34-2.33h13c19.2 0 27.5-6.39 27.5-17zm-563 14.4H32v8.19c0 .792.639 1.45 1.44 1.45h8.86c4.33 0 5.94-1.97 5.94-4.82 0-2.83-1.61-4.82-5.94-4.82zm0-18.1h-8.86c-.801 0-1.44.648-1.44 1.46v8.18h10.3c4.33 0 5.94-1.98 5.94-4.82s-1.61-4.82-5.94-4.82zm19.4 14.4c-.576.117-.576.801 0 .999 5.74 1.97 9.98 5.47 9.98 11.6.072 8.28-7.85 14-19.8 14H7.08l-7.8-13h5.9c1.07 0 1.94-.864 1.94-1.94v-23.9c0-1.07-.873-1.94-1.94-1.94h-5.9l7.84-13h47.4c13.5 0 19.6 8.49 19.6 15.5 0 5.8-5.19 10.8-12 12.2"/></g><g clip-path="url(#b)" transform="matrix(.63 0 0 -.63 0 277)" fill="#fb4f1f"><path d="M427 443v-10.4h7.28v4.5h3.2a.866.866 0 0 0 .873-.864v-10.6a.866.866 0 0 0-.873-.864h-2.63l3.5-5.92h11.3v17.6c0 .351.288.639.648.639h3.41v-4.5h7.28v10.4h-34zm-166-8.78v8.76h-14c-8.86 0-15.9-4.56-15.9-12.1 0-7.52 7.08-12.1 15.9-12.1h14v8.78h-8.96v-2.86h-7.13a1.04 1.04 0 0 0-1.04 1.04v10.3c0 .576.468 1.04 1.04 1.04h7.13v-2.85H261zm-112 0v8.76h-14c-8.85 0-15.9-4.56-15.9-12.1 0-7.52 7.09-12.1 15.9-12.1h14v8.78h-8.98v-2.86h-7.12c-.576 0-1.04.459-1.04 1.04v10.3c0 .576.468 1.04 1.04 1.04h7.12v-2.85H149zM275 443l-3.49-5.92h2.62a.866.866 0 0 0 .873-.864v-10.6a.866.866 0 0 0-.873-.864h-2.62l3.49-5.92h11.3v24.2H275zm-112 0-3.49-5.92h2.63a.864.864 0 0 0 .864-.864v-10.6a.864.864 0 0 0-.864-.864h-2.63l3.49-5.92h11.3v24.2H163zm242-14.6-2.41 6.08c-.081.198-.414.18-.468-.018l-2.39-6.06h5.27zm1.9-4.81h-9.08l-1.89-4.8h-6.45l-3.48 5.92h2.49c.468 0 .945.27 1.22.846l7.66 17.4h13l10.6-24.2h-12.2l-1.89 4.8zm-38.1 19.4-3.49-5.92h3.49v-6.17L356.7 443h-9.84l-3.49-5.92H346a.864.864 0 0 0 .864-.864v-10.6a.864.864 0 0 0-.864-.864h-2.63l3.49-5.92h8.27v12.1l12.1-12.1h9.85v24.2h-8.26zm-45.2 0-3.5-5.92h3.5v-6.17L311.5 443h-9.84l-3.5-5.92h2.64a.864.864 0 0 0 .864-.864v-10.6a.864.864 0 0 0-.864-.864h-2.64l3.5-5.92h8.26v12.1l12.1-12.1h9.85v24.2h-8.26zm-112 0-3.48-5.92h3.48v-6.17L199.5 443h-9.84l-3.49-5.92h2.62a.866.866 0 0 0 .873-.864v-10.6a.866.866 0 0 0-.873-.864h-2.62l3.49-5.92h8.26v12.1l12.1-12.1h9.83v24.2h-8.26zm273 0v-24.2h-11.3l-3.5 5.92h2.63c.486 0 .873.387.873.864v10.6a.866.866 0 0 1-.873.864h-2.63l3.5 5.92h11.3"/></g></g></svg>