<svg xmlns="http://www.w3.org/2000/svg" height="185.25" width="406.86" viewBox="0 0 410.86 189.25"><path d="M13.991 2.219c-5.705 0-11.78 5.644-11.78 11.848v53.939c0 6.457 6.039 11.814 11.78 11.845H33.76c5.94 0 11.779-5.388 11.779-11.845V52.594H28.636v12.004h-9.522V17.55h9.522v11.92h16.902V14.066c0-6.204-5.871-11.848-11.78-11.848zm36.534 0V79.85h33.851V64.1H68.294V2.219zm38.048 0V79.85h37.34v-15.75h-19.57V48.015h17.319V32.262h-17.32v-14.29h19.345V2.219zm92.558 0V79.85h37.343v-15.75h-19.573V48.015h17.321V32.262h-17.32v-14.29h19.344V2.219zm42.818 0V79.85h33.847V64.1h-16.078V2.219zm48.221 0L261.034 79.85h17.094l1.683-15.751h11.164l1.69 15.751h17.067L298.595 2.22zm92.152 0V79.85h32.898c5.753 0 11.833-5.369 11.833-11.845V14.067c0-6.223-6.08-11.848-11.833-11.848zm-234.767.005 10.578 77.627h25.865L176.57 2.224h-15.944l-7.524 59.336-7.528-59.336zm183.795 0v77.627h15.752V42.455l14.4 37.396h15.187V2.224h-15.751v36.503L328.425 2.224zm-27.959 11.487 4.172 35.877h-8.37zm96.539 2.975h9.525v48.443h-9.525zM2.22 87.632v99.83h42.35c7.41 0 15.228-6.9 15.228-15.23v-26.63l-6.636-9.059 6.636-9.06v-24.605c0-8.003-7.819-15.246-15.228-15.246zm62.567.005v99.826h22.861v-39.06h6.617l10.271 39.06h23.146l-11.57-41.666 7.558-9.978v-32.942c0-8.003-7.959-15.24-15.233-15.24zm80.352 0c-7.344 0-15.163 7.262-15.163 15.241v69.353c0 8.303 7.773 15.232 15.163 15.232h26.963c7.695 0 15.158-6.93 15.158-15.232v-69.353c0-7.979-7.555-15.24-15.162-15.24zm45.388 0 10.997 99.826h26.563l8.482-60.419 8.598 60.419h26.518l10.997-99.826H261.78l-4.813 63.696-9.776-63.696h-21.025l-8.677 63.696-5.984-63.696zm97.141 0v99.826h20.257v-48.09l18.514 48.09h19.532V87.637h-20.254v46.943l-18.664-46.943zm79.497 0c-7.303 0-15.086 7.262-15.086 15.241v34.1l11.16 10.724h23.564v20.054h-12.259v-11.05h-22.465v15.53c0 7.983 7.784 15.228 15.086 15.228h26.846c7.58 0 15.056-7.004 15.056-15.159v-34.607l-10.529-10.676h-23.994v-19.763h12.26v11.146h22.263v-15.597c-.045-7.95-7.535-15.172-15.084-15.172zM87.652 105.001h12.26v26.045h-12.26zm-62.766.298h12.257v22.511H24.886zm127.604 2.06h12.264v60.493H152.49zM24.886 145.641h12.257v23.685H24.886z" fill="#f30"/></svg>