<svg xmlns="http://www.w3.org/2000/svg" xml:space="preserve" viewBox="0 0 500 85"><g fill="#024"><path d="M105.29 52.571a5.668 5.668 0 0 1-5.668 5.68h-9.563c-3.149 0-5.7-2.538-5.7-5.68V33.034c0-3.142 2.551-5.674 5.7-5.674h9.563a5.663 5.663 0 0 1 5.668 5.674v19.537zM98.39.904l-8.363.05c-13.626.516-24.558 11.429-25.043 25.049l.056 35.204c1.225 12.923 11.859 23.078 24.987 23.576v.05h8.362c14.43 0 26.095-11.691 26.095-26.095V26.993c0-14.41-11.666-26.09-26.095-26.09M348.46 52.571a5.673 5.673 0 0 1-5.674 5.68h-9.57a5.679 5.679 0 0 1-5.68-5.68V33.034a5.673 5.673 0 0 1 5.68-5.674h9.57a5.668 5.668 0 0 1 5.674 5.674v19.537zM341.56.904l-8.37.05c-13.62.516-24.546 11.43-25.056 25.05l.08 35.204c1.214 12.923 11.86 23.077 24.976 23.575v.05h8.362c14.435 0 26.114-11.691 26.114-26.095V26.993c0-14.41-11.679-26.09-26.114-26.09M24.571.954C11.206 1.471.485 12.384 0 26.004l.069 35.204C1.25 74.125 11.704 84.28 24.57 84.783v.05h8.212c14.124 0 25.572-11.69 25.572-26.1V45.783L41.5 45.61v6.788c0 3.242-2.588 5.855-5.786 5.855h-9.775c-3.18 0-5.768-2.613-5.768-5.855V32.226c0-3.235 2.589-5.867 5.768-5.867h9.775c3.198 0 5.786 2.632 5.786 5.867v7.653l16.855.15V2.13h-12.22c-1.97 1.65-3.284 2.47-6.73 1.488C35.956 2.616 32.69.955 24.57.955M277.59 33.391h-11.585v-8.362h11.585v.01c2.29 0 4.162 1.849 4.162 4.163s-1.872 4.188-4.162 4.188zm0 24.116v.011h-11.585v-8.375h11.585c2.29 0 4.162 1.867 4.162 4.182s-1.872 4.18-4.162 4.18zm24.69-31.875c0-13.651-11.05-24.714-24.695-24.714l-5.264.068H205.05v23.29c3.845 0 5.849 1.91 4.86 5.263l-7.921 23.824-7.585-22.94c-.448-3.21 1.705-6.147 6.285-6.147V.987H168.14v23.289c2.607.99 6.383 1.276 4.616 6.664l-8.144 24.652-8.108-24.421c-1.001-3.677 2.75-6.894 6.795-6.894V.987h-36.766v23.29c4.84.498 10.714 3.633 11.84 7.858l16.874 50.971h16.233L181.666 52.4l10.01 30.706h16.496l17.59-51.89c1.835-5.37 5.058-6.938 10.957-6.938 6.638 0 9.357 1.972 9.357 8.499v17.72c0 6.888-3.459 7.759-8.61 7.759h-2.956v24.956h43.075c13.645 0 24.695-11.07 24.695-24.72 0-6.303-3.074-12.077-6.987-16.457 3.9-4.368 6.987-10.098 6.987-16.401M425.39 58.253V83.11h-41.855V58.253h4.075c9.215 0 9.215-6.645 6.633-10.465l-15.38-19.445c-3.08-3.677-4.19-3.814-7.39-3.814h-1.854V.904h36.928v23.625h-3.205c-2.718-.124-4.909.616-2.463 3.447l7.142 8.369h1.096l7.018-8.493c1.979-2.589.995-3.323-1.475-3.323h-4.43V.904h32.61v23.625h-4.306c-1.842 0-3.317.734-5.04 2.831-1.717 2.097-16.862 21.055-16.862 21.055-2.831 3.434-1.593 9.837 8.748 9.837M486.71 31.42h11.399V.907h-13.533c0 1.711-1.139 2.047-3.945 2.047-2.781 0-3.957-.89-5.58-1.643-1.843-.87-5.408-1.144-7.218-1.144-1.799 0-22.138 1.96-22.138 23.625s17.403 24.77 22.81 26.088c5.4 1.313 10.988 3.783 9.345 7.386-1.643 3.615-12.133.162-14.609-1.48-2.47-1.631-4.996-4.07-4.996-4.07h-13.67v31.39h10.944c.66-2.047 2.806-3.522 4.94-3.522 2.122 0 4.747 1.313 6.402 1.96 1.643.66 6.08 2.302 11.156 2.302 5.084 0 21.982-3.453 21.982-25.759 0-22.312-23.295-24.446-25.106-24.944-1.816-.491-9.177-1.96-8.356-5.91.81-3.933 9.52-4.281 15.748.665 2.781 2.222 4.424 3.522 4.424 3.522"/></g></svg>