<svg xmlns="http://www.w3.org/2000/svg" xml:space="preserve" height="32.931" viewBox="0 0 190.773 32.931" width="190.77"><g fill="#0A2343"><path d="M67.178 17.486c-4.413 0-7.988-2.951-7.988-6.592 0-3.643 3.575-6.594 7.988-6.594 4.41 0 7.988 2.951 7.988 6.594 0 3.641-3.577 6.592-7.988 6.592zm0-17.49c-7.432 0-13.457 4.88-13.457 10.898 0 6.019 6.025 10.899 13.457 10.899 7.43 0 13.455-4.88 13.455-10.9 0-6.017-6.025-10.897-13.455-10.897M151.865 17.486c-4.411 0-7.99-2.951-7.99-6.592 0-3.643 3.579-6.594 7.99-6.594 4.412 0 7.99 2.951 7.99 6.594 0 3.641-3.578 6.592-7.99 6.592zm0-17.49c-7.43 0-13.454 4.88-13.454 10.898 0 6.019 6.025 10.899 13.454 10.899 7.433 0 13.456-4.88 13.456-10.9 0-6.017-6.023-10.897-13.456-10.897M15.04 16.549l-7.72.005v-3.835l7.72.005c1.87 0 3.387.855 3.387 1.911 0 1.055-1.516 1.914-3.387 1.914zM7.333 5.106l7.199-.003c1.743 0 3.157.799 3.157 1.782 0 .985-1.414 1.783-3.157 1.783l-7.199-.002v-3.56zm13.783 5.39v-.05c1.095-.605 2.656-1.37 2.68-4.101.02-2.521-2.46-5.217-8.392-5.217H1.217v7.429H-.007v4.114h1.224v7.954h14.771c4.564 0 8.31-2.49 8.31-5.668 0-2.653-1.96-4-3.182-4.46M41.902 8.761l-7.198-.002v-3.56l7.198-.002c1.743 0 3.158.798 3.158 1.784 0 .983-1.415 1.78-3.158 1.78zm4 3.659c3.516-.844 5.488-3.174 5.488-5.524-.003-2.25-2.598-5.717-8.528-5.717H28.676v7.43H27.45v4.112h1.226v7.957h6.066v-7.926h4.806l6.455 7.967h6.995l-7.096-8.299M136.29 6.236V.821L124.905.81c-7.022.213-12.544 4.685-12.544 10.101 0 5.558 5.896 10.059 13.165 10.059.005 0 8.503.004 10.763.007v-5.383h-6.296v1.173h-4.588c-4.125-.106-7.427-2.69-7.427-5.87 0-3.176 3.267-5.798 7.391-5.904 0 0 2.95 0 4.59.002l-.006 1.244 6.336-.003M102.227 1.224V5.23h1.183v8.59L89.928 1.223H83.85v19.558h6.078V8.149l13.482 12.633h6.076V1.224h-7.259M182.04 8.761h-5.887c-1.542 0-2.806-.884-2.806-1.964s1.264-1.96 2.806-1.96h8.36v1.24h5.044V.707h-13.773c-4.802 0-8.728 2.708-8.728 6.018 0 3.31 3.926 6.02 8.728 6.02h5.887c1.542 0 2.806.882 2.806 1.961 0 1.08-1.264 1.964-2.806 1.964h-8.36v-1.242h-5.044v5.37h13.773c4.802 0 8.728-2.708 8.728-6.02 0-3.308-3.926-6.018-8.728-6.018"/></g><g fill="#FC4C02"><path d="M56.577 32.099h.595c.892 0 1.752-.663 1.752-1.821s-.86-1.823-1.752-1.823h-.595V32.1zm-1.066-4.48h1.456c1.63 0 3.07.547 3.07 2.659s-1.44 2.66-3.07 2.66h-1.456v-5.32M71.303 27.611h3.14v.837H72.37v1.312h1.896v.837H72.37v1.495h2.088v.839h-3.155v-5.32M85.765 27.611h1.31l2.028 3.977h.013v-3.977h1.023v5.32h-1.304L86.8 28.95h-.017v3.98h-1.019v-5.32M101.065 27.611h1.143l1.363 4.177h.015l1.35-4.177h1.06l-1.792 5.32h-1.31l-1.829-5.32M116.977 27.611h3.14v.837h-2.072v1.312h1.896v.837h-1.896v1.495h2.086v.839h-3.153v-5.32M132.478 29.886h.351c.526 0 1.128-.076 1.128-.739 0-.639-.595-.694-1.128-.694h-.351v1.433zm-1.067-2.27h1.152c1.141 0 2.506-.038 2.506 1.439 0 .627-.42 1.145-1.097 1.236v.015c.288.022.457.31.564.549l.853 2.08h-1.188l-.641-1.663c-.152-.395-.29-.547-.74-.547h-.342v2.21h-1.067v-5.32"/></g></svg>