<svg xmlns="http://www.w3.org/2000/svg" xml:space="preserve" height="52.255" viewBox="0 0 192.687 52.255" width="192.69"><path d="M4.758 1.03c2.248.993 4.484 3.353 3.65 8.09L.963 51.285h36.61L39.898 38.1H17.367L23.904 1.03H4.757zm39.782 0c2.248.993 4.485 3.353 3.65 8.09l-7.435 42.165H59.92c-2.247-.994-4.484-3.353-3.65-8.09L63.7 1.028H44.54zm23.504 0-7.44 42.165c-.785 4.45 2.214 8.09 6.664 8.09h31.616L106.32 9.12c.785-4.449-2.214-8.09-6.664-8.09H68.044zm38.969 0c2.248.993 4.484 3.353 3.65 8.09l-7.435 42.165h13.185l6.537-37.071h8.795c1.581 0 2.648 1.294 2.369 2.875l-6.03 34.196h16.277L146.69 38.1c-1.582 0-3.002-.57-2.594-2.875l4.602-26.106c.785-4.45-2.215-8.09-6.664-8.09h-35.021zm55.725 0c-4.45 0-8.733 3.64-9.518 8.09l-.94 5.388c-1.237 7.01-.465 10.086 5.222 12.434 5.998 2.476 12.751 5.47 10.86 11.16h-18.456l-2.325 13.183h40.288c-2.248-.994-4.485-3.353-3.65-8.09l1.235-7.098c1.846-10.524-9.001-14.445-12.905-16.122-3.858-1.659-4.258-2.51-3.364-5.76h20.14l2.325-13.186h-28.912zM78.903 14.215h10.46c1.582 0 2.648 1.294 2.37 2.875l-3.709 21.011h-10.47c-1.582 0-2.647-1.293-2.368-2.875l3.717-21.011z" fill="#0076b6"/></svg>