<svg xmlns="http://www.w3.org/2000/svg" xml:space="preserve" height="58.128" viewBox="0 0 193.169 58.128" width="193.17"><path d="M178.58 1.03c-5.67.18-12.1 3.593-12.1 10.585v7.643c0 12.04 14.69 11.003 14.68 17.726l.01 4.977c0 1.277-.17 2.934-1.22 3.416l-.01 11.86c7.09-.264 12.2-5.315 12.2-13.688v-7.113c.14-15.06-15.04-11.108-15.06-20.657 0-1.323.29-3.054 1.48-3.467l.02-11.283zm1.36.02v11.37c1.03.55 1.38 2.13 1.38 3.359v2.348h9.61v-6.815c0-6.793-5.81-9.939-10.99-10.261zm-108.37.282-.002 11.891c.966.516 1.041 2.135 1.041 3.388v8.17H82.6V11.312c0-6.775-5.173-9.8-11.03-9.98zm-1.363.012c-6.003 0-11.75 3.185-11.75 9.968V47.41c0 6.487 5.921 9.606 11.752 9.867l-.002-12.259c-1.044-.399-1.078-1.674-1.078-3.36V16.611c0-1.281.052-2.941 1.08-3.423 0 0 .036-11.844-.002-11.844zm32.489 1.07-5.829 19.05.033 15.507 6.176 19.396h10.59l-8.25-27.695 7.8-26.258h-10.52zm-69.792.045-8.021 53.957h11.879l3.834-32.447-2.311-21.51h-5.381zm9.127 0-2.406.033 3.629 33.264h-2.635l-1.324 10.82h5.338l.834 9.84h12.334L51.367 2.46h-9.336zm43.283 0v53.957h10.215V2.459H85.314zm30.032 0v53.957h10.07V2.459h-10.07zm11.43 0v11.125h9.3V2.459h-9.3zm12.4 0v53.957h10.14l.01-53.957h-10.15zm11.59 0v10.598h.14c1.74 0 2.49.832 2.49 3.404v5.523c0 2.572-.75 3.407-2.49 3.407h-.14l.01 9.527c2.89.227 3.3 1.936 3.3 5.908v15.59h10.37V39.693c0-4.906-2.09-8.086-4.99-8.25 3.4-.201 4.92-6.536 4.92-9.761v-8.248c0-11.097-4.97-10.975-13.09-10.975h-.52zm-149.8.022v53.935h10.668l-.035-53.935H.966zm11.994 0v10.648h.433c1.893 0 2.026.835 2.026 3.407v10.593c0 2.195-.017 3.404-1.871 3.404h-.588v11.051h.568c7.794 0 12.561-1.236 12.561-10.898V13.434c0-11.072-3.556-10.954-12.561-10.954l-.568.001zm113.82 20.108v10.67h9.3v-10.67h-9.3zM72.613 32.807v8.85c0 1.327.087 3.055-1.031 3.467l-.008 12.111c5.15-.217 11.03-3.469 11.03-9.826V32.807h-9.991zm94.627 4.54v8.778c0 9.315 7.58 10.926 11.34 11.104l-.01-11.86c-1.07-.498-1.34-2.14-1.34-3.408v-4.614h-9.99zm-40.46 8.548v10.52h9.68v-10.52h-9.68z" fill="#203731"/></svg>