<svg xmlns="http://www.w3.org/2000/svg" xml:space="preserve" height="30.859" width="192.52"><path d="m.911 11.862 4.639 5.729h8.242v12.365h9.723l.002-12.365h7.568l4.639-5.729H.91zm39.03 2.12v6.269h-3.905l3.904 3.437v6.268h19.63l2.921-3.606H48.282v-2.662H59.57l2.781-3.437H48.282v-2.66H59.57l2.922-3.61h-22.55zm26.823 0 9.635 8.493-9.297 7.48h8.611l4.802-3.86 4.381 3.86h10.52l-9.402-8.281 9.56-7.693h-8.61L81.9 18.055 77.28 13.98H66.766zm41.912 0-5.191 9.35h-5.336l3.586 3.161-1.924 3.463h7.793l1.559-3.225h9.142l1.563 3.225h9.365l-1.944-3.508 3.532-3.115h-5.266l-5.19-9.352h-11.688zm21.861 0 4.434 3.14v12.834h7.011l-.002-7.863 11.094 7.863h7.485l-.004-15.975h-7.012v7.861l-11.092-7.861h-11.914zm50.391 0c-5.953 0-13.283 1.2-13.28 5.564 0 5.266 14.27 3.344 14.265 5.424 0 1.755-6.742 1.807-11.8.867l-3.335 4.119h10.504c5.953 0 13.285-1.238 13.283-5.606.001-5.264-14.27-3.304-14.27-5.38 0-1.756 6.745-1.81 11.802-.868l3.334-4.12H180.93zm-67.195 3.3 2.93 6.05h-5.86l2.93-6.05z" fill="#03202f"/><path d="M139.484 1.259v3.03l-4.27-3.03h-4.586l1.702 1.21.001 4.942h2.702V4.383l4.269 3.028h2.883V1.26h-2.702m-10.01 3.09c0 2.015-2.523 3.223-5.626 3.223s-5.623-1.208-5.626-3.223c.004-1.967 2.536-3.25 5.626-3.25 3.087 0 5.625 1.283 5.625 3.25zm-5.626-1.496c-1.326 0-2.148.699-2.148 1.535 0 .893.883 1.51 2.148 1.51s2.15-.617 2.15-1.51c0-.836-.823-1.535-2.15-1.535zM79.227 4.35c.003 2.015-2.519 3.223-5.624 3.223-3.1 0-5.624-1.208-5.63-3.223.006-1.967 2.542-3.25 5.63-3.25 3.089 0 5.624 1.283 5.624 3.25zm-5.623-1.496c-1.326 0-2.149.699-2.149 1.535.001.893.883 1.51 2.148 1.51 1.264 0 2.147-.617 2.147-1.51.001-.836-.82-1.535-2.146-1.535zM91.665 1.26l-.005 3.347c.005 1.795-2.115 2.966-4.906 2.966-2.79 0-4.909-1.17-4.909-2.966V2.469l-1.703-1.21h4.891l-.001 3.275c0 .76.757 1.363 1.723 1.363s1.723-.603 1.723-1.363V1.26h3.188zm11.532 3.993c0 1.683-2.822 2.16-5.113 2.16h-4.046l1.289-1.586c1.943.36 4.541.344 4.541-.334 0-.8-5.494-.06-5.494-2.087 0-1.681 2.821-2.146 5.113-2.146h4.046l-1.287 1.59c-1.945-.367-4.543-.345-4.54.332-.004.797 5.491.042 5.491 2.071zM66.67 3.416l-2.088 1.84-.001 2.155h-3.21V5.255h-3.82l.002 2.156h-3.21l-.004-2.156-2.086-1.84h2.09L54.34 1.26h3.214v2.157h3.817V1.259h3.21v2.157h2.09zm50.765-2.157-1.23 1.52h-3.192V7.41h-3.335V2.779h-3.193l-1.229-1.52h12.179z" fill="#a71930"/></svg>