<svg xmlns="http://www.w3.org/2000/svg" width="495" height="122.655" viewBox="0 0 500 125.4"><path d="M450.95 1.72c-5.988.05-12.287.786-17.603.786-4.788 0-10.837-.995-15.485.17-2.684.673-5.718 3.965-7.153 6.238-1.546 2.448-.856 6.3-.856 9.077v20.29c0 5.786-2.322 18.233 1.238 22.959 3.493 4.637 9.538 6.062 14.78 7.833 9.489 3.205 18.882 6.687 28.3 10.09 6.017 2.174 15.378 2.836 13.178 11.442-.518 2.032-2.104 3.001-4.101 3.176-5.692.496-14.224 1.267-19.756-.14-4.433-1.127-1.975-6.017-4.935-7.442-4.963-2.39-15.195-.396-20.695-.396-1.932 0-5.083-.579-6.771.548-2.005 1.338-1.238 5.403-1.238 7.46v21.359c0 1.94-.854 6.64.856 7.994 1.653 1.31 5.695.549 7.687.549h21.358v-4.806c2.093 1.383 4.031 3.638 6.407 4.486 2.921 1.042 7.075.32 10.145.32h21.358c4.352 0 10.898 1.291 14.417-1.681 1.784-1.505 4.192-3.554 5.02-5.794 1.164-3.163.32-7.87.32-11.213V79.929c0-4.035 1.282-10.76-.55-14.417-2.53-5.06-9.045-6.274-13.867-8.038a2018.327 2018.327 0 0 0-29.9-10.65c-3.391-1.18-10.045-2.284-12.42-5.072-2.013-2.366-1.1-7.632 1.767-8.888 3.567-1.56 9.472-.457 13.322-.457 2.889 0 8.244-1.035 10.45 1.237 1.629 1.68.513 5.335 2.98 6.068 7.987 2.372 19.863.17 28.219.17V13.184c0-2.41 1.014-7.852-.55-9.823-1.404-1.772-6.504-.856-8.528-.856-6.065 0-20.797-3.123-20.824 4.805-2.007-1.54-3.876-4.005-6.407-4.635-3.09-.77-6.57-.987-10.163-.956zm-326.07.16c-2.615.01-5.092.258-7.095 1.023-7.988 3.051-7.475 10.838-7.475 17.758v82.763c0 3.96-1.218 10.405.93 13.883 4.671 7.558 11.664 6.407 19.36 6.407h45.386c5.845 0 14.816 1.695 20.29-.396 7.685-2.937 6.942-10.605 6.942-17.224V22.797c0-3.866 1.267-10.52-.857-13.883-4.782-7.576-11.643-6.408-19.434-6.408h-45.386c-3.562 0-8.303-.642-12.662-.625zm-69.441.316c-2.764-.025-5.68.31-8.136.31H21.14c-6.936 0-13.407-.389-17.072 6.942-2.345 4.69-.548 14.012-.548 19.222v76.355c0 3.509-1.08 9.214.856 12.28 1.367 2.166 4.177 5.185 6.62 6.086 3.025 1.115 7.483.322 10.678.322h55.531c3.628 0 9.649 1.143 12.815-.856 2.165-1.367 5.185-4.177 6.085-6.62 1.116-3.025.323-7.482.323-10.678 0-7.665 1.207-16.448-.08-23.997-.494-2.903-4.12-2.167-6.328-2.167-6.486 0-15.605-1.673-21.813.17-3.999 1.187-.072 10.188-2.919 12.947-1.843 1.787-4.966 1.3-7.305 1.3H40.896c-2.45-.002-5.445.294-6.846-2.195-1.152-2.047-.63-5.156-.63-7.417V42.552c0-2.822-.833-7.314 1.725-9.289 3.373-2.603 12.82-.856 16.964-.856 3.322 0 8.73-1.022 11.737.549 5.4 2.822.319 9.338 3.228 13.012 1.193 1.505 4.71.856 6.393.856 5.631 0 16.684 2.156 21.722-.323 2.292-1.128 1.238-7.16 1.238-9.288v-25.63c0-2.022.916-7.125-.856-8.529-1.653-1.309-5.695-.549-7.687-.549H66.526v4.806c-2.084-1.462-3.91-3.782-6.408-4.531-1.417-.426-3.02-.57-4.68-.585zm241.25.027c-1.307.003-2.562.112-3.64.453-2.298.726-1.198 5.945-1.198 7.84v21.892c0 1.697-.9 6.238.444 7.46 1.169 1.064 3.983.549 5.43.549h13.349c1.553 0 4.243.487 5.55-.549 1.937-1.534.224-4.874 2.538-6.604 2.043-1.527 9.079-1.675 10.812.381 2.27 2.694.856 10.341.856 13.713v28.833c0 4.062.93 9.473-.375 13.35-.994 2.952-3.71 4.995-4.618 8.009-1.468 4.868-.346 11.487-.346 16.553 0 2.27-.862 6.871.63 8.755 1.352 1.706 5.978.856 7.913.856h22.426c2.062 0 7.654.998 8.755-1.238.881-1.792.322-4.821.322-6.771 0-5.685 1.305-13.22-.272-18.688-.907-3.148-3.895-5.216-4.419-8.544-1.096-6.968-.114-14.836-.114-21.892 0-10.194-.87-20.816.03-30.966.379-4.263 8.794-4.392 11.595-2.276 2.154 1.628 1.724 4.7 1.724 7.079h25.63V2.507h-96.645c-1.878 0-4.198-.29-6.375-.284zm-76.052.17c-1.03.008-2.03.144-2.683.662-2.114 1.674-.857 9.239-.857 11.732 0 4.414-.725 9.551.149 13.883.613 3.039 3.26 5.148 4.27 8.01 1.3 3.687.387 8.935.387 12.814v26.164c0 4.065.684 8.84-.21 12.815-.68 3.028-3.258 5.12-4.221 8.01-1.82 5.459-.375 13.483-.375 19.221 0 1.95-.559 4.98.323 6.772.83 1.687 3.481 1.237 5.017 1.238h67.278c3.864 0 15.561 1.949 18.366-.856 1.677-1.678.856-6.053.856-8.221V92.745c0-2.017.913-7.047-.856-8.448-1.448-1.146-4.365-.63-6.085-.63H286.51c-1.72 0-4.637-.516-6.085.63-2.301 1.823-.012 6.387-2.683 8.585-1.506 1.24-3.835.93-5.649.93-4.57.002-14.817 1.903-18.566-.93-2.03-1.534-1.723-4.292-1.724-6.545V70.852c0-10.58-1.651-22.683.12-33.105.524-3.086 3.157-5.164 4.235-8.01 1.07-2.824.45-6.632.45-9.61V7.846c0-1.398.401-3.796-.855-4.791-1.214-.961-3.58-.549-5.018-.549h-27.232c-.777 0-1.837-.121-2.868-.113zm-69.591 29.33c4.876.026 10.078.685 14.258.685 2.316 0 6.057-.69 7.46 1.68 1.338 2.26.55 6.46.55 8.999v43.25c0 2.413.613 6.03-2.168 7.153-5.911 2.387-16.546.322-22.929.322-2 0-5.6.63-6.927-1.3-1.458-2.119-.548-6.902-.548-9.379V39.35c0-2.318-.672-5.86 2.167-6.71 2.401-.72 5.21-.932 8.136-.916z" fill="#013369"/></svg>