<svg xmlns="http://www.w3.org/2000/svg" xml:space="preserve" height="64.8" viewBox="0 0 190.907 64.802" width="191"><g><path d="M107.75 22v29.313l-3.781 4.75c-5.156.039-10.281.039-15.438.077l-3.781-4.843V21.984h7.656l-.003 27.344 7.656-.013.007-27.313h7.657M47.75 22.625c-4.844.264-9.688.969-14.781 1.422-2.007 12.062-4 24.187-6 36.25 2.69-.434 5.406-.806 8.093-1.113 0 0 4.407-27.437 5.094-31.875l2.532 13.844-5.188 6.469 6.25-.828L45.544 58.2c2.697-.292 5.437-.534 8.187-.775-2.015-11.812-3.968-23.156-5.968-35M67.438 43.563l5.187-.114v6.281c-2.462.093-7.625.384-7.625.384l-.007-21.156 7.72-.23v3.97l6.5-.07v-5.906L75.65 22.16l-14.688.403-3.625 4.562.013 25.313s3.782 4.781 3.782 4.656l14-.694 4.125-5.125V37.932h-7.282l-4.53 5.593M132.125 22.938l-14.25-.822c-1.95 11.437-3.906 22.718-5.875 34.062l7.906.284c.325-2.078 4.406-25.063 5.156-29.844l2.1 12.875-4.468 5.594 5.218.475s1.85 9.344 2.17 11.469l7.843.547-5.813-34.688M158.375 43.875 163.594 39V28.937l-3.688-4.687-18.094-1.303v35c3.041.328 4.594.5 7.625.828V30.306l7.032.644v6.531l-6.063 5.657 7.844 16.593 8.188 1.06-8.063-16.875M176.5 37.313l.006-4.344c2.15.36 4.813.803 6.938 1.168v2.613l7.125 4.906-.022-9.531-3.781-4.719-14.063-2.16-3.687 4.626v11.062c4.844 3.625 9.656 7.282 14.5 10.938v4.812c-2.466-.487-5.438-1.056-7.876-1.53v-3.22l-7.125-4.906v10.625l2.922 3.594c4.157.81 11.594 2.319 15.875 3.156l3.72-4.812V48.309c-4.813-3.687-9.657-7.343-14.5-11"/><g fill="#9f792c"><path d="m29.438-.188.04 11.5h-2.735l.002-3.78-3.157 3.015v2.04l1.541 1.541h5.969l1.54-1.54V-.194h-3.187M92.75 2.625h3.119v8.656H92.75V2.625zM97.5-.206h-6.344l-1.54 1.993v10.344l1.54 1.963H97.5l1.578-2.013V1.77L97.5-.2M131.5 14.188h3.156V-.126H131.5v14.313zM160.875-.188v14.313h8.313v-2.847h-5.063V8.122h2.294l2.106-2.631h-4.406V2.666h5.062V-.181l-8.312-.006M139 2.625v11.313h7.906v-2.85h-4.656V-.35l-3.219 2.966M44.625-.188l-5.938.015-2.518 14.28 3.5.02L41.69 1.688l1.04 5.468-2.065 2.585 2.453.018.8 4.375 3.312-.009L44.656-.186M51.813-.188 50.14 1.77v10.437l1.672 1.897h5.468l1.569-1.934V8.637l-2.731 1.957v.69h-2.735V2.597l2.735.007v1.957h2.731V1.69L56.825-.22h-5M77.75-.188l-1.54 1.575v4.844l6.093 3.188V11.3l-3.469.003v-1.028l-2.85-1.582V12.1l1.6 2.012h6.344l1.578-2.012V7.506l-6.125-3.188V2.647h3.281v.903l2.594 1.28.001-3.718-1.065-1.297h-6.438M119.625 14.188l5.938.004 2.521-14.313-3.5-.004-1.978 12.313-2.269-12.313-3.312.004 2.581 14.313M72.75-.188h-3.719L66.221 5V-.188H62.91v14.25h3.313V8.5l3.281 5.563 3.75-.005-4.562-7.375 4.062-6.875M109.938-.188l.007 7.594-4.125-7.593h-2.957v14.343h3.188l-.012-8 4.25 8h2.86V-.188h-3.22M149.938 2.625v11.313h7.906v-2.85h-4.656V-.35l-3.22 2.966"/></g><path d="m14.625 26.375.02 29.063-6.688 1.153.03-9.563-7.75 9.063v5l3.75 3.25 14.562-2.52 3.78-4.53.09-32.188-7.813 1.35"/></g></svg>