<svg xmlns="http://www.w3.org/2000/svg" height="56.19" width="250"><path d="m249.172 1.12-28.67.005c-11.87.022-17.18 10.969-12.72 19.154l10.62 18.701c.96 1.694-.09 1.853-1.09 1.858-.09 0-16.1-.018-15.78.006l-2.64 14.451h31.44c12.61 0 12.68-14.083 10.85-17.533l-10.73-19.783c-1.2-2.396 1.07-2.215 3.04-2.215l13.19.002 2.49-14.647zm-200.25.26c.015.006-13.295.013-17.217.013-15.094 0-27.005 7.325-30.09 24.812-2.944 16.696 9.51 29.09 22.705 29.09.538 0 14.745.022 14.75 0l2.696-15.75c-.005.019-6.95.004-8.87.004-6.168 0-11.478-4.664-10.372-10.93 1.454-8.245 8.292-11.326 13.26-11.326 1.666 0 10.533.017 10.52-.01L48.921 1.38zm2.162.02-9.53 54.055h20.52l3.198-19.139h10.982l-3.199 19.14h20.517L103.106 1.4H82.588l-3.383 18.728H68.223L71.606 1.4H51.084zm54.632 0L96.19 55.455h20.846l9.54-54.055h-20.86zm23.77 0-9.53 54.055h38.87l2.56-14.592h-17.86l1.17-5.685h15.71l2.39-14.428h-15.88l1.03-5.264h16.98l2.38-14.086h-37.82zm40.6 0-9.04 54.055h20.85l3.35-18.504h15.1l2.55-14.758h-14.77l1.25-6.707h16.4l2.39-14.086h-38.08z" fill="#e31837"/></svg>