<svg xmlns="http://www.w3.org/2000/svg" width="496" height="132.12" viewBox="0 0 498 134.12"><path d="m138.13 49.817 4.41 9.729-35.1 48.085 20.373-.097-17.217 25.943 36.963-34.483-14.769.064v-.042h.015l4.652-7.38h21.084l.27 7.38h17.552l-6.361-49.2zm-113.313.008c-8.427 0-13.019 3.512-15.511 11.939L1.959 86.342c-2.23 7.023 1.773 12.641 8.796 12.641h33.779L48.55 85.64h-30.9l6.73-22.471h25.983c3.011 0 5.538-1.872 6.4-4.916a894.835 894.835 0 0 1 2.463-8.427zm44.715 0L54.837 98.983h15.45l5.465-18.258H96.82l-5.465 18.258h15.45l14.694-49.158h-15.45l-5.472 18.258H79.508l5.473-18.258zm128.292 0-14.621 49.158h15.447l3.964-13.343h11.494l8.941 13.343h18.549l-5.502-8.107-4.09-6.46c4.378-1.63 7.563-4.969 9.16-10.492l3.446-11.457c2.23-7.024-1.773-12.642-8.796-12.642zm72.751 0c-8.427 0-13.02 3.512-15.512 11.939l-7.347 24.578c-2.23 7.023 1.773 12.641 8.796 12.641h37.992l8.493-28.228h-23.013l4.528 9.97-1.516 4.915h-19.663l6.84-22.471h26.687c2.59 0 5.646-2.026 6.4-4.916.75-2.888 2.427-8.427 2.427-8.427zm48.946 0-14.694 49.158h45.646l3.978-13.343h-30.2l1.484-4.915h25.781l3.775-12.641h-25.78l1.484-4.915h25.28c4.022 0 5.615-2.102 6.4-4.916.785-2.814 2.491-8.427 2.491-8.427zm55.81 0-14.695 49.158h15.45l3.952-13.343h11.577l8.94 13.343h18.567l-9.61-14.568c4.377-1.63 7.564-4.968 9.16-10.491l3.446-11.457c2.23-7.024-1.774-12.642-8.796-12.642zm72.733 0c-8.427 0-13.018 3.512-15.511 11.939l-1.857 6.32c-1.972 7.765 3.218 12.641 10.574 12.641h18.504l-1.266 4.915h-33.006l-4.07 13.343h37.219c8.427 0 12.948-3.511 15.512-11.938l1.81-6.32c2.237-8.145-2.738-12.642-11.729-12.642H446.77l1.547-4.915h26.685c3.333 0 5.529-1.986 6.4-4.916.872-2.928 2.477-8.427 2.477-8.427zM209.298 63.168h19.663L226.036 73h-19.662zm177.508 0h19.665L403.546 73h-19.664zm-230.83.705h.704l1.066 15.112H145.8z" fill="#0080c6"/><path d="M76.222 1.355c-6.52 0-10.072 2.717-12 9.238l-5.998 20.106c-1.726 5.434 1.372 9.782 6.807 9.782h21.246c6.521 0 10.074-2.718 12.002-9.238l5.997-20.106c1.726-5.434-1.371-9.782-6.805-9.782zm111.58.463 3.416 7.538-22.247 30.578h14.707l3.602-5.718h16.336l.207 5.718h13.598l-4.928-38.117zm-166.786.08 3.407 7.523.016-.007-9.123 30.524h34.233l3.235-10.87H30.502l8.138-27.17zm103.401 0c-6.521 0-10.073 2.718-12.002 9.239l-1.436 4.89c-1.527 6.01 2.49 9.782 8.181 9.782h14.319l-.98 3.805h-25.54l-3.15 10.324h28.801c6.52 0 10.019-2.717 12.002-9.238l1.4-4.89c1.732-6.303-2.118-9.783-9.075-9.783h-13.521l1.197-3.803h20.65c2.578 0 4.276-1.537 4.95-3.804.676-2.266 1.918-6.521 1.918-6.521zm109.039 0-11.37 38.04h11.955l5.98-21.14 9.508 21.14h13.041l11.368-38.04h-11.952L256 23.093 246.498 1.9zm57.53 0c-6.522 0-10.073 2.718-12.002 9.239l-5.686 19.02c-1.724 5.433 1.373 9.78 6.807 9.78h29.399l6.57-21.844h-17.807l3.505 7.715-1.174 3.805h-15.215l5.293-17.39h20.65c2.005 0 4.37-1.568 4.953-3.804.581-2.235 1.877-6.52 1.877-6.52zm38.18 0-11.37 38.04h35.321l3.079-10.324h-23.369l1.148-3.805h19.95l2.922-9.782h-19.95l1.147-3.803h19.563c3.113 0 4.343-1.626 4.951-3.805.608-2.177 1.93-6.52 1.93-6.52zm41.046 0 3.407 7.523.015-.007-9.123 30.524h34.234l3.233-10.87h-22.28l8.137-27.17zm46.61.037L405.45 39.974h35.322l3.077-10.326h-23.367l1.148-3.803h19.948l2.922-9.781h-19.948l1.147-3.805h19.564c3.112 0 4.343-1.626 4.951-3.803.607-2.177 1.93-6.52 1.93-6.52zm52.792 0c-6.52 0-10.073 2.717-12.003 9.237l-1.435 4.892c-1.526 6.009 2.49 9.78 8.181 9.78h14.319l-.981 3.804h-25.54l-3.15 10.326h28.801c6.521 0 10.02-2.717 12.002-9.237l1.402-4.892c1.731-6.301-2.12-9.78-9.077-9.78h-13.521l1.197-3.805h20.65c2.578 0 4.277-1.536 4.952-3.803.675-2.266 1.917-6.521 1.917-6.521zM75.78 11.952h16.302L86.71 29.884H70.408zm125.848.757h.544l.826 11.707h-9.255z" fill="#ffc20e"/></svg>