<svg xmlns="http://www.w3.org/2000/svg" height="68.307" width="250"><path d="m246.715 30.087-.432 1.62-.376 1.406c-.065.252-.453 1.386-1.556 2.212-1.064.798-2.532.839-2.817.839l-16.189.008c-3.167 0-3.111 2.924-3.111 2.924l13.59.26c4.737.104 7.278 2.933 7.08 5.97a13.51 13.51 0 0 1-.446 2.48c-.631 2.45-2.77 6.535-10.01 6.535H211.51l.73-2.827c.063-.245.264-1.677 1.337-2.48 1.012-.758 2.346-.819 2.735-.819l16.457-.007c.967 0 1.677-.187 2.2-.466.632-.34.987-.816 1.186-1.264.295-.665.247-1.267.247-1.267l-14.502-.298c-4.232-.113-6.753-2.311-6.423-5.863.038-.418.11-1.268.47-2.628l.003-.01.004-.014c1.105-3.895 4.87-6.317 9.821-6.317h.003l19.292.004 1.644.002zm-36.899 8.269c-.062.679-.15 1.61-.447 2.726l-3.566 13.178h-6.735l3.793-13.933c.2-.766.268-1.1.3-1.307 0-.012.003-.024.004-.035l.015-.133c.03-.313.01-.584-.04-.828-.007-.032-.012-.065-.02-.096-.33-1.318-1.75-1.628-3.003-1.628l-12.343.001-3.929 14.633c-.151.455-.63 1.686-1.612 2.42-1.222.917-3.261.904-3.261.904h-2.751l6.5-24.176h6.672l-.763 2.893c1.723-2.214 3.523-2.76 4.429-2.893h8.09c5.73 0 9.134 3.247 8.667 8.274zm-39.131 13.037-.017.061-.024.063c-.22.602-.648 1.445-1.449 2.045-1.063.797-2.531.84-2.816.84h-3.23l6.448-24.174h6.776l-5.688 21.165zm1.556-24.826h-1.65l.438-1.624.498-1.862c.069-.247.452-1.538 1.546-2.357.964-.722 2.233-.822 2.731-.83l.014-.002h3.245l-.416 1.61-1.016 3.91-.301 1.155h-5.089zm-11.35 11.664-.017.21c-.049.56-.112 1.327-.498 2.815l-3.563 13.138h-6.732l3.801-14.018c.166-.664.244-1.019.298-1.41l.004-.022c.022-.163.04-.334.06-.537.015-.169.007-.32-.01-.464-.002-.026-.003-.055-.007-.08-.208-1.3-1.701-1.595-3.002-1.595l-12.649.016-3.896 14.612s-.443 1.685-1.666 2.6c-.98.733-2.483.87-3.04.898h-3.076l8.48-31.868c.192-.534.668-1.61 1.56-2.277.965-.724 2.441-.868 3.015-.897h2.984l-.415 1.608-3.112 12.15a8.957 8.957 0 0 1 1.783-1.756 6.46 6.46 0 0 1 2.013-1.002c.746-.211 1.23-.176 1.23-.176l7.77-.002c6.962 0 9.03 4.344 8.686 8.057zm-45.113 9.946s-7.739.004-10.837.004c-.588 0-1.137-.1-1.622-.29a3.486 3.486 0 0 1-.819-.447c-.952-.708-1.429-1.886-1.047-3.362l2.06-7.718h10.868c3.128 0 3.734.845 3.81 1.652l.003.072c.011.201-.005.399-.021.579a4.855 4.855 0 0 1-.07.413l-.006.03c-.41 2.036-2.319 9.068-2.319 9.068zm.672-18.032-7.356.017c-.74.052-2.787.424-4.736 2.926l.77-2.916-6.565.016-9.314 34.606h2.934c.476-.015 2.086-.127 3.118-.901.956-.716 1.434-1.9 1.598-2.382l2.742-10.363c.04 1.032.556 2.927 3.431 3.29.257.032 10.29.008 10.29.008l.004-.008h2.608s1.988.104 3.585-1.197c1.77-1.443 2.424-3.746 2.424-3.746l.59-2.059s2.233-8.797 2.29-9.433c.458-4.923-2.687-7.859-8.414-7.859zm-21.92-8.627-7.934 29.77-.005.024-.01.027c-.135.434-.55 1.524-1.51 2.242-.79.596-1.786.775-2.483.821l-.046.003h-3.514l.438-1.623 7.92-29.697c.065-.25.448-1.535 1.542-2.357 1.03-.772 2.396-.833 2.79-.833h3.25l-.437 1.623zm-25.737 22.7c-.754 2.799-2.468 3.993-5.73 3.993H51.339l2.112-7.831c.664-2.468 1.862-3.996 5.771-3.996l11.543.016c-.024.099-1.9 7.553-1.972 7.818zm8.705-12.895c-.676-.998-2.037-1.168-2.633-1.191l-14.937-.007c-6.863 0-11.386 3.324-13.078 9.612l-2.55 9.945c-.12.584-.398 2.361.409 3.552.641.945 1.895 1.148 2.533 1.186l15.078.008c6.974 0 11.359-3.224 13.034-9.579l1.977-7.721h-.005l.232-.893.356-1.386c.123-.611.378-2.352-.416-3.525zm-42.056 1.204c-.08.874-.48 2.57-1.525 6.486-2.088 7.786-3.122 8.678-10.065 8.678H9.404l5.144-19.127h14.354c4.675 0 6.128.682 6.493 2.005.009.031.016.065.023.098.062.268.081.928.08.954-.004.284-.026.584-.056.906zM30.349 21.89H9.583l-.307 1.143-8.41 31.33h21.497c11.371 0 14.926-2.887 18.111-14.712 1.237-4.52 1.576-6.395 1.72-7.954.415-4.474-1.304-9.807-11.845-9.807" fill="#008e97"/><path d="m44.765 15.075 3.607-13.95h-2.258c-1.44.073-1.928.905-2.07 1.256l-3.601 13.932h2.38c.059 0 1.292-.012 1.942-1.237m65.301-.025 3.6-13.926h-2.244c-1.825.093-2.122 1.41-2.122 1.41l-.306 1.188-3.256 12.59h2.196c1.493-.052 1.989-.908 2.132-1.262M96.198 1.124l-7.934 11.714-1.876-11.714h-4.224c-1.824.094-2.121 1.411-2.121 1.411l-3.585 13.778h4.002L83.392 4.97h.098l1.9 11.342h3.951L97.082 4.97h.122l-2.933 11.342h4.002L102.2 1.125h-6.003zm-25.32 15.188h-4.27l-.9-3.69h-7.81l-1.669 2.193-.059.077s-1.055 1.416-2.872 1.416h-.902v.004H50.82L61.747 2.401c.306-.341 1.227-1.218 2.618-1.276h2.437l4.077 15.187zm-5.75-6.071-1.31-5.408-4.108 5.408h5.418zM30.9 1.124 22.97 12.837 21.092 1.124H16.84c-1.515.077-1.977.996-2.088 1.307l-3.59 13.88h4.003L18.096 4.97h.098l1.9 11.342h3.953l7.74-11.342h.12l-2.93 11.342h4l3.927-15.188h-6.003zm205.263 45.359-13.799-.193c-2.109-.057-3.887-.499-5.005-1.542 1.348 1.782 3.83 2.848 6 2.858l11.618.141c.632-.339.987-.816 1.186-1.264zm11.656-15.395-.657 2.499c-.402 1.046-1.482 3.792-5.76 3.897l-14.979.009c-2.322 0-2.209 1.644-2.209 1.644l1.958.038s-.35-.479 1.247-.479l13.606.104c5.744.07 7.223-4.142 7.414-4.873l.444-1.656-1.063-1.183zm-4.144 11.92s1.027 1.565.007 5.38c-.539 2.009-2.79 7.274-11.05 7.274l-19.922-.001 1.179 1.316 18.702.002c8.448 0 12.131-5.447 12.318-9.263.148-3.03-1.233-4.706-1.233-4.706zm-40.486-4.152c.029-.313.01-.585-.04-.828-.584-.312-1.332-.409-2.028-.409l-12.343.001-3.639 13.611c-.853 2.85-2.866 4.352-6.46 4.347h-1.273l1.192 1.316h.602c3.842 0 6.563-2.485 7.25-5.462l3.323-12.495h12.343c.347 0 .707.024 1.053.087l.005-.035.015-.133zm7.43-3.806c.967 2.57.052 6.236-.245 7.353l-3.567 13.177h-6.542l1.18 1.316h6.357l3.567-13.177c1.116-3.967.099-7.18-.75-8.669zm-33.196-3.662-5.42 20.17c-.195.718-1.23 4.161-5.668 4.163h-1.979l1.162 1.317h1.018c3.534 0 6.025-2.502 6.667-4.84l5.26-19.656-1.04-1.154zm2.689-10.337-1.778 6.836h-6.56l1.188 1.316h6.367l1.817-7.004-1.034-1.148zm-25.86 17.36c.015-.169.007-.32-.01-.464-.577-.274-1.322-.36-2.013-.36l-12.65.016-3.605 13.581c-.996 3.508-3.548 4.53-6.319 4.53h-1.56l1.177 1.316c4.83.187 7.205-2.696 7.911-5.27l3.392-12.84 12.649-.016c.317 0 .647.02.965.065l.003-.022c.022-.163.041-.334.06-.537zm-11.502-7.9 2.264-8.837-1.035-1.15-2.778 10.834a6.46 6.46 0 0 1 1.55-.847zm18.419 3.573c1.13 2.148.92 4.093.784 5.565 0 0-.188 1.44-.573 2.927l-3.564 13.139h-6.542l1.184 1.316h6.354l3.563-13.139c1.158-3.957.455-7.52-1.206-9.808zm-42.988 4.586c.016-.18.033-.377.021-.578-.57-.248-1.453-.41-2.817-.41l-10.868.001-2.06 7.719c-.2.771-.163 1.46.052 2.045.244.181.518.331.818.448-.02-.366.017-.76.125-1.177l2.06-7.718h10.868c.691 0 1.259.041 1.725.114l.007-.03a4.71 4.71 0 0 0 .07-.414zm7.179-4.887c1.026 2.234.745 4.545.508 5.541l-2.184 8.865c-.837 3.824-3.002 7.57-7.817 7.57 0 0-11.535.032-11.79 0-1.824.028-2.804-.587-2.804-.587s1.283 1.903 3.799 1.903h10.143c8.607.271 9.557-7.888 10.293-10.705l1.356-5.73c.376-1.837.116-4.751-1.504-6.857zm-25.053 19.963-2.115 8.034c-.854 3.032-3.253 4.335-6.063 4.335h-1.68l1.171 1.316h.764c3.478 0 6.353-2.229 7.135-5.575l1.755-6.684c-.65-.705-.967-1.426-.967-1.426zm-4.284-32.699L87.8 51.863c-.503 2.082-2.763 3.86-5.19 3.86l-2.345.003 1.127 1.305 1.2.008c3.207 0 5.655-2.259 6.416-4.516l8.045-30.335-1.028-1.142zM60.107 37.692c-4.712.02-4.78.754-5.772 3.995l-1.756 6.515h1.355l1.821-6.672c.548-1.968.617-2.501 3.475-2.501l10.892-.006.331-1.317-10.346-.014zm19.917-3.421c-.25-1.204-.997-2.115-.997-2.115.547 1.494 0 3.5-.1 4l-2.56 10.001c-1.665 6.264-7.71 9.578-13.034 9.578l-15.078-.007c-.459-.028-2.236-.105-2.875-.516 0 0 .383.52 1.328 1.098 1.112.68 2.542.734 2.542.734l13.518.008c7.457 0 12.975-4.224 14.752-10.141l2.402-9.438s.482-1.372.102-3.202zm-44.588-3.613c-.927-.52-2.59-.786-5.506-.786H15.576l-4.79 17.81h1.356l4.437-16.494h14.346c2.136 0 3.597.143 4.591.425 0-.026.003-.054.004-.08a3.756 3.756 0 0 0-.084-.875zm8.767 3.664c-.144 1.559-.515 3.426-1.72 7.954C39.337 54.103 32.246 56.99 24.372 56.99H3.253L2.08 55.672h21.297c9.593 0 14.983-2.885 18.11-14.712 1.199-4.53 1.576-6.396 1.72-7.955.169-1.813.424-4.121-.556-5.805 1.43 2.2 1.766 4.81 1.551 7.122" fill="#fc4c02"/></svg>