<svg xmlns="http://www.w3.org/2000/svg" xml:space="preserve" height="45.969" viewBox="0 0 191.574 45.969" width="191.57"><path d="M133.623 1.04c-.64-.01-1.27-.01-1.88.006-4.06.105-3.56 1.059-3.15 2.426.34 1.163 1.7 7.747 1.82 8.63.21 1.458 2.25 1.296 1.93-.44-.11-.554-.32-1.48-.42-2.266-.16-1.395.73-2.043 2.84-2.397 1.51-.25 4.79 0 5.8.127 1.01.126 1.38.694 1.41 2.018.04 1.265-.56 20.256-1.1 27.152-.13 1.741-1.12 3.969-2.17 5.198-.73.856-.56 1.734.85 1.576 1.13-.123 8.28-.438 11.47-.281 1.18.058 1.48-1.391.12-1.799-2.39-.712-2.78-2.069-2.86-3.81-.19-3.812-.07-17.486 1-27.881.12-1.163.19-1.637 1.51-1.637 1.9 0 6.97.378 7.53.475.5.083.62.014 1.01-.223.47-.283 1.14-1.114 1.99-2.363.21-.312.9-1.213 1.21-2.02.54-1.406.59-1.729-1.47-1.414-5.3.823-11.46.221-15.78-.158-2.27-.196-7.18-.843-11.66-.918zm-106.26.247c-.329.007-.648.2-.772.609-.076.254-.209.812-.283 1.103-.168.667-.647.785-1.639.569-1.689-.374-6.338-.979-9.703-1.041-1.692-.03-2.003.022-3.402.724-.86.432-5.45 3.433-6.457 4.063-1.193.748-1.211.884-1.986 2.303-1.375 2.523-2.068 7.796-1.7 11.719.278 2.963 3.454 4.244 6.08 4.47 3.97.348 9.638.032 12.159.378 2.576.355 3.757 1.736 4.444 3.435.597 1.479.249 4.903-.223 6.047-.702 1.709-.85 1.77-5.291 1.955-5.685.239-12.23-2.525-15.562-6.051-1.346-1.423-1.961.07-1.92.698.25 3.967.223 7.208-.128 10.677-.177 1.739 2.11 1.422 2.205.125.027-.386.062-.808.094-1.576.037-.834.637-.84 1.732-.158 2.756 1.725 6.319 2.932 10.492 2.932 4.005 0 4.445.029 5.102-.883 1.558-2.15 3.773-4.317 5.828-5.764 1.108-.78 1.985-1.733 2.332-3.18.24-1.012 1.512-6.021 1.86-8.541.344-2.521-.915-4.881-3.466-4.847-1.909.02-8.506-.065-12.035-.192-4.35-.15-5.1-2.121-5.827-3.53-.969-1.86-1.042-4.541-.694-6.802.322-2.09.71-2.624 3.558-2.428 3.402.237 9.106 1.798 10.617 2.174 1.876.473 2.958 2.5 3.278 3.563.282.946 1.934 1.169 1.763-.41-.404-3.723-.419-7.819.407-10.744.256-.902-.316-1.41-.864-1.397zm65.45.45a7.928 7.928 0 0 0-.636.034c-3.18.252-5.764.314-8.127.187-.756-.039-1.222.922-.565 1.387.845.603 3.613 2.83 4.975 4.475 1.345 1.623 1.712 3.342 1.734 5.007.061 4.837-.213 16.885-.914 21.834-.302 2.134-1.638 6.772-2.3 8.092-.605 1.217.683 1.275 1.294.6 1.039-1.15 2.904-1.725 5.228-1.829 1.798-.076 1.544-.89 1.447-2.359-.28-4.252-.598-11.815-.377-21.393.03-1.357.975-1.333 1.543-.502 2.02 2.95 7.613 7.773 10.333 10.047 6.2 5.186 9.8 6.301 15.18 13.453h2.43s-.4-23.769.88-30.937c.55-3.053.77-4.322 1.95-6.3.45-.747.9-1.877-1.6-1.479-2.36.377-5.61.207-9.45-.031-1.1-.068-2.93 1.573-.47 2.047 1.59.311 4.94 1.442 5.03 4.884.03 1.008-.25 16.946-.25 17.955 0 1.625-1.15 1.345-2.01.537-2.45-2.283-6.98-5.712-9.45-8.07-8.21-7.835-10.07-9.739-14.778-16.912-.377-.574-.583-.722-1.097-.726zM52.255 2a4.073 4.073 0 0 0-.84.024c-4.179.465-6.789.706-11.025.062-2.299-.348-2.262 1.99-.535 2.05.669.023 1.265.074 2.014.253 4.681 1.107 3.738 3.26 3.118 4.816C40.712 19.954 35.4 32 28.671 41.147c-.712.97-.24 1.484.691 1.327 1.671-.285 4.507-.264 5.891-.127.862.086 1.202-.235 1.197-1.012-.028-3.41 2.187-7.895 4.221-11.969.63-1.259 1.02-1.166 2.111-1.166 1.01 0 8.566-.07 9.954-.125 2.232-.086 2.233.461 2.835 1.668 1.708 3.42 3.504 8.64 3.97 12.192.135 1.027.77.735 1.796.6 1.198-.16 4.82-.098 6.268.095 1.396.181 1.861-.943 1.103-1.955C65.02 35.758 54.19 8.118 53.148 2.903c-.103-.508-.242-.837-.893-.904zm135.14.145c-.3.007-.6.203-.72.611-.08.256-.31.795-.44 1.073-.3.63-.62.817-1.61.597-1.69-.37-6.21-1.07-9.58-1.135-1.69-.032-2.22.056-3.62.758-.86.432-5.42 3.496-6.42 4.127-1.2.745-1.22.882-1.99 2.3-1.37 2.52-2.07 7.8-1.7 11.717.28 2.964 3.45 4.243 6.08 4.473 3.97.345 9.83.032 12.35.377 2.57.354 3.63 1.734 4.31 3.434.6 1.484.19 4.903-.28 6.05-.7 1.708-.66 1.766-5.1 1.953-5.69.236-12.23-2.528-15.57-6.048-1.34-1.426-2.24.065-2.2.691.25 3.97.13 7.213-.22 10.68-.18 1.738 2.01 1.421 2.11.127.03-.386.03-.935.06-1.703.04-.837.73-.844 1.83-.157 2.76 1.722 6.6 2.928 10.77 2.928 4.01 0 4.45.03 5.11-.879 1.55-2.153 3.8-4.223 5.86-5.67 1.11-.78 1.98-1.733 2.33-3.18.24-1.012 1.38-5.987 1.73-8.505.35-2.527-.91-4.886-3.47-4.856-1.9.024-8.28-.064-11.81-.187-4.35-.158-5.16-2.092-5.89-3.498-.97-1.864-1.23-4.668-.88-6.932.32-2.088.71-2.621 3.56-2.423 3.4.237 9.36 1.891 10.87 2.267 1.87.474 2.95 2.497 3.27 3.56.29.943 1.81 1.167 1.64-.412-.4-3.722-.45-7.815.38-10.74.25-.902-.26-1.41-.76-1.398zm-106.97.135c-.279-.009-.648.033-1.133.12-2.363.434-6.163.761-9.45.411-1.668-.173-1.637 1.94-.505 2.078.411.053.92.096 1.45.316 2.111.882 2.151 3.816 2.11 5.703-.105 4.5-.548 20.405-2.017 30.617-.26 1.804.366 2.368 1.984 1.828 1.97-.653 6.578-1.132 8.883-.978 1.143.076 1.45-1.162.317-1.668-1.136-.504-1.45-.788-1.955-1.418-.644-.802-.664-1.584-.66-2.33.032-7.28-.18-24.679 1.607-33.174.213-1.007.204-1.48-.63-1.505zM48.45 12.498c.252.016.504.236.756.678.505.882 3.781 9.766 4.158 10.519.378.755.128 1.137-.88 1.137h-8.223c-1.386 0-1.26-.63-1.008-1.387.251-.756 3.937-9.638 4.441-10.394.253-.38.505-.57.756-.553z"/></svg>