<svg xmlns="http://www.w3.org/2000/svg" height="36.613" width="193.935"><path d="M192.919 12.6a11.148 11.148 0 0 0 1.016-4.916c0-5.42-5.197-7.684-19.433-7.684-12.884 0-18.195 2.036-22.036 5.877-2.714 2.71-4.18 5.988-4.18 8.644 0 3.956 2.088 5.368 9.434 7.231 7.851 1.978 9.378 2.373 9.378 4.069 0 1.863-1.752 2.937-4.748 2.937-2.709 0-4.009-.849-4.009-2.203a6.096 6.096 0 0 1 .733-2.881H141.62a10.975 10.975 0 0 0-1.245 5.026c0 5.37 4.52 7.913 20.112 7.913 13.163 0 18.477-2.206 22.034-5.764a13.475 13.475 0 0 0 4.292-9.433c0-4.014-2.652-5.653-10.056-7.404-7.399-1.752-8.813-2.203-8.813-3.446 0-1.411 1.583-2.713 4.69-2.713 2.487 0 3.9.906 3.9 2.147a5.126 5.126 0 0 1-.738 2.6h17.121zM151.216.902H106.7l-4.748 8.871h11.809L99.916 35.708h22.035l13.843-25.933h10.678l4.744-8.872zM98.4 9.718 103.09.903H61.678l-18.53 34.805h42.03l4.69-8.815H67.947l2.43-4.406H90.04l4.52-8.531H74.842l2.37-4.238H98.4zm-49.98 9.776c-2.769 5.196-4.521 8.133-7.29 10.902-4.123 4.125-10.958 6.217-21.129 6.217-14.124 0-20-3.392-20-9.72 0-3.22.793-5.537 2.714-9.038l2.225-4.232h18.308l-4.546 8.697a7.89 7.89 0 0 0-1.017 3.16 1.952 1.952 0 0 0 2.204 2.148c2.372 0 3.559-1.582 5.14-4.52L36.675.904h21.469l-9.726 18.591" fill="#115740"/></svg>