<svg xmlns="http://www.w3.org/2000/svg" xml:space="preserve" height="73.6" viewBox="0 0 191.094 73.6" width="191.09"><g fill="#0b2265"><path d="M2.764 62.11h177.672l-2.42 11.49H0l2.766-11.49M80.588 32.8h-6.796l7.43-21.25h1.75L80.588 32.8zM183.835.747h-58.856l-5.885 29.125L113.35.747h-11.281l-10.54 51.44L94.355.747H73.197L54.77 51.59 66.841.747H53.67l-6.026 26.07H27.467l-2.523 10.144h3.786s-.328 1.331-.718 2.948c-.493 2.04-1.09 4.537-1.244 5.32-.016.076-.042.14-.06.21-.305 1.09-1.077 1.412-1.811 1.462-.079.008-.157.01-.233.01-.839 0-2.316.074-3.364-.06-.812-.1-1.522-.815-1.498-1.863.007-.204.028-.421.1-.654.104-.354.604-2.453 1.299-5.397.013-.084.028-.16.055-.236 1.571-6.694 4.09-17.55 5.336-22.756.396-1.654.668-2.743.736-2.948.45-1.315.702-2.313 2.24-2.588.273-.053.558-.084.841-.108a9.121 9.121 0 0 1 1.913.037c.165.018.335.037.469.07 1.36.307 1.823 1.049 1.684 1.892-.107.63-.608 2.827-1.037 4.672-.346 1.49-.647 2.753-.647 2.753h12.612s1.747-6.88 2.522-10.37c.841-3.782-2.533-8.06-6.305-8.687-5.044-.84-15.25-.888-18.36-.141-3.502.85-6.583 3.647-7.846 8.693-1.03 4.125-7.225 30.032-8.687 36.013-1.543 6.3.552 10.631 5.326 11.585 4.202.841 11.79.757 16.956.139 4.927-.592 7.917-4.108 8.967-7.52 1.12-3.644 3.22-12.336 3.22-12.336h4.066l-4.627 19.717h24.991l4.837-13.804h8.933l-1.648 13.804h24.46l6.025-30.02 5.677 30.02h11.625l9.392-45.262h5.185l-9.317 45.262h12.82l9.355-45.262h5.148l-1.538 7.739c-2.03 8.674 3.29 10.372 3.29 10.372 3.642 1.891 9.527 3.785 9.527 3.785 4.207 1.331 3.366 4.658 3.366 4.658l-.235 1.174-.957 4.815c-.56 2.172-2.45 2.245-2.45 2.245-2.147.333-4.345-.138-4.345-.138-1.12-.247-1.36-1.295-1.37-2.13-.006-.603.107-1.098.107-1.098l1.433-6.757.11-.531h-12.332l-2.033 9.533c-1.891 8.263 2.665 11.032 7.64 11.596 4.833.697 12.292.372 12.292.372 6.618-.04 11.737-4.614 12.856-10.005l2.593-11.074c.915-4.412.564-9.178-4.343-10.925l-10.508-4.07c-1.258-.476-1.722-1.293-1.297-3.185l.228-1.247v-.005l.778-4.41c.17-.956 1.095-1.729 2.059-1.734h2.062l1.624-.005c.967-.005 1.606.768 1.436 1.719l-.163.833-.138.702-1.166 5.968h12.34l1.715-8.934C193.08.942 183.833.751 183.833.751"/></g></svg>