<svg xmlns="http://www.w3.org/2000/svg" height="42.415" width="252"><path d="M170.637 1.253s3.674 2.02 2.497 6.751l-1.928 9.62h10.019c-2.844 1.29-11.037 6.313-12.687 13.278l-2.162 10.764h36.427l1.622-7.989h-23.852l1.65-8.23h14.89c1.117-.751 4.896-5.168 5.525-7.942H183.82l1.67-8.312h20.374c1.118-.75 4.896-5.166 5.526-7.94zm-165.33 0s3.675 2.02 2.499 6.751l-1.93 9.62h10.02C13.053 18.915 4.86 23.938 3.21 30.903L1.048 41.666h36.427l1.62-7.989h-23.85l1.65-8.23h14.889c1.117-.751 4.897-5.168 5.526-7.942H18.492l1.67-8.312h20.373c1.118-.75 4.897-5.166 5.527-7.94zm59.596 7.941L59.611 22.74h12.136l.163-13.546zm19.057-7.94-.469 40.41H71.52l.127-10.973H56.518l-4.303 10.974h-12.33L56.142 1.254zm160.29 16.251h-20.618l1.68-8.311h20.203c1.118-.751 4.897-5.167 5.526-7.94h-34.35a2.916 2.916 0 0 0-2.865 2.37L210.09 22.24a2.702 2.702 0 0 0 2.663 3.207h20.877l-1.655 8.23h-24.182l-1.606 7.988 34.415-.013a2.93 2.93 0 0 0 2.864-2.369l3.65-18.306a2.92 2.92 0 0 0-2.865-3.47zm-134.037 7.94h5.115l-1.65 8.231h-13.566l4.92-24.482h22.347c1.118-.75 4.906-5.167 5.536-7.941h-36.67c-1.274 0-2.372.9-2.623 2.148l-7.704 38.263h36.68c1.28 0 2.382-.907 2.627-2.164l4.404-21.994h-17.813zm32.44 8.231h21.935l-1.605 7.988h-34.568l8.138-40.411h12.632l-6.53 32.423" fill="#004851"/></svg>