<svg xmlns="http://www.w3.org/2000/svg" width="250" height="76" style="enable-background:new 0 0 250 76" xml:space="preserve"><path d="M230.674 23.749c9.396.4 14.755 5.978 14.299 16.313l-11.586.009c.005-2.358.145-5.057-2.703-5.608l-.01-10.714zM230.684 57.361c1.136-.331 2.176-1.06 2.176-2.373 0-1.309-.839-2.109-2.171-2.512l-.02-12.133c5.92 1.506 14.06 4.516 14.06 15.661 0 11.85-8.647 14.543-14.055 14.889l.01-13.532zM228.134 70.912c-9.386-.412-15.297-5.474-14.784-17.112h11.241c-.115 2.281 1.419 3.432 3.538 3.71l.005 13.402zM228.138 51.92c-5.383-1.116-8.666-1.884-11.868-6.217-1.966-2.675-2.354-5.45-2.354-8.758 0-8.887 6.797-12.746 14.222-13.177l-.009 10.769c-1.472.393-2.009 1.412-2.009 2.332 0 .93.753 2.1 2.009 2.626l.009 12.425zM43.425 35.728V24.753h5.09V20.94l13.216-7.133v10.946h6.136v10.975h-6.279v18.331c.019 2.525 1.069 4.218 3.528 4.132 1.769-.063 2.771-.666 2.986-1.007V70.73c-1.476.412-2.454.45-5.277.45-6.946 0-14.309-4.496-14.309-11.36V35.728h-5.091zM137.339 4.855h13.686v66.039h-13.686zM201.309 23.389v5.832h.163c2.373-3.564 6.846-6.375 10.867-6.375v16.411c-1.007-.709-2.862-1.256-4.156-1.256-2.896 0-7.224 1.63-7.018 5.091v27.803h-13.302V23.389h13.446zM25.392 4.819c12.108.434 17.127 9.98 16.705 20.214H29.461c-.144-3.327-.637-6.215-4.074-6.792l.005-13.422zM25.392 56.244c1.764-.35 3.317-1.668 3.317-3.921 0-1.765-1.38-3.197-3.313-4.487l-.004-19.018c5.584 1.906 8.882 3.991 11.888 7.874 2.828 3.657 4.521 7.675 4.521 15.387 0 10.623-5.771 18.45-16.408 18.921V56.244zM22.855 71.027c-11.552-.608-17.342-8.173-17.342-15.981v-7.344h13.911v3.552c0 2.627 1.031 4.42 3.423 4.933l.008 14.84zM22.86 46.326c-.848-.46-1.74-.925-2.603-1.376-4.707-2.497-8.522-5.071-11.135-8.24C6.539 33.487 5 28.837 5 23.241 5 12.635 12.947 5.591 22.855 4.87l-.004 13.38c-2.306.489-3.782 2.44-3.773 4.873.005 2.078 1.51 4.084 3.773 4.88l.009 18.323zM86.892 70.889c13.811-.763 13.714-11.726 13.719-16.696H89.826c-.105 1.721-.848 2.876-2.929 3.27l-.005 13.426zM86.892 35.301c2.33.456 3.341 2.401 3.341 3.384v.915l-3.355.02.014 10.388h13.733V36.433c0-9.441-7.842-12.046-13.733-12.308v11.181M84.375 35.383c-1.673.235-3.024 1.361-3.024 3.346v.829l2.996.024.005 10.426h-3.188v4.06c-.005 2.397.8 3.375 3.207 3.528l-.02 13.326c-7.952-.273-13.676-3.959-13.676-13.661V38.853c0-11.483 5.292-14.418 13.676-14.723v11.277M120.308 70.889c13.82-.763 13.723-11.726 13.723-16.696h-10.78c-.11 1.721-.848 2.876-2.929 3.27l-.014 13.426zM120.313 35.301c2.334.456 3.346 2.401 3.346 3.384v.915l-3.36.02.01 10.388h13.738V36.433c0-9.441-7.842-12.046-13.733-12.308l-.004 11.181M117.796 35.383c-1.62.144-3.024 1.361-3.024 3.346v.829l3 .024.005 10.426h-3.192v4.06c0 2.397.8 3.375 3.207 3.528l-.015 13.326c-7.957-.273-13.681-3.959-13.681-13.661V38.853c0-11.483 5.297-14.418 13.681-14.723v11.277M170.817 70.889c13.819-.763 13.724-11.726 13.729-16.696h-10.785c-.11 1.721-.849 2.876-2.929 3.27l-.015 13.426zM170.817 35.301c2.339.456 3.351 2.401 3.351 3.384v.915l-3.36.02.01 10.388h13.738V36.433c0-9.441-7.843-12.046-13.738-12.308v11.181M168.306 35.383c-1.62.144-3.025 1.361-3.025 3.346v.829l3.001.024.005 10.426h-3.192v4.06c0 2.397.801 3.375 3.207 3.528l-.015 13.326c-7.952-.273-13.681-3.959-13.681-13.661V38.853c0-11.483 5.297-14.418 13.681-14.723v11.277"/></svg>