<svg xmlns="http://www.w3.org/2000/svg" xml:space="preserve" width="553" height="180"><defs><clipPath clipPathUnits="userSpaceOnUse" id="a"><path d="M0 792h612V0H0z"/></clipPath></defs><g clip-path="url(#a)" transform="matrix(7.99077 0 0 -7.90757 -1910.114 6209.61)"><path d="m0 0-1.103 1.066V6.83H0zm-.674 14.924c.012.071.103.539.425.539h.021l.022.005h-.001c.001 0 .015.002.036.002.048 0 .138 0 .138-.208v-3.366l.001-.013s.006-.099-.091-.239a5.906 5.906 0 0 0-.556-.515zM5.521.992s-.195.199-.176.535v4.724s-.023 1.361-2.018 2.951c0 0 2.301.948 2.386 4.373 0 0 .084 3.271-4.253 5.32 0 0-.92.39-2.078.39-.788 0-1.686-.181-2.481-.788 0 0-.1-.1-.272-.1a.609.609 0 0 0-.372.145s-.612.455-2.195.455l-2.478-.023v-2.293l1.264-1.369h.804v-4.993h-.212c-.118 0-.685-.041-.685-.849 0-.088.014-.164.017-.222.053-.266.235-.812.845-1.052V2.292s.055-1.284-.864-1.284h-1.262v-2.309l1.183-1.197h1.15c.218 0 1.836.032 2.395.961 0 0 .026.077.167.077h.005c.026 0 .147-.005.194-.085 0 0 .886-.979 2.136-.979H.51v.887s.015.031.047.031c.019 0 .045-.012.077-.051 0 0 .636-1.004 1.459-1.004h.012c.099 0 .792.026 1.349.734 0 0 .057.09.158.09a.17.17 0 0 0 .162-.059s.566-.633 1.453-.633h1.667v2.242z" style="fill:#fff;fill-opacity:1;fill-rule:nonzero;stroke:none" transform="translate(288.885 765.683)"/><path d="M0 0h-.488l.129.296A.778.778 0 0 1 0 .098zm5.609-7.262s-.01-.002-.026-.002c-.067 0-.243.031-.243.348v2.754h3.086L7.46-2.813l.808.872s.176.142-.074.397L7.048-.345H5.577s.38.33.38.941c0 0 0 .459-.602.918v4.892s-.103.822 1.043.822l.697.019v2.366l-1.242 1.23H4.351s-.914 0-1.535-.662c0 0-.879.758-2.206.758l-.079-.001L-5.675-.985v-2.144l.98-.915h4.507l.024.001c.069 0 .264-.023.264-.289v-1.875s.063-.871-1.013-.871h-1.061v-2.355l1.155-1.131H1.05s.087-.012.229-.012c.467 0 1.518.126 1.956 1.204 0 0 .949-1.192 2.12-1.192h1.773v2.079l-1.14 1.223z" style="fill:#fff;fill-opacity:1;fill-rule:nonzero;stroke:none" transform="translate(244.893 773.952)"/><path d="M0 0c-.369-.033-.731-.236-.751-.725a.307.307 0 0 0-.083-.009h-.008l-.007-.001h-.012c-.143 0-.313.036-.313.208v5.529a.52.52 0 0 0 .57.486h.01l.009.001c.003 0 .026.002.061.002.347 0 .524-.155.524-.459zm6.135-1.28s.015 2.884-.28 4.147c0 0-1.599 6.212-6.621 6.212a6.98 6.98 0 0 1-.429-.014h-.009c-.249 0-5.481-.078-5.605-6.605 0 0-.084-5.871 5.656-6.972 0 0 .145-.015.342-.015.342 0 .841.044 1.038.284l-.008-3.53s.064-1.508-1.308-1.692c0 0-.048-.013-.092-.013-.028 0-.054.005-.066.022 0 0-.036.07.049.141.107.088.177.238.247.352.2.328.355.674.389 1.057.048.536.04 1.113-.196 1.613a3.38 3.38 0 0 1-.31.506 3.19 3.19 0 0 1-.509.543 4.78 4.78 0 0 1-.863.61s-.712.426-1.604.426c-.569 0-1.21-.172-1.789-.737-.562-.549-.756-1.464-.692-2.206.05-.592.238-1.09.502-1.618.245-.492.498-1.036.539-1.587 0 0 .072-.489-.139-.819l1.383-1.373.977.834s.085.087.199.087c.061 0 .13-.024.198-.099 0 0 1.156-1.064 3.216-1.064l.186.002h.032c.391 0 4.25.22 5.371 8.847 0 0 .796.242.796 1.363 0 0 0 .877-.6 1.298" style="fill:#fff;fill-opacity:1;fill-rule:nonzero;stroke:none" transform="translate(260.278 776.023)"/><path d="M0 0a1.74 1.74 0 0 1-.125-.004 2.871 2.871 0 0 1-1.238-.408s-1.224-.693-1.181-2.262c0 0-.043-.755.738-1.591 0 0 .135-.185-.022-.347 0 0-.21-.305-.569-.305 0 0-.548.024-.548.449v5.605h4.02L-.033 2.391s-.155.145.029.305l.668.689s.187.256-.07.474L-.571 4.96h-2.387v3.5s-.009.668.54.668c0 0 .401-.061.106-.55-.111-.185-.095-.523-.092-.722a2.323 2.323 0 0 1 .656-1.613c.683-.71 1.619-1.18 2.577-1.18.462 0 .929.111 1.375.355 0 0 1.056.734 1.014 2.059 0 0 0 .856-.57 1.875 0 0-.358 1.163.346 2.097l-1.369 1.48-.847-.74s-.095-.078-.234-.078a.424.424 0 0 0-.273.107s-1.388.827-2.891.827l-.157-.003-.049.001c-.241 0-1.341-.048-2.589-.857 0 0-.087-.076-.2-.076a.27.27 0 0 0-.201.096s-.691.55-1.799.55l-2.583.014v-2.109l1.333-1.496h.79V4.073h-.295s-.579-.019-.579-.833c0-.813.896-1.247.896-1.247v-5.901s.142-1.222-1.062-1.222h-1.095v-2.172l1.166-1.304h1.265s1.267 0 2.385 1.264c0 0 .95-1.345 3.082-1.345 0 0 1.73-.001 2.954 1.059l1.689-1.284s-.18 1.304.042 2.069c0 0 .16.759.78 1.957.436.842.325 2.001-.17 2.783C2.389-1.166 1.246 0 0 0" style="fill:#fff;fill-opacity:1;fill-rule:nonzero;stroke:none" transform="translate(276.673 771.821)"/><path d="M0 0c.27-.245.013-.303.013-.303a1.339 1.339 0 0 1-.107.005c-.444 0-.637-.269-.637-.269-1.086.718-1.287 2.08-1.287 2.08-.224 1.296.737 1.548.968 1.667a.462.462 0 0 0 .21.062c.074 0 .104-.032.104-.032.111-.076.032-.275.032-.275C-1.306 1.513 0 0 0 0m1.575-2.131s.08.629-.333 1.146c0 0 .537-.227 1.151-.227.415 0 .864.102 1.208.447 0 0 2.311 1.499.444 5.106 0 0-.475.887.19 1.437L2.873 7.124l-.646-.597s-.087-.107-.219-.107c-.076 0-.165.034-.263.14 0 0-1.183.747-3.177.747h-.007c-.212 0-5.407-.058-5.407-5.809 0 0-.274-3.057 3.356-5.545 0 0 .238-.136.139-.304 0 0-.488-.633.399-1.092 0 0 .443-.181.971-.181.282 0 .589.052.865.211 0 0 2.786-2.17 1.52-4.586 0 0-.426-.803-1.202-.803-.216 0-.46.062-.729.222l.005-.001c.098 0 .302 1.424.295 1.51-.085 1.103-.77 2.121-1.658 2.786-.456.343-1.029.502-1.605.503-1.252 0-2.523-.754-2.673-2.031-.07-.593.05-1.32.254-1.88 0 0 1.496-2.369.716-3.585l1.093-1.116 1.476 1.385s1.527-1.434 3.722-1.434h.011c.281 0 5.432.077 5.35 5.749 0 0 .422 4.076-3.884 6.563" style="fill:#fff;fill-opacity:1;fill-rule:nonzero;stroke:none" transform="translate(302.595 777.392)"/><path d="M0 0c-.859.197-1.656-.465-1.862-1.207-.195-.706.1-1.471.79-2.044l.093-.077-.034-.114c-.005-.016-.495-1.565-2.08-1.569-.154-.012-1.49-.059-1.941 1.486l-.007.024-.02 6.379v.956l1.889-.002h.952l-.363.519.445.567h-1.525v.001l-1.398.004v5.248l.003.017c.327 1.699 2.111 1.617 2.129 1.617 1.418 0 1.823-.994 1.84-1.036l.038-.097-.068-.082c-.552-.672-.821-1.417-.721-1.992.068-.393.305-.717.705-.963.302-.186.854-.259 1.228-.165.383.098.658.301.84.62.414.725.249 1.943-.044 2.84l-.005.019c-.056.273-.124.802-.165 1.146l-.596-.443-.118.103c-1.434 1.254-2.925 1.269-2.939 1.269-1.291.076-2.885-.998-2.902-1.009l-.126-.087-.113.103c-.9.818-1.999.883-2.01.883h-1.533v-.868l.573-.001a1.594 1.594 0 0 0 1.501-1.526v-6.09h-.001v-.427l-.006-7.139c-.032-.598-.385-1.739-1.482-1.852l-.02-.001h-.598v-.944h.799l.025-.007c.002 0 .737-.138 2.228 1.185l.16.141.124-.171c.01-.013 1.026-1.36 3.04-1.36.016 0 1.576.02 2.748 1.272l.135.143.879-.849c.04.37.126.947.302 1.522.348 1.14.684 2.558.173 3.408C.761-.314.446-.101 0 0" style="fill:#ab1b2c;fill-opacity:1;fill-rule:nonzero;stroke:none" transform="translate(276.952 770.937)"/><path d="M0 0V-7.009s-.433-.324-.767-.324c0 0-.148-.02-.287.04l-.541-.212a2.632 2.632 0 0 0-.537-.058c-1.489-.001-1.932 1.475-1.937 1.492l-.006.024V-.17C-3.9 1.686-2.066 1.676-2.05 1.673-.13 1.539-.001.027 0 .012zm-1.934 2.49c-1.508-.077-2.703-.584-3.548-1.507-1.591-1.737-1.419-4.386-1.417-4.412.177-2.001.813-3.46 1.888-4.333 1.163-.945 2.451-.849 2.465-.848l.016.001c1.387 0 2.251.497 2.259.502l.288.17.024-5.916a2.093 2.093 0 0 0-.811-1.722c-.814-.863-2.213-.238-2.272-.211-1.045.544-.68 1.858-.665 1.914l.017.038c.223.392.318 1.144.328 1.235-.002.614-.171 1.078-.503 1.381-.468.427-1.117.395-1.124.395-.513 0-.909-.144-1.188-.428-.526-.536-.485-1.407-.485-1.416 0-.868.622-2.033.677-2.134.212-.313.322-.751.377-1.052l.583.473.121-.15c1.336-1.659 2.868-1.687 2.884-1.687 4.72-.188 5.227 9.22 5.232 9.314l.091.731.011.513C3.252-2.972 2.282-.31 2.273-.282 1.196 2.529-1.806 2.492-1.934 2.49" style="fill:#ab1b2c;fill-opacity:1;fill-rule:nonzero;stroke:none" transform="translate(261.234 781.843)"/><path d="M0 0h-3.635a.19.19 0 0 0-.163.089.178.178 0 0 0-.005.18l3.611 6.635a.195.195 0 0 0 .214.094.187.187 0 0 0 .145-.179V2.607H.165v-.249l.011-.997L.19.183A.187.187 0 0 0 0 0m2.724-.032V0h-.042l-.001 2.286v.295h-.003v6.024c0 1.234 1.015 1.56 1.552 1.56h.316v1.07h-.601c-.979 0-1.812-.907-1.82-.916l-.134-.147-.143.138c-.621.6-1.315.844-1.602.925L-5.7-.062V-1.39H.136v-3.657c0-1.623-1.458-1.641-1.473-1.641h-.565v-.945h1.32c.59 0 1.46.798 1.745 1.105l.141.152.142-.151c1.083-1.16 2.195-1.227 2.206-1.228l.783.001v.993l-.329.005c-1.39.295-1.407 1.255-1.407 1.296v4.192h2.535l-.39.52.522.716z" style="fill:#ab1b2c;fill-opacity:1;fill-rule:nonzero;stroke:none" transform="translate(245.576 772.823)"/><path d="m0 0-1.605 1.255c-.878.621-1.641 1.481-1.68 1.524-.53.555-.676 1.288-.705 1.805-.047.847.039 1.457.263 1.863.215.39.692.76 1.044.939.602.306 1.341.286 2.081-.056.009-.004.929-.486.964-.68l.016-.093-.07-.071a3.312 3.312 0 0 1-.562-.726c-.311-.552-.573-1.374-.05-2.151.229-.339.82-.605 1.208-.631A1.634 1.634 0 0 1 2.62 4.431c.064.616-.114 1.196-.301 1.811-.108.35-.218.712-.28 1.083-.045.267-.084.536-.116.802l-.651-.549-.124.144c-1.835 2.127-4.862.857-4.893.844-3.143-1.339-2.78-4.749-2.763-4.894l.002-.021c0-2.038 2.652-4.254 3.59-4.974l.347-.183.54-.218.558-.306c.111-.074 2.715-1.843 2.387-4.728-.005-.048-.134-1.207-.991-1.837-.468-.344-1.056-.461-1.749-.346-.054.009-1.331.233-2.218 1.483l-.083.117.097.107c.005.006.485.546.485 1.352l.001.017c.001.007.061.722-.385 1.212-.27.295-.675.454-1.207.472-.055-.001-1.544.005-1.647-1.593.015-.118.136-.968.559-1.464.028-.036.512-.669.625-1.616l.467.551.147-.166c.019-.021 1.882-2.087 4.099-1.924.153.006 3.58.181 4.084 3.714l.003.018A6.052 6.052 0 0 1 0 0" style="fill:#ab1b2c;fill-opacity:1;fill-rule:nonzero;stroke:none" transform="translate(303.168 774.883)"/><path d="m0 0-1.544.005h-.383l.003 5.205c.051 1.733 1.841 2.07 1.859 2.073l.034.003a2.01 2.01 0 0 0 1.98-1.329l.007-.024V1.716C1.956.418.676.026 0 0m4.502-8.439v5.105c-.002.08-.064 2.055-2.286 2.75l-.427.135.398.202C2.281-.198 4.499.981 4.54 4.168c-.005.161-.169 4.128-4.065 4.171l-.016.001c-.011.001-1.383.09-2.937-1.488l-.174-.177-.128.212c-.029.047-.729 1.172-2.199 1.172h-1.625v-.897h.991c.01.001.444.017.772-.286.23-.213.347-.521.347-.916V-.441h-.001v-.295l.022-7.234c.001-.034.021-.944-.562-1.523-.306-.305-.718-.459-1.224-.459h-.395v-.79h1.106c.086.008 1.169.111 1.98.826l.139.122.128-.132c.008-.008.779-.79 1.484-.79h1.219v.677c-.57.075-1.409.421-1.409 1.349v7.282h.378l2.18-.001c.462-.037 1.334-.383 1.334-1.427v-7.895c.222.008.715.118 1.38.8l.152.156.136-.17c.007-.008.728-.893 1.493-.893h1.132v.658c-.275.011-.769.081-1.153.418-.347.305-.523.75-.523 1.323" style="fill:#ab1b2c;fill-opacity:1;fill-rule:nonzero;stroke:none" transform="translate(287.842 775.825)"/><path d="M0 0a8.01 8.01 0 0 1-.263-1.252l-.016-.125a10.1 10.1 0 0 1-.022-.202l-.008-.094a4.2 4.2 0 0 1-.012-.165v-.008l-.018-.407-1.197 1.154a4.415 4.415 0 0 0-1.95-1.104 4.403 4.403 0 0 0-.356-.083 3.436 3.436 0 0 0-.586-.065 4.485 4.485 0 0 0-2.153.531 4.264 4.264 0 0 0-.666.447c-.177.146-.31.279-.399.377l-.001-.001a8.575 8.575 0 0 0-.241-.198l-.076-.059c-.053-.04-.104-.081-.155-.118l-.082-.059a5.099 5.099 0 0 0-.14-.097l-.076-.051a6.306 6.306 0 0 0-.141-.089l-.058-.036a4.665 4.665 0 0 0-.186-.105l-.029-.015a3.928 3.928 0 0 0-.144-.073l-.057-.026c-.036-.016-.071-.032-.106-.046l-.056-.023a2.993 2.993 0 0 0-.096-.036l-.049-.018a2.673 2.673 0 0 0-.099-.03l-.032-.01a2.483 2.483 0 0 0-.223-.048l-.035-.005-.059-.006-.032-.003-.051-.002-.025-.001h-.025c-.023.001-.043.001-.062.003l-.018.002a.509.509 0 0 0-.052.007h-1.133v1.677h.968C-9.304-.36-9.121.698-9.089.971a.733.733 0 0 1 .006.064l-.001 6.905a.969.969 0 0 0-.382-.1l-.012-.001h-.006a.407.407 0 0 0-.04-.002h-.01a.55.55 0 0 0-.055.003h-.002a.751.751 0 0 0-.077.013.431.431 0 0 0-.067.021l-.011.004a.57.57 0 0 0-.06.031l-.014.009a.411.411 0 0 0-.072.065.385.385 0 0 0-.046.068l-.006.011a.512.512 0 0 0-.034.098l-.006.026a.72.72 0 0 0-.012.13v.002l-.001.003v.025l.001.015.001.012.003.019.003.015.005.024a.054.054 0 0 1 .004.015l.012.03.004.011c.007.014.014.029.024.043l.006.009a.278.278 0 0 0 .026.034l.014.014.028.027.02.015a.288.288 0 0 0 .059.037l.043.02.029.011.056.017.031.007a.773.773 0 0 0 .09.014l.012.002a1.3 1.3 0 0 0 .112.005l.007-.001c.031 0 .066-.002.1-.005l.053-.003c.054-.005.113-.013.176-.024v5.972a.973.973 0 0 1-.039.257 1.204 1.204 0 0 1-.458.665 1.222 1.222 0 0 1-.284.147 1.717 1.717 0 0 1-.375.091h-.917v1.601h1.923a3.324 3.324 0 0 0 .446-.064 4.088 4.088 0 0 0 1.329-.546c.125-.081.249-.171.372-.274l.016.01.071.044.04.025.068.04.049.029.077.044.06.033.082.045.071.038.087.045.078.039.094.047.085.039c.032.016.065.031.099.046.029.014.06.027.09.04l.105.045.095.038.108.042a2.95 2.95 0 0 0 .212.076l.102.033.116.035.104.029.118.03.105.024a5.067 5.067 0 0 0 .226.041c.04.006.08.012.12.016.036.005.071.009.107.012.04.004.08.006.12.008l.105.003a2.375 2.375 0 0 0 .381-.014 4.53 4.53 0 0 0 .451-.069 5.105 5.105 0 0 0 .916-.277 5.674 5.674 0 0 0 1.511-.905l.348.259.535.398.024-.217.012-.109.005-.048.024-.206c.021-.18.051-.43.084-.666.01-.078.022-.155.033-.227.016-.108.033-.205.048-.281.088-.271.268-.897.303-1.577.003-.075.006-.151.006-.228 0-.458-.076-.925-.297-1.312a1.621 1.621 0 0 0-.737-.679 1.734 1.734 0 0 0-.773-.171l-.034-.002-.099.003-.032.001c-.062.004-.122.01-.183.017l-.044.007a2.312 2.312 0 0 0-.145.026l-.043.009c-.059.014-.116.03-.171.047l-.029.01a1.75 1.75 0 0 0-.133.052l-.042.018a1.442 1.442 0 0 0-.141.074h-.001a2.55 2.55 0 0 0-.332.248 1.805 1.805 0 0 0-.257.285 1.572 1.572 0 0 0-.243.496c-.017.06-.031.121-.042.183-.054.312-.021.654.088 1.006.063.205.15.414.265.622.104.189.228.376.372.561a1.258 1.258 0 0 1-.201.257 1.443 1.443 0 0 1-.41.285c-.213.099-.487.17-.839.17l-.023.001h-.074l-.043-.002-.036-.002-.056-.005-.043-.004-.068-.009-.044-.006c-.03-.005-.062-.012-.094-.019-.011-.002-.021-.003-.031-.006a1.877 1.877 0 0 1-.133-.035l-.035-.012a2.583 2.583 0 0 1-.104-.036l-.05-.022a1.46 1.46 0 0 1-.09-.041l-.057-.03c-.028-.016-.056-.031-.084-.049l-.058-.039c-.026-.018-.052-.038-.078-.058l-.057-.048c-.025-.022-.049-.046-.073-.07-.018-.019-.036-.037-.053-.057a1.946 1.946 0 0 1-.068-.085l-.047-.065a1.648 1.648 0 0 1-.061-.103l-.039-.071c-.02-.041-.037-.086-.054-.131-.009-.024-.019-.045-.027-.069a1.785 1.785 0 0 1-.061-.227V9.447h3.306l-.18-.231-.561-.716.207-.296.405-.578h-3.15l-.007-.556V.712c.022-.076.048-.146.076-.213l.028-.062c.02-.044.04-.086.061-.125l.036-.064c.021-.034.042-.068.063-.099l.041-.057A1.16 1.16 0 0 1-5.44.007l.04-.046c.027-.028.054-.054.081-.078l.033-.031c.039-.033.078-.063.117-.09l.021-.012a1.12 1.12 0 0 1 .098-.06l.042-.021a1.709 1.709 0 0 1 .192-.08.717.717 0 0 1 .043-.014l.069-.019.037-.009c.026-.006.05-.01.074-.014l.024-.004c.031-.005.06-.008.087-.011l.019-.001.057-.004h.095l.013.001.024.002.021.001c.339 0 .618.087.845.215.182.103.33.234.45.367a2.19 2.19 0 0 1 .387.617 2.871 2.871 0 0 0-.638.814 2.258 2.258 0 0 0-.208.599 1.993 1.993 0 0 0 .109 1.132c.014.035.028.07.045.104l.03.06c.017.031.033.062.051.092l.037.06c.018.03.038.058.057.087l.042.058.066.083.045.054a2.047 2.047 0 0 0 .122.127 1.927 1.927 0 0 0 .272.225l.049.032c.033.021.067.043.101.063l.061.033c.032.017.064.033.097.048.022.011.045.02.067.03l.099.038.07.024c.035.011.07.02.105.029l.069.017.116.019.063.009c.052.005.105.008.159.009l.024.001h.002c.042 0 .085-.004.129-.007l.065-.003a1.97 1.97 0 0 0 .397-.088c.128-.041.246-.091.356-.15.085-.047.163-.1.238-.158a1.65 1.65 0 0 0 .411-.461 2.04 2.04 0 0 0 .236-.598 3.297 3.297 0 0 0 .075-.679C.455 1.632.231.757 0 0m-1.433 5.045-.125-.003a2.882 2.882 0 0 1-1.237-.409S-4.02 3.94-3.977 2.371c0 0-.043-.755.738-1.59 0 0 .135-.186-.022-.348 0 0-.21-.304-.568-.304 0 0-.549.024-.549.448v5.605h4.02l-1.108 1.254s-.154.145.029.305l.668.689s.187.257-.07.474l-1.165 1.101H-4.39v3.5s-.009.668.54.668c0 0 .4-.061.105-.55-.111-.185-.095-.523-.092-.722a2.33 2.33 0 0 1 .656-1.613c.683-.71 1.62-1.179 2.577-1.179.462 0 .929.11 1.375.354 0 0 1.056.734 1.014 2.059 0 0 0 .856-.57 1.875 0 0-.358 1.164.346 2.098L.192 17.974l-.847-.74s-.095-.077-.234-.077a.418.418 0 0 0-.273.107s-1.388.826-2.891.826l-.156-.003-.049.001c-.242 0-1.342-.048-2.589-.857 0 0-.088-.076-.201-.076a.27.27 0 0 0-.201.096s-.691.551-1.799.551l-2.582.013v-2.109l1.332-1.495h.79V9.118h-.295s-.579-.019-.579-.832c0-.814.896-1.248.896-1.248V1.137s.142-1.222-1.062-1.222h-1.095v-2.171l1.166-1.305h1.265s1.267 0 2.385 1.264c0 0 .95-1.345 3.082-1.345 0 0 1.73-.001 2.955 1.059L.898-3.867S.718-2.562.94-1.798c0 0 .16.759.78 1.957.436.842.325 2.002-.169 2.783-.595.937-1.738 2.103-2.984 2.103" style="fill:#100f0d;fill-opacity:1;fill-rule:nonzero;stroke:none" transform="translate(278.106 766.776)"/><path d="M0 0v-.011a.733.733 0 0 0-.013-.13l-.006-.025a.376.376 0 0 0-.034-.098l-.006-.011a.385.385 0 0 0-.046-.068l-.011-.013a.366.366 0 0 0-.061-.052L-.19-.417a.389.389 0 0 0-.061-.031l-.01-.005a.645.645 0 0 0-.068-.02l-.015-.004a.751.751 0 0 0-.061-.009h-.002a.584.584 0 0 0-.055-.003h-.011a.384.384 0 0 0-.039.002h-.007l-.012.001c-.072 0-.15.012-.226.03a1.947 1.947 0 0 0-.224.069l-.028-.371-.026-.344a16.811 16.811 0 0 0-.105-1.192l-.035-.278a21.704 21.704 0 0 0-.547-2.796 15.255 15.255 0 0 0-.501-1.528 9.9 9.9 0 0 0-.695-1.433 7.084 7.084 0 0 0-.497-.722 4.889 4.889 0 0 0-.733-.754 3.657 3.657 0 0 0-1.256-.689 3.442 3.442 0 0 0-.412-.101 3.766 3.766 0 0 0-.825-.055h-.001c-.022 0-.189.002-.453.056a4.156 4.156 0 0 0-1.027.365 4.816 4.816 0 0 0-.768.489 5.497 5.497 0 0 0-.803.77l-.552-.449-.277-.224-.016.184-.014.17a1.179 1.179 0 0 1-.009.086l-.017.115a3.426 3.426 0 0 1-.197.753 1.521 1.521 0 0 1-.144.272l-.009.016c-.017.03-.244.443-.441.975a6.101 6.101 0 0 0-.122.368 4.323 4.323 0 0 0-.155.773 2.425 2.425 0 0 0-.008.188l-.001.055a2.603 2.603 0 0 0 .036.447c.018.113.045.237.085.366.043.136.099.277.176.415.076.137.171.272.292.394.176.18.387.316.63.407a2.316 2.316 0 0 0 .6.128c.072.006.147.009.223.009h.015a.02.02 0 0 1 .007.001h.068l.041-.002h.014l.064-.005a1.048 1.048 0 0 0 .075-.007l.03-.004.053-.008a.445.445 0 0 0 .036-.005l.056-.011a.506.506 0 0 0 .038-.007l.063-.015.035-.008.091-.026.013-.004c.035-.011.07-.023.106-.037l.034-.013.074-.031a.8.8 0 0 1 .042-.02l.069-.034.043-.024.069-.04.042-.027a1.59 1.59 0 0 0 .072-.051c.013-.008.024-.017.036-.026.036-.027.071-.056.105-.086l.001-.001a1.72 1.72 0 0 0 .381-.5c.163-.32.246-.709.246-1.163l-.001-.018-.001-.002-.005-.043-.008-.061-.017-.117a4.958 4.958 0 0 0-.216-.875 3.674 3.674 0 0 0-.05-.126c-.013-.031-.028-.06-.042-.089l-.024-.048-.007-.028c-.049-.212-.206-1.084.481-1.441l.016-.007.035-.014.009-.003.051-.019.008-.003.072-.024.017-.006a2.48 2.48 0 0 1 .089-.027l.013-.004.095-.025.017-.004.112-.024.024-.004c.04-.008.081-.014.124-.02l.007-.001a2.37 2.37 0 0 1 .277-.017l.04.002a1.728 1.728 0 0 1 .25.028l.034.007c.046.01.09.023.135.039l.027.011a1.174 1.174 0 0 1 .143.069c.03.017.059.036.087.057.012.009.025.017.036.027a.9.9 0 0 1 .112.103l.034.029.013.009c.019.014.057.044.106.089l.053.051c.203.207.511.63.497 1.281l-.011 2.649-.011 2.65a5.18 5.18 0 0 0-1.081-.318l-.098-.017a5.905 5.905 0 0 0-.982-.082l-.034-.001-.01-.001a.967.967 0 0 0-.06-.002h-.006l-.046-.001-.022.001h-.035l-.068.002-.041.002-.089.006-.038.002a4.588 4.588 0 0 0-.141.015l-.028.004a3.563 3.563 0 0 0-.128.018l-.056.01-.114.021-.066.014-.119.028-.069.018c-.044.011-.089.025-.135.039l-.06.018a4.07 4.07 0 0 0-.202.07l-.023.009a4.016 4.016 0 0 0-.185.076l-.069.032a3.812 3.812 0 0 0-.145.07l-.08.041-.14.079-.08.048c-.05.031-.1.064-.15.098-.023.016-.047.03-.07.047a4.598 4.598 0 0 0-.218.164A4.637 4.637 0 0 0-10.963.194a5.661 5.661 0 0 0-.398.842 8.277 8.277 0 0 0-.436 1.677c-.039.245-.07.5-.094.764 0 .014-.004.07-.006.159a8.233 8.233 0 0 0 .034.886c.014.148.034.307.061.475.008.056.018.113.028.171.021.116.045.235.074.356a6.378 6.378 0 0 0 .218.753 5.564 5.564 0 0 0 .806 1.527 4.643 4.643 0 0 0 1.707 1.408c.307.15.638.272.989.365.161.043.327.079.497.109l.091.016c.266.044.543.074.831.089.01 0 .228.003.567-.04a6.247 6.247 0 0 0 .758-.148c.286-.075.599-.181.917-.328.89-.414 1.823-1.158 2.336-2.499.011-.028.984-2.694 1.062-6.394.064.011.123.019.178.025l.051.002c.035.003.07.006.102.006h.008c.039 0 .076-.002.111-.005l.008-.001A.813.813 0 0 0-.369.395l.03-.008A.777.777 0 0 0-.282.371l.029-.012A.428.428 0 0 0-.21.339l.025-.013c.012-.008.024-.015.034-.024l.02-.014.028-.027.015-.015A.717.717 0 0 0-.063.213c.002-.003.005-.006.006-.01A.3.3 0 0 0-.033.161l.004-.012a.188.188 0 0 0 .012-.03l.004-.015.006-.024.002-.014.003-.019.001-.013L0 .019V0m1.167-1.464s0 .877-.599 1.298c0 0 .014 2.884-.281 4.148 0 0-1.598 6.211-6.62 6.211-.141 0-.283-.005-.429-.014h-.009c-.249 0-5.482-.078-5.605-6.605 0 0-.085-5.871 5.656-6.972 0 0 .144-.014.342-.014.341 0 .841.044 1.037.283l-.007-3.53s.063-1.508-1.309-1.691c0 0-.048-.014-.092-.014-.027 0-.053.005-.065.022 0 0-.037.07.049.141.106.088.176.238.246.352.2.328.355.674.389 1.057.048.536.04 1.113-.195 1.613a3.304 3.304 0 0 1-.819 1.049 4.873 4.873 0 0 1-.756.548l-.107.062s-.712.427-1.605.427c-.569 0-1.21-.173-1.788-.738-.563-.549-.757-1.463-.693-2.205.051-.593.238-1.091.502-1.619.246-.492.498-1.036.539-1.587 0 0 .072-.489-.138-.819l1.382-1.373.978.834s.085.087.198.087a.265.265 0 0 0 .199-.099s1.155-1.064 3.216-1.064l.185.003.033-.001c.391 0 4.249.22 5.371 8.847 0 0 .795.242.795 1.363" style="fill:#100f0d;fill-opacity:1;fill-rule:nonzero;stroke:none" transform="translate(265.846 774.909)"/><path d="M0 0c.102-.041.219-.077.352-.106h.647v-1.728H-.173l-.069.006a2.659 2.659 0 0 0-.435.087 3.736 3.736 0 0 0-.914.396 4.25 4.25 0 0 0-.283.18 4.846 4.846 0 0 0-.639.535 6.941 6.941 0 0 0-.442-.395c-.185-.15-.4-.306-.625-.431a2.513 2.513 0 0 0-.136-.071c-.228-.111-.462-.185-.683-.185h-1.698v1.679h.944c.111.001 1.093.045 1.093 1.274v3.29h-5.836v1.782l.021.039 6.1 11.591.14-.026c.008-.001.046-.009.108-.024a3.85 3.85 0 0 0 .486-.164 4.23 4.23 0 0 0 .724-.38c.157-.103.318-.223.477-.363.282.267.97.828 1.801.896.055.005.111.008.168.008h.981v-1.805H.414c-.12 0-1.172-.041-1.172-1.192V9.119c.064.012.122.019.177.025l.052.003c.035.002.07.005.101.005h.008c.04 0 .077-.001.111-.005l.009-.001a.763.763 0 0 0 .093-.014l.031-.008a.633.633 0 0 0 .056-.016l.03-.011.042-.02.025-.014a.532.532 0 0 0 .055-.038l.028-.027.014-.014a.325.325 0 0 0 .025-.034l.007-.009a.642.642 0 0 0 .028-.053l.012-.032.003-.014.007-.025.002-.013.003-.021.001-.011.001-.017v-.023l-.001-.005v-.001a.633.633 0 0 0-.013-.129l-.005-.026a.451.451 0 0 0-.034-.098l-.006-.011a.385.385 0 0 0-.046-.068l-.012-.013a.373.373 0 0 0-.061-.052l-.013-.009a.57.57 0 0 0-.06-.031l-.011-.004a.41.41 0 0 0-.068-.021l-.015-.003a.483.483 0 0 0-.061-.01h-.002L-.3 8.248h-.01l-.04.002h-.007l-.012.002a.702.702 0 0 0-.172.023 1.222 1.222 0 0 0-.173.06v-.681h.002V6.623h2.993l-.787-1.081.489-.65.179-.239H-.737V.828C-.737.804-.716.286 0 0m3.927 3.255-.966 1.349.808.872s.176.142-.074.397L2.549 7.072H1.078s.38.33.38.941c0 0 0 .459-.602.918v4.892s-.103.822 1.043.822l.697.019v2.366l-1.242 1.23H-.148s-.914 0-1.535-.662c0 0-.879.758-2.206.758l-.079-.001-6.206-11.923V4.288l.98-.915h4.507l.024.001c.069 0 .264-.023.264-.289V1.21s.063-.871-1.013-.871h-1.061v-2.355l1.155-1.131h1.869s.087-.012.229-.012c.467 0 1.518.126 1.956 1.204 0 0 .949-1.192 2.12-1.192h1.773v2.079L1.489.156H1.11S1.1.154 1.084.154c-.067 0-.243.03-.243.347v2.754z" style="fill:#100f0d;fill-opacity:1;fill-rule:nonzero;stroke:none" transform="translate(249.392 766.535)"/><path d="M0 0c.27-.245.013-.303.013-.303a1.339 1.339 0 0 1-.107.005c-.444 0-.637-.269-.637-.269-1.086.718-1.287 2.08-1.287 2.08-.224 1.296.737 1.548.968 1.667a.462.462 0 0 0 .21.062c.074 0 .104-.032.104-.032.111-.076.032-.275.032-.275C-1.306 1.513 0 0 0 0m4.148-9.246c-.114-.793-.371-1.428-.704-1.94a4.083 4.083 0 0 0-1.124-1.159 4.976 4.976 0 0 0-1.153-.598 5.772 5.772 0 0 0-1.277-.309c-.052-.007-.094-.01-.124-.013a3.379 3.379 0 0 0-.338-.014c-1.2 0-2.263.552-3.009 1.086a7.593 7.593 0 0 0-.965.815l-.853-1.007.016.539a3.073 3.073 0 0 1-.214 1.211 3.96 3.96 0 0 1-.255.518 1.648 1.648 0 0 1-.096.143 2.136 2.136 0 0 0-.252.377 3.386 3.386 0 0 0-.223.541 4.106 4.106 0 0 0-.119.466l-.017.09c-.02.111-.028.182-.029.193l-.001.015.001.014c.042.732.333 1.19.682 1.476a1.844 1.844 0 0 0 .375.24 2.162 2.162 0 0 0 .445.162 2.45 2.45 0 0 0 .404.07l.081.006.051.001c.322-.011.607-.068.855-.168.124-.05.238-.111.343-.183a1.612 1.612 0 0 0 .458-.476 1.998 1.998 0 0 0 .243-.583c.072-.297.068-.547.062-.639l-.001-.027a2.458 2.458 0 0 0-.054-.501 2.59 2.59 0 0 0-.432-.968 3.385 3.385 0 0 1 .627-.622 3.08 3.08 0 0 1 .253-.173 2.86 2.86 0 0 1 .419-.226c.159-.072.299-.121.401-.152a2.137 2.137 0 0 1 .189-.047l.011-.001c.07-.012.139-.021.206-.027l.07-.003c.046-.003.093-.006.138-.006l.02.001a2.037 2.037 0 0 1 .537.076l.01.004a1.528 1.528 0 0 1 .263.109c.068.036.135.075.198.121v.001c.317.232.519.562.645.861l.049.126c.019.053.035.103.05.152.079.253.1.44.101.445a3.946 3.946 0 0 1-.149 1.604 4.4 4.4 0 0 1-.228.592C.244-5.987-.564-5.269-.927-4.982l-.028.023a3.012 3.012 0 0 1-.159.117l-.192.108-.687.386a2.283 2.283 0 0 0-.016-.133.939.939 0 0 0-.137-.382l-.005-.008-.002-.006-.018-.027-.027-.036a.38.38 0 0 0-.047-.053v-.001l-.049-.042a.353.353 0 0 0-.074-.046l-.002-.001a.362.362 0 0 0-.07-.026l-.019-.005a.35.35 0 0 0-.083-.01h-.001l-.038.003-.031.003-.041.01-.034.009c-.016.005-.033.013-.05.021l-.03.012a.706.706 0 0 0-.068.04l-.018.01s-.164.086-.181.284c-.014.153.062.374.372.673-.125.097-.273.214-.435.349l-.042.034c-.12.1-.249.21-.382.329l-.012.01c-.619.551-1.343 1.279-1.898 2.09a8.891 8.891 0 0 0-.169.26 5.807 5.807 0 0 0-.404.765 4.085 4.085 0 0 0-.273.914 2.851 2.851 0 0 0-.036.441 4.03 4.03 0 0 0-.017.334v.117A6.217 6.217 0 0 0-6 3.531a4.817 4.817 0 0 0 .384.853 4.62 4.62 0 0 0 .989 1.207 4.93 4.93 0 0 0 1.314.806l.006.003.027.01.016.007a1.924 1.924 0 0 1 .061.022l.043.016.034.012.053.017.041.014.062.02.046.014.075.022.048.014.09.025.047.012.129.032.021.005c.052.012.105.024.161.035l.046.01.126.024.066.011.115.019.076.01c.038.005.077.011.116.015l.081.009c.039.005.078.008.118.012l.087.007.121.007.089.004.127.003.063.001.029-.001.079-.001.119-.004.083-.004c.04-.002.079-.006.119-.009l.085-.008a4.979 4.979 0 0 0 .333-.046l.078-.014c.049-.009.098-.02.147-.032l.06-.013a3.985 3.985 0 0 0 .414-.126l.07-.028.135-.054.08-.037c.042-.019.083-.038.125-.059l.083-.043.119-.067a3.707 3.707 0 0 0 .282-.181l.119-.089.075-.059c.043-.035.085-.072.127-.109a4.403 4.403 0 0 0 .244-.234l.002-.002.915.774.035-.357c.037-.373.088-.754.151-1.132a5.77 5.77 0 0 1 .138-.593c.042-.15.087-.298.132-.445l.071-.234c.047-.157.092-.315.131-.475.078-.32.132-.648.128-.986a2.766 2.766 0 0 0-.044-.447l-.016-.063c-.01-.04-.019-.081-.031-.121l-.026-.073c-.013-.034-.024-.069-.039-.103a.99.99 0 0 0-.034-.074c-.015-.032-.029-.064-.046-.094a1.06 1.06 0 0 0-.042-.073l-.052-.087-.049-.069c-.02-.027-.039-.054-.06-.08L3.091.792a1.143 1.143 0 0 0-.127-.133C2.94.636 2.916.613 2.891.592 2.87.573 2.847.555 2.825.537c-.026-.02-.051-.04-.078-.059a3.014 3.014 0 0 0-.154-.101 1.436 1.436 0 0 0-.076-.042 1.457 1.457 0 0 0-.167-.08 1.461 1.461 0 0 0-.092-.036c-.028-.01-.055-.02-.083-.028a2.633 2.633 0 0 0-.18-.048 1.716 1.716 0 0 0-.187-.031A1.623 1.623 0 0 0 1.618.1L1.585.098a2.03 2.03 0 0 0-.326.03 2.349 2.349 0 0 0-.514.166 2.1 2.1 0 0 0-.663.443 1.223 1.223 0 0 0-.131.162 2.141 2.141 0 0 0-.345.894 2.144 2.144 0 0 0-.017.301c.003.266.057.541.159.821a3.573 3.573 0 0 0 .72 1.173 20.629 20.629 0 0 1-.487.3l-.081.048a1.939 1.939 0 0 1-.097.055l-.082.037-.027.01a1.55 1.55 0 0 1-.1.04l-.073.025-.034.011a2.593 2.593 0 0 1-.358.085l-.045.007a2.414 2.414 0 0 1-.271.019h-.002c-.052 0-.106-.003-.16-.008l-.041-.004a1.382 1.382 0 0 1-.167-.027h-.001a1.701 1.701 0 0 1-.165-.047l-.042-.015a1.632 1.632 0 0 1-.168-.072 2.616 2.616 0 0 1-.612-.445 1.874 1.874 0 0 1-.2-.226 1.151 1.151 0 0 1-.073-.115 1.924 1.924 0 0 1-.197-.676 4.455 4.455 0 0 1-.033-.459c-.004-.165 0-.345.01-.537.016-.285.071-.644.222-.99.061-.138.137-.275.232-.404.047-.064.1-.127.157-.186a10.713 10.713 0 0 1 .864-.861c.099-.089.204-.18.313-.27.217-.18.45-.355.684-.504.027.058.054.11.081.157l.027.043c.018.03.036.059.054.084l.032.041c.016.021.033.042.049.06l.033.033c.015.016.03.031.046.043.011.01.022.018.033.026.015.011.029.022.043.03a.268.268 0 0 0 .033.018.386.386 0 0 0 .041.02l.031.011a.28.28 0 0 0 .039.01l.028.006.037.003.016.001h.007a.437.437 0 0 0 .084-.011l.013-.003a.518.518 0 0 0 .064-.023l.009-.005C.251-.585.265-.594.275-.6l.004-.003.013-.009a.419.419 0 0 0 .067-.055.392.392 0 0 0 .105-.279v-.006a.712.712 0 0 0-.02-.163 1.74 1.74 0 0 0-.232-.509 1.738 1.738 0 0 0-.057-.085l.275-.215.343-.266C5.14-4.604 4.204-9.001 4.148-9.246M1.575-2.131s.08.629-.333 1.146c0 0 .537-.227 1.151-.227.415 0 .864.102 1.208.447 0 0 2.311 1.499.444 5.106 0 0-.475.887.19 1.437L2.873 7.124l-.646-.597s-.087-.107-.219-.107c-.076 0-.165.034-.263.14 0 0-1.183.747-3.177.747h-.007c-.212 0-5.407-.058-5.407-5.809 0 0-.274-3.057 3.356-5.545 0 0 .238-.136.139-.304 0 0-.488-.633.399-1.092 0 0 .443-.181.971-.181.282 0 .589.052.865.211 0 0 2.786-2.17 1.52-4.586 0 0-.426-.803-1.202-.803-.216 0-.46.062-.729.222l.005-.001c.098 0 .302 1.424.295 1.51-.085 1.103-.77 2.121-1.658 2.786-.456.343-1.029.502-1.605.503-1.252 0-2.523-.754-2.673-2.031-.07-.593.05-1.32.254-1.88 0 0 1.496-2.369.716-3.585l1.093-1.116 1.476 1.385s1.527-1.434 3.722-1.434h.011c.281 0 5.432.077 5.35 5.749 0 0 .422 4.076-3.884 6.563" style="fill:#100f0d;fill-opacity:1;fill-rule:nonzero;stroke:none" transform="translate(302.595 777.392)"/><path d="M0 0h-1.511c-.229 0-.449.057-.652.145a2.576 2.576 0 0 0-.55.327 3.707 3.707 0 0 0-.451.405h-.001a3.148 3.148 0 0 0-.167-.149l-.043-.037c-.049-.039-.096-.077-.143-.112l-.018-.014a2.957 2.957 0 0 0-.152-.104l-.038-.025a2.278 2.278 0 0 0-.122-.072l-.025-.015a3.405 3.405 0 0 0-.134-.068l-.032-.014a2.166 2.166 0 0 0-.105-.044l-.026-.01a2.325 2.325 0 0 0-.117-.04l-.024-.006c-.03-.009-.06-.016-.089-.023a.943.943 0 0 0-.025-.006C-4.458.131-4.49.126-4.521.121L-4.536.12A.694.694 0 0 0-4.61.112L-4.631.11l-.072-.002h-.002a1.027 1.027 0 0 0-.146.011l-.017.003c-.012.002-.021.003-.028.006l-.01.002-.016.004-.13.042v8.193c0 .932-.884 1.051-.98 1.061l-2.154-.005v-.001l.002-6.909c0-.412.224-.655.482-.797a1.56 1.56 0 0 1 .437-.159 1.79 1.79 0 0 1 .307-.042l.182-.007V.123h-1.599c-.17 0-.34.033-.503.087a2.372 2.372 0 0 0-.239.094 3.056 3.056 0 0 0-.525.309 4.384 4.384 0 0 0-.363.291 3.504 3.504 0 0 0-.53-.343c-.77-.408-1.511-.461-1.551-.464l-1.316-.001h-.189V1.62h.775c.099 0 .194.007.283.021.224.037.417.119.576.244.032.026.062.052.091.081.471.467.455 1.255.455 1.263l-.007 4.664-.004 2.332a1.397 1.397 0 0 0-.132-.053.827.827 0 0 0-.265-.053l-.012-.001h-.007a.368.368 0 0 0-.039-.002h-.011a.584.584 0 0 0-.055.003h-.003a.8.8 0 0 0-.06.009l-.015.004a.471.471 0 0 0-.068.02l-.011.005a.428.428 0 0 0-.06.031l-.013.008a.336.336 0 0 0-.072.066.33.33 0 0 0-.046.067l-.007.011a.512.512 0 0 0-.034.098l-.005.026a.714.714 0 0 0-.013.13V10.603l-.001.012.001.008.001.016.001.012.002.019.003.015a.174.174 0 0 1 .005.022l.005.017.01.027.006.014a.365.365 0 0 0 .023.043l.008.011.024.031.015.016.027.026.021.015a.657.657 0 0 0 .033.023l.026.014.042.02.03.011a.633.633 0 0 0 .056.016l.031.008c.027.006.056.01.087.014l.015.002a1.3 1.3 0 0 0 .112.005h.007a1.84 1.84 0 0 0 .1-.006l.052-.002a2.88 2.88 0 0 0 .177-.025v6.178c0 .145-.02.271-.057.38a.646.646 0 0 1-.17.268h-.001a.558.558 0 0 1-.078.062l-.029.017c-.017.01-.035.021-.053.029l-.034.015a.478.478 0 0 1-.081.029l-.043.012-.032.007-.037.006a.295.295 0 0 1-.027.004l-.03.003-.019.002-.021.001H-13.542v1.631h2.006a2.97 2.97 0 0 0 1.576-.439 3.17 3.17 0 0 0 .813-.721c.094.089.186.172.278.251l.092.075c.061.05.121.1.181.145.035.027.071.052.106.078.054.039.107.078.16.114a4.963 4.963 0 0 0 .259.166l.104.061c.05.028.098.055.146.08l.099.051a6.022 6.022 0 0 0 .232.109c.049.021.098.04.146.059l.072.029.177.061.028.009a4.074 4.074 0 0 0 .363.094l.063.012.093.016.059.008.078.01.051.005.065.005.042.002.054.002.031.001h.009l.034-.001h.017a.293.293 0 0 0 .036-.002h.018c.259-.004.504-.024.733-.058.235-.036.456-.086.662-.15a3.98 3.98 0 0 0 .577-.226c.895-.433 1.463-1.135 1.823-1.836.252-.491.402-.981.492-1.38l.034-.165c.021-.106.037-.203.05-.289.038-.26.044-.423.044-.431-.019-1.516-.502-2.61-1.045-3.362a5.07 5.07 0 0 0-1.178-1.174c2.13-.876 2.186-2.945 2.186-2.966V2.766c0-.174.019-.333.057-.476.05-.19.133-.351.248-.483a1.154 1.154 0 0 1 .209-.18l.028-.017c.039-.025.079-.048.119-.067l.014-.006c.037-.017.075-.033.113-.046l.027-.01c.04-.014.08-.026.119-.036l.021-.005a2.022 2.022 0 0 1 .124-.025c.035-.006.071-.01.103-.014l.021-.002.08-.006.014-.001.074-.001h.038l.021.001h.01l.028.001.208.02zm-5.514 1.062-1.103 1.067v5.764h1.103zM-.17 2.589v4.725s-.022 1.36-2.017 2.951c0 0 2.301.948 2.385 4.372 0 0 .085 3.272-4.252 5.32 0 0-.92.39-2.078.39-.788 0-1.686-.18-2.481-.787 0 0-.101-.101-.272-.101a.615.615 0 0 0-.372.145s-.612.456-2.195.456l-2.478-.023v-2.294l1.263-1.368h.805v-4.993h-.212c-.118 0-.685-.042-.685-.85 0-.088.014-.164.017-.222.053-.266.235-.812.845-1.051V3.354s.054-1.283-.864-1.283h-1.262v-2.31l1.182-1.196h1.15c.218 0 1.837.032 2.396.961 0 0 .026.076.166.076l.006.001c.026 0 .147-.005.194-.086 0 0 .885-.979 2.136-.979h1.789v.888s.015.03.046.03c.02 0 .046-.012.078-.051 0 0 .636-1.004 1.459-1.004h.012c.099 0 .792.026 1.349.734 0 0 .057.091.157.091a.172.172 0 0 0 .163-.06s.566-.632 1.453-.632H1.38V.776L.006 2.054s-.194.2-.176.535" style="fill:#100f0d;fill-opacity:1;fill-rule:nonzero;stroke:none" transform="translate(294.4 764.62)"/><path d="M0 0s-.026.003-.069.003c-.182 0-.67-.05-.682-.58 0 0 .021-.159-.261-.159l-.027-.001c-.106 0-.492.025-.492.381v5.534a.7.7 0 0 0 .748.653s.032.003.08.003c.199 0 .703-.057.703-.632zm.126 6.635a1.514 1.514 0 0 1-.444.387c-.19.111-.429.2-.733.247a2.779 2.779 0 0 1-.24.028h-.008l-.02-.001-.024-.001-.032-.001-.038-.004-.042-.004-.048-.006-.052-.008a1.821 1.821 0 0 1-.056-.011l-.06-.012c-.02-.004-.042-.011-.063-.016l-.065-.018a2.74 2.74 0 0 1-.068-.023l-.068-.024c-.024-.009-.048-.021-.072-.031l-.07-.031c-.024-.012-.048-.027-.073-.041l-.069-.039c-.024-.016-.048-.034-.072-.052-.023-.016-.045-.03-.067-.048-.024-.019-.047-.042-.071-.064-.02-.019-.042-.037-.062-.057-.023-.024-.044-.052-.066-.078-.018-.023-.038-.043-.056-.068-.021-.029-.04-.062-.06-.094-.015-.026-.033-.049-.048-.077-.019-.036-.035-.077-.052-.116-.012-.028-.026-.054-.037-.084-.017-.046-.03-.098-.044-.148-.007-.028-.017-.053-.024-.082a2.226 2.226 0 0 1-.042-.263V-.004a.921.921 0 0 1 .023-.064l.019-.045.012-.03.023-.051.018-.037.029-.057.023-.042.036-.062c.008-.015.018-.03.028-.045a.84.84 0 0 1 .044-.066l.032-.045.056-.072.034-.041a1.85 1.85 0 0 1 .087-.093l.017-.017c.037-.036.076-.071.118-.104l.04-.029c.031-.023.062-.046.095-.066.018-.012.037-.022.056-.033.031-.018.062-.035.095-.051l.067-.029a1.54 1.54 0 0 1 .374-.103c.04-.006.083-.01.126-.012.029-.002.057-.005.087-.006.05 0 .101.002.154.005l.077.004c.08.008.163.02.251.039l.391.145a.764.764 0 0 0-.014.144V-.838l.001.016.001.012.003.019.002.015a.745.745 0 0 1 .006.023l.004.016.011.028.005.013a.613.613 0 0 0 .031.054l.024.031.015.016.028.026.02.015.033.023.026.014a.408.408 0 0 0 .042.019l.03.012a.633.633 0 0 0 .056.016l.031.008c.028.006.058.01.091.014l.011.002c.034.003.071.004.111.004h.008c.031 0 .066-.003.1-.005L.22-.45c.055-.005.114-.013.177-.024v6.457C.395 6 .389 6.054.37 6.13a1.457 1.457 0 0 1-.244.505" style="fill:#100f0d;fill-opacity:1;fill-rule:nonzero;stroke:none" transform="translate(260.457 775.852)"/><path d="M0 0h-.935l.361.829c.168-.381.481-.405.557-.405H0zm-.11 1.077-.007-.001-.039-.001h-.011a.584.584 0 0 0-.055.003h-.002a.822.822 0 0 0-.061.009L-.3 1.09c-.022.006-.045.012-.068.021l-.01.005a.34.34 0 0 0-.06.031l-.014.008a.374.374 0 0 0-.061.053l-.011.013a.416.416 0 0 0-.046.067l-.007.012a.469.469 0 0 0-.033.098l-.006.026a.712.712 0 0 0-.013.129v.029l.001.016.001.012a.79.79 0 0 1 .006.035l.005.022.004.016a.306.306 0 0 0 .011.027l.005.015c.007.014.014.028.023.042l.008.011.024.032.015.015a.345.345 0 0 0 .028.026l.02.016a.396.396 0 0 0 .06.037.572.572 0 0 0 .127.046l.031.009c.028.005.058.01.09.013l.012.002a1.3 1.3 0 0 0 .112.005h.007l.102-.005.051-.004c.055-.005.114-.012.177-.024V5.12L-2.816-.59h3.13l.002.497.002.497v.263l.002.526a1.045 1.045 0 0 0-.418-.115l-.012-.001" style="fill:#100f0d;fill-opacity:1;fill-rule:nonzero;stroke:none" transform="translate(245.072 773.78)"/><path d="M0 0s-.178-.209-.682-.626c0 0-.044-.018-.09-.018-.051 0-.105.023-.105.121l.004 3.92s.093.698.604.698c0 0 .032.008.078.008.115 0 .316-.048.316-.381V.367S.148.208 0 0m.048 5.139a1.515 1.515 0 0 1-.386.238c-.1.043-.211.078-.333.103-.123.025-.257.04-.404.041a1.567 1.567 0 0 1-.113-.027c-.367-.102-1.385-.492-1.419-1.688v-4.837h1.537c.018.001.179.009.392.059.085.02.179.046.275.082.144.052.294.125.43.225.271.199.485.508.485.983v4.164a1.564 1.564 0 0 1-.464.657" style="fill:#100f0d;fill-opacity:1;fill-rule:nonzero;stroke:none" transform="translate(288.905 777.223)"/><path d="M0 0a7.2 7.2 0 0 1-.435-.014h-.004c-.231 0-5.656-.077-5.783-6.775-.001-.062-.013-1.523.689-3.142.653-1.503 2.068-3.418 5.111-4.001l.007-.002h.008c.006-.001.157-.017.362-.017.358 0 .645.044.858.129l-.007-3.202c.002-.059.034-1.216-.959-1.482.028.043.053.087.077.128l.044.076c.249.409.381.768.413 1.129.041.452.062 1.12-.211 1.699a3.453 3.453 0 0 1-.86 1.106c-.237.21-.493.396-.784.567-.035.021-.073.044-.111.065-.026.015-.761.45-1.694.45a2.661 2.661 0 0 1-1.915-.789c-.417-.406-.631-.966-.714-1.505l-.139.194-.885 1.237.708.765a.36.36 0 0 1 .111.239c.007.132-.054.266-.183.398l-1.145 1.197-.053.055H-8.688c.104.18.204.438.204.769 0 .021-.007.512-.602.999v4.821l-.001.011s-.022.226.139.4c.142.152.386.229.726.229l.702.019.173.005V-1.638l-.05.05-1.241 1.23-.053.051H-10.269c-.038 0-.893-.007-1.549-.603a3.85 3.85 0 0 1-2.192.699h-.081l-.109-.002-.049-.093-6.205-11.924-.019-.036v-2.258l.054-.051.98-.915.052-.049h4.59l.011.002c.051-.001.088-.009.088-.117v-1.887c0-.002.015-.276-.176-.471-.141-.143-.362-.216-.659-.216H-16.772v-2.597l.051-.05 1.155-1.132.053-.052h1.932c.032-.003.119-.011.24-.011.442 0 1.469.109 2.002 1.062.345-.36 1.133-1.051 2.075-1.051H-7.313V-19.74l-.046.049-1.14 1.223-.053.057H-9.031l-.009-.002c-.058.005-.061.146-.061.175v2.581h3.182a3.557 3.557 0 0 1-.019-.759c.058-.68.295-1.23.519-1.68.243-.486.483-1.004.522-1.525l.001-.005v-.006c.001-.004.06-.432-.113-.704l-.073-.114.097-.096 1.382-1.374.119-.118.127.109.978.834.006.005.006.007c.009.008.043.032.069.032.023 0 .05-.025.064-.041l.005-.005.005-.005c.05-.046 1.232-1.112 3.34-1.112l.184.003.034-.001c.446 0 4.381.25 5.535 8.9.245.118.81.496.81 1.483 0 .038-.007.9-.6 1.381 0 .495-.013 2.94-.285 4.102a11.538 11.538 0 0 1-1.45 3.161C3.965-1.101 2.117 0 0 0m-.387-13.763c-5.741 1.101-5.656 6.971-5.656 6.971C-5.919-.264-.687-.187-.439-.187h.01c.146.01.288.015.429.015 5.022 0 6.62-6.212 6.62-6.212.295-1.263.281-4.148.281-4.148.599-.42.599-1.297.599-1.297 0-1.122-.795-1.363-.795-1.363-1.121-8.627-4.98-8.848-5.371-8.848l-.033.001a5.753 5.753 0 0 0-.185-.003c-2.061 0-3.216 1.064-3.216 1.064-.069.075-.138.1-.198.1-.115 0-.199-.088-.199-.088l-.978-.834-1.382 1.374c.21.329.138.818.138.818-.041.552-.293 1.095-.539 1.587-.264.529-.451 1.027-.502 1.619-.064.742.131 1.657.692 2.206.58.565 1.22.737 1.789.737.893 0 1.604-.427 1.604-.427l.108-.062c.271-.16.522-.339.756-.547a3.31 3.31 0 0 0 .819-1.05c.235-.5.243-1.077.195-1.613-.034-.382-.189-.729-.389-1.057-.07-.114-.14-.263-.246-.352-.086-.07-.049-.141-.049-.141.012-.016.038-.021.065-.021.044 0 .092.013.092.013 1.372.183 1.309 1.691 1.309 1.691l.007 3.531c-.196-.24-.696-.284-1.037-.284-.198 0-.342.015-.342.015m-19.907-.688v2.144l6.205 11.923h.079c1.328 0 2.207-.757 2.207-.757.62.662 1.534.662 1.534.662h1.503l1.241-1.23v-2.365l-.697-.02c-1.146 0-1.042-.822-1.042-.822v-4.893c.601-.458.601-.917.601-.917 0-.611-.38-.941-.38-.941h1.471l1.146-1.199c.25-.255.074-.397.074-.397l-.807-.873.965-1.348h-3.085v-2.754c0-.317.175-.348.242-.348.016 0 .026.003.026.003h.38l1.14-1.224v-2.079h-1.773c-1.172 0-2.121 1.192-2.121 1.192-.438-1.078-1.489-1.204-1.956-1.204-.141 0-.229.012-.229.012h-1.868l-1.156 1.131v2.355h1.061c1.077 0 1.013.871 1.013.871v1.875c0 .266-.194.289-.264.289l-.024-.001h-4.507zM26.162-.959l-.01-.007-.008-.009s-.054-.047-.143-.047a.444.444 0 0 0-.262.108c-.028.021-.68.492-2.305.492l-2.48-.023-.176-.001v-2.53l.045-.049 1.264-1.369.053-.058h.705V-9.1h-.033c-.398 0-.863-.267-.863-1.021 0-.065.006-.122.011-.168.002-.023.005-.044.005-.063l.001-.012.002-.012c.05-.248.229-.834.843-1.13V-17.3c0-.013.021-.649-.283-.954a.538.538 0 0 0-.403-.157h-1.44v-2.551l.049-.05 1.182-1.196.053-.053H23.195c.32 0 1.94.05 2.544 1.035l.019.001h.016a.13.13 0 0 0 .033-.006l.004-.006.012-.013c.038-.043.953-1.038 2.27-1.038H30.06V-21.616c.27-.322.781-.809 1.405-.809h.012c.143 0 .89.039 1.491.802l.006.007.005.008.011.009h.024c.035-.043.637-.694 1.585-.694h1.846v2.488l-.055.051-1.369 1.274a.589.589 0 0 0-.127.406l.001.005V-13.34c-.001.059-.044 1.367-1.88 2.917.618.358 2.177 1.542 2.248 4.402.004.138.037 3.406-4.353 5.479-.045.02-.974.407-2.156.407-1.003 0-1.875-.277-2.592-.824m.11-.135c.796.606 1.694.787 2.482.787 1.158 0 2.078-.39 2.078-.39 4.337-2.049 4.252-5.32 4.252-5.32-.084-3.424-2.385-4.372-2.385-4.372 1.995-1.591 2.017-2.951 2.017-2.951v-4.725c-.018-.335.176-.535.176-.535l1.374-1.278v-2.242h-1.667c-.887 0-1.453.632-1.453.632a.172.172 0 0 1-.133.062c-.018 0-.03-.002-.03-.002-.1 0-.157-.091-.157-.091-.557-.708-1.25-.734-1.349-.734h-.012c-.823 0-1.459 1.004-1.459 1.004-.032.039-.058.051-.078.051-.031 0-.046-.03-.046-.03v-.887h-1.789c-1.251 0-2.136.978-2.136.978-.047.081-.168.085-.195.085h-.004c-.141 0-.167-.077-.167-.077-.559-.928-2.178-.96-2.396-.96H22.046l-1.183 1.196v2.31h1.262c.918 0 .864 1.283.864 1.283v5.905c-.61.239-.792.785-.845 1.051-.003.058-.017.134-.017.223 0 .807.567.849.685.849h.212v4.993h-.804l-1.264 1.368v2.294l2.478.023c1.583 0 2.195-.456 2.195-.456a.615.615 0 0 1 .372-.145c.171 0 .271.101.271.101m-11.888.855-.05.001c-.31 0-1.421-.064-2.689-.886l-.01-.006-.01-.009a.157.157 0 0 0-.08-.032c-.009 0-.032 0-.069.039l-.009.01-.01.008c-.03.024-.754.59-1.912.59L6.963-.51h-.179v-2.346l.043-.048L8.159-4.4l.054-.06h.693v-4.748H8.79c-.266-.009-.758-.23-.758-1.005 0-.747.644-1.199.896-1.347V-17.37l.001-.01c.001-.005.051-.495-.226-.793-.148-.158-.369-.238-.659-.238H6.771V-20.819l.043-.048 1.166-1.305.053-.059h1.348c.053 0 1.257.013 2.377 1.169.344-.378 1.328-1.251 3.089-1.251.075 0 1.713.012 2.96 1.009l1.573-1.197.346-.262-.058.42c-.002.013-.173 1.279.037 2l.002.006.001.006c.001.008.164.755.765 1.915.447.864.374 2.077-.178 2.95-1.022 1.611-2.29 2.185-3.135 2.185a2.11 2.11 0 0 1-.137-.004 3.032 3.032 0 0 1-1.322-.435 2.724 2.724 0 0 1-1.265-2.406c-.003-.093-.001-.859.775-1.696.017-.028.035-.079-.01-.125l-.01-.011-.008-.011c-.001-.002-.165-.228-.42-.228-.03.002-.37.027-.37.275v5.434h4.229l-.251.284-1.109 1.254-.005.006-.006.006c-.002.001-.007.012-.007.015 0 0 .003.013.031.037l.006.005.005.005.668.69.008.009.008.009a.51.51 0 0 1-.095.701L16.713-8.37l-.052.049H14.381v3.328c-.001.077.024.3.143.416a.294.294 0 0 0 .198.079c.014-.005.041-.016.05-.036.005-.012.027-.079-.079-.254-.127-.212-.121-.53-.117-.762l.001-.05a2.491 2.491 0 0 1 .703-1.728c.755-.784 1.742-1.234 2.708-1.234.515 0 1.008.127 1.464.377l.008.004.008.006c.046.032 1.132.804 1.088 2.204 0 .031-.007.896-.582 1.934-.036.135-.276 1.136.324 1.931l.086.113-.097.104-1.37 1.479-.119.13-.134-.116-.841-.736a.223.223 0 0 0-.119-.037.244.244 0 0 0-.158.066l-.01.008-.012.007c-.059.035-1.448.852-2.985.852l-.155-.003m.155-.17c1.504 0 2.891-.826 2.891-.826a.428.428 0 0 1 .274-.107c.138 0 .234.078.234.078l.847.74 1.369-1.48c-.705-.934-.347-2.097-.347-2.097.57-1.019.57-1.875.57-1.875.042-1.325-1.013-2.059-1.013-2.059a2.83 2.83 0 0 0-1.376-.354c-.957 0-1.893.469-2.577 1.179a2.326 2.326 0 0 0-.655 1.612c-.003.2-.019.538.091.723.296.489-.105.549-.105.549-.549 0-.54-.667-.54-.667v-3.501h2.387l1.164-1.1c.258-.217.07-.474.07-.474l-.668-.69c-.183-.159-.029-.304-.029-.304l1.109-1.254h-4.02v-5.606c0-.424.548-.448.548-.448.359 0 .569.305.569.305.157.162.022.347.022.347-.781.836-.739 1.591-.739 1.591a2.576 2.576 0 0 0 1.182 2.262c.347.215.826.382 1.237.408.043.003.084.004.126.004 1.246 0 2.389-1.166 2.983-2.104.495-.781.606-1.94.17-2.782-.62-1.198-.78-1.957-.78-1.957-.222-.765-.042-2.069-.042-2.069l-1.689 1.284c-1.224-1.06-2.955-1.059-2.955-1.059-2.132 0-3.081 1.345-3.081 1.345-1.119-1.264-2.385-1.264-2.385-1.264H8.115L6.95-20.755v2.172h1.094c1.204 0 1.062 1.222 1.062 1.222v5.901s-.895.434-.895 1.247c0 .813.579.833.579.833h.295v5.092h-.79L6.962-2.792v2.109l2.583-.014c1.107 0 1.799-.55 1.799-.55a.27.27 0 0 1 .201-.097c.112 0 .2.077.2.077 1.247.809 2.348.857 2.589.857a.933.933 0 0 0 .049-.001l.156.002m27.104.007c-.228 0-5.581-.067-5.585-5.975-.017-.214-.185-3.215 3.431-5.692l.005-.004.007-.004a.22.22 0 0 0 .074-.071c-.048-.071-.211-.338-.137-.658.062-.269.266-.494.608-.671l.007-.004.007-.003c.02-.008.483-.194 1.041-.194.314 0 .597.059.842.175.453-.392 2.444-2.278 1.383-4.3-.003-.006-.387-.708-1.042-.708-.158 0-.324.04-.495.121.138.44.245 1.44.244 1.45-.083 1.074-.728 2.162-1.726 2.909-.462.347-1.071.539-1.715.539-1.257 0-2.683-.765-2.85-2.184-.068-.574.033-1.324.262-1.956l.006-.017.01-.016c.015-.022 1.431-2.293.718-3.404l-.073-.112.095-.097 1.092-1.116.124-.127.13.122 1.357 1.272c.42-.348 1.816-1.37 3.717-1.37h.012c.243 0 2.421.044 3.98 1.571 1.052 1.031 1.573 2.492 1.548 4.343.011.119.085 1.115-.336 2.408-.399 1.225-1.337 2.95-3.543 4.256a1.9 1.9 0 0 1-.137.751c.213-.052.483-.098.771-.098.549 0 .994.163 1.325.487.103.072.639.472.971 1.268.328.786.51 2.126-.484 4.048-.018.033-.402.775.146 1.229l.145.119-.133.132-1.362 1.345-.123.123-.128-.118-.646-.597-.009-.009-.008-.01c-.008-.008-.044-.04-.079-.04s-.08.029-.129.082l-.015.017-.021.013c-.05.031-1.251.775-3.275.775zM40.13-13.325c-.886.459-.399 1.092-.399 1.092.099.168-.139.305-.139.305-3.63 2.487-3.356 5.544-3.356 5.544 0 5.751 5.195 5.81 5.407 5.81h.007c1.994 0 3.177-.747 3.177-.747.098-.107.188-.14.263-.14.133 0 .219.106.219.106l.646.597 1.362-1.345c-.665-.551-.19-1.438-.19-1.438 1.867-3.607-.444-5.106-.444-5.106-.344-.344-.793-.447-1.208-.447-.615 0-1.151.227-1.151.227.413-.517.333-1.145.333-1.145 4.306-2.488 3.884-6.564 3.884-6.564.082-5.671-5.069-5.749-5.349-5.749h-.012c-2.195 0-3.722 1.434-3.722 1.434l-1.476-1.385-1.093 1.117c.781 1.215-.716 3.584-.716 3.584-.204.56-.324 1.287-.254 1.88.15 1.277 1.421 2.031 2.673 2.031.576 0 1.149-.16 1.605-.503.888-.665 1.573-1.683 1.658-2.786.007-.086-.197-1.51-.295-1.51l-.005.001a1.42 1.42 0 0 1 .729-.222c.776 0 1.202.804 1.202.804 1.267 2.415-1.52 4.586-1.52 4.586a1.714 1.714 0 0 0-.865-.212c-.528 0-.971.181-.971.181M.161-3.591c-.717 0-.749-.653-.749-.653v-5.534c0-.356.387-.381.493-.381l.026.001c.283 0 .262.159.262.159.012.53.5.58.682.58.042 0 .069-.003.069-.003v5.202c0 .576-.505.632-.703.632-.049 0-.08-.003-.08-.003m-.57-6.187v5.528a.521.521 0 0 0 .57.486h.01l.01.001a.403.403 0 0 0 .06.003c.348 0 .524-.155.524-.46v-5.031c-.369-.033-.73-.236-.75-.726a.31.31 0 0 0-.084-.009h-.026c-.143 0-.314.036-.314.208m29.532 5.822c-.511 0-.604-.699-.604-.699l-.005-3.919c0-.099.055-.121.106-.121.046 0 .089.018.089.018.505.417.683.626.683.626.148.208.125.367.125.367v3.355c0 .332-.201.38-.317.38-.045 0-.077-.007-.077-.007m.077-.165c.048 0 .138 0 .138-.208v-3.367l.002-.012s.006-.099-.091-.239a5.825 5.825 0 0 0-.556-.516l.005 3.795c.011.071.103.539.425.539h.021l.021.005c.001 0 .015.003.035.003m12.832-.581c-.23-.119-1.192-.371-.968-1.667 0 0 .201-1.362 1.288-2.08 0 0 .192.269.636.269.035 0 .071-.002.108-.005 0 0 .256.058-.014.303 0 0-1.306 1.513-.704 2.935 0 0 .079.199-.032.275 0 0-.03.032-.104.032a.462.462 0 0 1-.21-.062m-.791-1.642c-.178 1.031.438 1.298.769 1.442.042.018.079.034.106.048.054.028.09.038.11.041a.28.28 0 0 0-.015-.073c-.633-1.496.678-3.041.734-3.106L42.952-8l.008-.008a1.031 1.031 0 0 1-.626-.214c-.904.682-1.091 1.865-1.093 1.878m-55.549.049-3.107-5.71-.138-.252H-13.949v.172l.004.994.003.789.001.278-.259-.122a.851.851 0 0 0-.339-.098h-.013l-.013-.002-.038-.001c-.258 0-.288.174-.288.305v.01l-.001.009s-.004.075.054.136c.063.064.184.099.351.099.089 0 .192-.01.305-.03l.211-.037v4.079zm.158-.08v-3.173a2.181 2.181 0 0 1-.177.024l-.051.003c-.035.002-.07.005-.102.005h-.007a.993.993 0 0 1-.112-.005l-.012-.001a1.067 1.067 0 0 1-.09-.014l-.032-.008a.583.583 0 0 1-.127-.047l-.025-.015a.396.396 0 0 1-.034-.022l-.02-.016-.028-.025-.015-.016c-.009-.01-.016-.021-.024-.032l-.008-.011a.29.29 0 0 1-.023-.042l-.005-.014-.011-.027-.004-.017-.006-.022-.002-.015a.068.068 0 0 1-.003-.019l-.001-.013-.001-.015v-.03c0-.048.006-.09.013-.129l.005-.026a.452.452 0 0 1 .035-.098l.006-.012a.36.36 0 0 1 .046-.067l.011-.013a.33.33 0 0 1 .061-.052c.004-.004.009-.006.013-.009a.5.5 0 0 1 .061-.031l.01-.004a.48.48 0 0 1 .068-.021l.015-.003a.483.483 0 0 1 .061-.01h.002a.55.55 0 0 1 .055-.003h.011l.039.002h.006a1.029 1.029 0 0 1 .431.117l-.002-.526-.001-.263-.001-.497-.002-.498h-3.13zm-1.227-5.12h.936v.425l-.017-.001c-.076 0-.39.024-.558.405zm.398.469a.778.778 0 0 1 .359-.198v-.098h-.488zm43.247-1.735v-5.765l1.104-1.066v6.831zm.179-5.693v5.52h.746v-6.241zm12.092 5.448h.001l.003.001-.004-.001" style="fill:#af954b;fill-opacity:1;fill-rule:nonzero;stroke:none" transform="translate(259.513 785.274)"/></g></svg>