<svg xmlns="http://www.w3.org/2000/svg" xml:space="preserve" height="31.087" viewBox="0 0 192.736 31.087" width="192.74"><path d="M11.861 10.139c-5.745 0-10.508 2.82-10.508 6.154 0 7.427 13.219 6.534 13.219 8.822 0 .838-.901 1.453-2.761 1.453C5.444 26.568.904 22.92.904 22.92v7.361l3.073-1.211s2.75 1.211 9.169 1.211c5.678 0 11.499-2.339 11.499-6.152 0-7.48-14.393-6.548-14.393-8.838 0-.838.895-1.451 2.758-1.451 6.231 0 9.744 2.617 9.744 2.617v-6.318l-3.037 1.189s-2.845-1.189-7.856-1.189zm169.71 4.283c-4.52 0-8.27 2.223-8.27 4.846 0 5.847 10.41 5.144 10.41 6.947 0 .658-.71 1.14-2.17 1.14-5.02 0-8.59-2.873-8.59-2.873v5.799l2.42-.951s2.16.951 7.22.951c4.47 0 9.05-1.844 9.05-4.845 0-5.891-11.33-5.153-11.33-6.959 0-.657.7-1.139 2.17-1.139 4.91 0 7.67 2.058 7.67 2.058v-4.974l-2.39.933s-2.24-.933-6.19-.933zm-68.12.269 7.29 15.229h6.7l-.99-2.08 2.94-6.158 3.95 8.238h6.7l-1-2.08 6.31-13.149h-4.71l-3.95 8.239-3.94-8.239h-6.7l.99 2.082-2.95 6.157-3.95-8.239h-6.69zm-87.331.002 1.631 2.586v10.053L26.12 29.92h18.774v-3.232h-9.817v-2.766h9.817v-3.231h-9.817v-2.765h9.817v-3.233H26.12zm27.352 0 .884 1.69-4.302 8.222h-2.196l1.092 2.112-1.676 3.203h5.543l1.303-2.488h6.014l1.301 2.488h7.308L60.78 14.693h-7.308zm17.258 0 1.63 2.586v10.053l-1.63 2.588h8.55v-5.998h5.838v5.998h6.918V14.693h-6.918v5.998H79.28v-5.998h-8.55zm29.651 0 .88 1.69-4.303 8.222h-2.193l1.091 2.112-1.675 3.203h5.541l1.309-2.488h6.01l1.3 2.488h7.31l-7.97-15.227h-7.3zm47.14 0 1.62 2.586v10.053l-1.62 2.588h8.95v-4.482l1.72-1.454v.002l4.74 5.934h7.71l-7.66-9.996 6.18-5.231h-8.2l1.3 2.061-5.79 4.879v-6.94h-8.95zm-90.395 6.989 1.529 2.923h-3.058l1.529-2.923zm46.905 0 1.53 2.923h-3.06l1.53-2.923z" fill="#024"/><path d="M40.07 1.096c-2.246 0-4.103 1.1-4.103 2.404 0 2.899 5.162 2.549 5.162 3.445 0 .328-.353.567-1.08.567-2.486 0-4.256-1.428-4.256-1.428v2.877l1.197-.473s1.075.473 3.584.473c2.217 0 4.49-.914 4.49-2.404 0-2.919-5.623-2.557-5.623-3.45 0-.329.351-.566 1.077-.566 2.433 0 3.808 1.02 3.808 1.02V1.095l-1.187.46s-1.111-.46-3.069-.46zm13.446.13.806 1.286v4.986l-.806 1.283h9.312V7.178h-4.869V5.807h4.869V4.203h-4.869V2.834h4.869V1.227h-9.312zm21.105 0 .44.84-2.135 4.082h-1.088l.541 1.047-.832 1.586h2.752l.644-1.234h2.983l.644 1.234h3.627l-3.949-7.554h-3.627zm14.297 0v1.807h3.707v4.465l-.809 1.283h4.446V3.033h3.703V1.227H88.918zm19.572 0v1.807h3.71v4.465l-.81 1.283h4.44V3.033h3.71V1.227h-11.05zm19.75 0 .82 1.286v4.826l-.82 1.443h9.72V6.977h-5.27v-5.75h-4.45zm18.24 0 .81 1.286v4.986l-.81 1.283h9.32V7.178h-4.87V5.807h4.87V4.203h-4.87V2.834h4.87V1.227h-9.32zm-70.046 3.47.759 1.452h-1.517l.758-1.453z" fill="#a5acaf"/></svg>