<svg xmlns="http://www.w3.org/2000/svg" height="52.857" width="191.21"><g fill="#b1babf"><path d="m157.415 5.122 3.614-5.118h-3.165l-1.859 3.117-1.83-3.117h-3.167l3.616 5.118v2.341h2.791V5.122zm-18.086-.466 1.036-2.543h.033l1.038 2.543h-2.107zm-.747-4.652-3.425 7.46h2.931l.48-1.101h3.628l.484 1.1h2.93L142.176.004h-3.595zm-15.039 4.388h1.723c.57 0 .806.28.806.667 0 .528-.28.7-.806.7h-1.723V4.392zm0-1.333V1.68h1.397c.495 0 .774.217.774.697 0 .45-.28.683-.806.683h-1.365zm3.32.59c1.068-.156 1.534-.854 1.534-1.769 0-1.256-.651-1.876-2.139-1.876h-5.492v7.46h5.461c1.875 0 2.558-.623 2.558-2.016 0-1.04-.76-1.644-1.923-1.785v-.015zM98.716 4.655l1.056-2.542 1.054 2.542h-2.11zM97.973.005l-3.427 7.458h2.932l.482-1.1h3.625l.48 1.1H105L101.573.005h-3.6zM83.337 7.463V5.727h2.109c1.567 0 2.916-.837 2.916-2.824 0-2.17-1.256-2.898-3.181-2.898h-4.619v7.458h2.775zm0-5.629h1.348c.572 0 .932.263.932 1.055 0 .744-.375 1.009-.947 1.009h-1.333V1.834zM67.43 3.384 65.213.004h-2.948v7.46h2.756l.003-3.893 1.801 2.526h1.239l1.8-2.526-.005 3.89 2.765.002V.005h-2.945l-2.25 3.38zM48.87 4.656l1.04-2.542h.028l1.042 2.542h-2.11zM48.126.005l-3.427 7.459h2.93l.48-1.101h3.63l.48 1.1h2.933L51.722.006h-3.596zM35.72 7.464V1.865h2.788V.005H30.2v1.86h2.73v5.599h2.79M29.46 41.144l-2.054-2.062h5.921l3.82-3.766V12.43l1.978 2.062v21.685l-4.972 4.966h-4.692M111.412 41.156l-1.98-2.063h4.687V12.416l1.978 1.976v26.764h-4.685M176.756 45.212l-2.074-2.061h10.999l3.552-3.585v-11.15l1.979 1.7v10.312l-4.8 4.785h-9.656M158.221 41.156l-2.04-2.063h12.885v-8.501l1.979 1.98v8.584H158.22M87.58 52.86c-.987-.992-2.009-2.24-2.834-3.472-.723-2.899-1.518-8.605-1.518-12.72 0-.916 0-1.78.061-2.637h2.008c.05 7.441 1.563 15.429 2.284 18.829M89.893 41.156l-.491-2.063h14.296v-9.975l2.028 3.627-.046 8.412H89.893M47.809 41.162l-2.071-2.061h9.771v-9.068l1.977 1.099v10.03H47.81M55.509 24.46V12.43l1.977 2.063v11.11l-1.977-1.145M66.156 41.162l-2.073-2.061h9.775v-9.068l1.975 1.099v10.03h-9.677M73.859 24.46V12.43l1.975 2.063v11.11l-1.975-1.145M166.715 26.34l2.35-2.35v-7.505l1.98 1.978v6.388l-2.883 2.876-1.447-1.386M121.896 41.156l-2.066-2.063h12.637V25.662l1.978 1.169v14.325h-12.549M132.465 21.66v-9.227l1.978 2.062v8.367l-1.978-1.203M140.243 41.156l-2.066-2.063h12.637V25.662l1.975 1.169v14.325h-12.546M150.815 21.66v-9.227l1.975 2.062v8.367l-1.975-1.203M189.234 25.012V7.633l1.978 2.059V26.74l-1.978-1.727M89.212 12.416l2.9 2.897 2.833 11.204-.013 8.022-5.72-22.123M6.15 45.61l-2.082-2.047h10.945l3.752-3.884V28.456l1.976 2.047v10.031l-4.902 5.075H6.15M16.41 24.262l2.355-2.351v-9.402l1.976 2.06v7.805l-3.089 3.168-1.241-1.28"/></g><g fill="#A71930"><path d="M107.606 37.753h4.974v-25.32h-4.974v9.503l-5.424-9.503h-7.235l2.261 2.26v23.06h4.974V23.43l5.424 9.251v5.072M35.718 35.04V12.434h-5.425V32.78H28.26V12.433h-7.685l2.26 2.261V35.04l2.714 2.713h7.458l2.712-2.713M88.796 37.753h5.607l-6.739-25.32h-7.639l2.215 2.26c-3.212 4.477-4.835 10.76-4.835 15.147 0 12.388 5.287 16.82 5.287 16.82s-.95-4.297-.95-9.63c0-6.737 1.086-11.576 2.76-15.373l1.627 6.15h-1.99a26.408 26.408 0 0 0-.859 4.972h4.207l1.31 4.974M8.596 12.434h2.936v7.143l-1.447 1.448-1.49-1.537v-7.054zm0 24.416V26.044l2.936 2.94v7.866H8.596zM.002 7.46l2.714 2.713V41.82h11.982l2.71-2.712V27.172l-2.89-2.892 2.89-2.894V10.172l-2.71-2.713H.003M178.809 30.2l-5.876-4.972V41.82h11.98l2.714-2.712V27.443l-8.818-7.46v-7.551h2.941v6.648l5.877 4.973V7.458h-11.981l-2.713 2.714v11.664l8.817 7.461v7.55h-2.941V30.2M152.365 12.434l2.26 2.261v23.06h5.426v-9.18l2.034 2.036v7.144h5.426v-8.502l-2.894-2.892 2.894-2.893v-8.32l-2.715-2.714h-12.43zm7.686 4.332h2.034v5.343l-.996.996-1.038-1.085v-5.254M38.884 12.434l2.262 2.261v20.346l2.714 2.713h10.17v-8.256l-5.423-3.119v6.401h-2.036V16.766h2.036v4.06l5.423 3.12V12.435H38.884M57.193 12.434l2.26 2.261v20.346l2.713 2.713h10.172v-8.256l-5.424-3.119v6.401H64.88V16.766h2.034v4.06l5.424 3.12V12.435H57.193M130.887 37.753V27.41l-5.424 3.117v2.253h-2.036v-5.877h2.036l4.34-2.488-4.34-2.486h-2.036v-5.164h2.035v1.538l5.425 3.119v-8.988H115.74l2.26 2.26v23.06h12.886M149.2 37.753V27.41l-5.427 3.117v2.253h-2.037v-5.877h2.037l4.339-2.488-4.34-2.486h-2.036v-5.164h2.037v1.538l5.426 3.119v-8.988h-15.148l2.26 2.26v23.06h12.888"/></g></svg>