<svg xmlns="http://www.w3.org/2000/svg" height="91.796" width="250"><path d="M.857 1.127v22.932l15.242-11.281.295-.221.36.064c.874.144 4.435.642 5.204.766l.733.119 8.09-4.407L8 5.351.856 1.127zm248.03 2.712-10.06 4.364s-9.62 1.514-15.39 2.54c-5.77 1.031-6.78 4.293-6.78 7.645v14.59c0 3.228 1.36 5.165 2.31 6.131l14.32 6.736c3.15 1.482 5.53 2.564 6.96 3.324 2.27 1.207 2.52 1.611 2.52 1.611v28.151c-.05 2.773-1.26 6.003-5.87 5.387-.32-.046-3.21-.42-3.22-.418-7.25-.994-9.82-1.764-17.17-2.618l8.61-2.705-.21-.213-14.59-14.523v4.88l.01 15.483c7.18.871 12.79 1.62 19.23 2.715l7.49 1.258c3.96.64 6.41.776 8.81-.234 1.97-.83 2.98-2.766 3.02-5.74V59.25l.01-1.176c.03-5.925.04-8.902-6.97-12.357-7.87-3.879-16.68-8.056-16.77-8.1l-.5-.232V19.888c0-3.398.99-4.595 4.23-5.117l4.78-.694.31-.045.26.155 14.66 8.61V3.838zM30.787 9.1v71.445L13.42 90.924c10.19-2.214 22.443-4.109 34.443-5.833l-8.77-5.76-.388-.258V15.83l4.748.785 11.362 9.223.004-7.225v-8.13l-4.397 1.847L30.787 9.1zm33.166 3.234v2.588c.979.108 1.957.213 2.936.316v7.045c1.07.113 2.14.223 3.21.33v-7.044c.925.092 1.849.183 2.774.271v-2.586a608.151 608.151 0 0 1-8.92-.92zm134.86 0c-2.68.296-5.36.574-8.04.834V22.8c2.66-.259 5.32-.535 7.97-.828v-2.377c-1.65.182-3.31.358-4.96.527v-1.615c1.67-.17 3.34-.347 5.01-.53v-1.76c-1.66.182-3.32.36-4.99.528v-1.543c1.67-.17 3.34-.348 5.01-.533v-2.336zm-15.14 1.483c-2.68.23-5.37.44-8.06.634v9.631c2.67-.192 5.33-.402 7.99-.629v-2.377c-1.66.142-3.32.276-4.97.405v-1.616c1.67-.128 3.34-.265 5.01-.408v-1.758c-1.66.142-3.32.278-4.99.407V16.56c1.68-.13 3.35-.266 5.02-.408v-2.336zm-103.94.054v9.631c2.66.224 5.324.432 7.988.621v-2.377c-1.66-.118-3.32-.243-4.98-.375v-1.615c1.674.133 3.348.258 5.02.377v-1.758A595.173 595.173 0 0 1 82.77 18v-1.545c1.672.133 3.346.26 5.019.377v-2.336a603.756 603.756 0 0 1-8.056-.625zm88.179 1.088c-1.88.112-3.76.216-5.64.311-.96.048-1.63.176-2.03.386-.56.301-.84.84-.84 1.618v2.304c0 .825.27 1.335.8 1.53.31.113 1 .145 2.07.091 1.11-.056 2.22-.116 3.33-.177v1.24c-2.09.116-4.18.221-6.27.316v2.463c2.35-.107 4.7-.227 7.05-.36.65-.038 1.16-.22 1.54-.546.39-.326.58-.768.58-1.328v-2.34c0-1.266-.72-1.854-2.16-1.77-1.32.074-2.65.147-3.98.213v-1.224c1.85-.094 3.7-.195 5.55-.305v-2.422zM94.9 14.96v9.631c.963.057 1.927.114 2.89.166 0 0 .044-5.788-.002-6.047.092.237 3.623 6.238 3.623 6.235.96.046 1.92.09 2.88.132v-9.63c-.95-.043-1.9-.087-2.85-.133 0 1.584-.01 3.168-.01 4.752-.95-1.63-1.895-3.262-2.842-4.897a645.93 645.93 0 0 1-3.69-.209zm56.83.746a589.8 589.8 0 0 1-5.64.162c-.96.023-1.63.134-2.03.334-.56.286-.84.818-.84 1.596v2.305c0 .823.27 1.341.8 1.55.31.12 1 .171 2.07.145 1.11-.026 2.22-.055 3.33-.088v1.238c-2.09.062-4.18.113-6.27.153v2.463c2.35-.045 4.7-.104 7.05-.176.65-.02 1.16-.188 1.55-.504.38-.315.58-.753.58-1.313v-2.339c0-1.267-.73-1.873-2.17-1.829-1.32.041-2.65.077-3.98.11v-1.225c1.85-.045 3.7-.099 5.55-.16v-2.422zm-40.25.016v9.631c.96.031 1.92.061 2.89.088 0 0 .04-5.789 0-6.047.09.235 3.62 6.138 3.62 6.134.96.021 1.92.041 2.88.057v-9.63c-.95-.017-1.9-.035-2.85-.055 0 1.584-.01 3.167-.01 4.752-.95-1.605-1.89-3.212-2.84-4.82-1.23-.033-2.46-.07-3.69-.11zm24.66.305c-2.69.02-5.39.023-8.08.01v9.63c2.67.015 5.34.01 8.01-.01V23.28c-1.66.013-3.33.02-4.99.018v-1.615c1.68.001 3.35-.005 5.03-.018v-1.758c-1.67.013-3.33.02-5 .018V18.38c1.68 0 3.35-.004 5.03-.018v-2.335zm-85.104 12.85 5.975 6.198 6.297-2.705-12.272-3.494zm12.272 3.493v45.76l-13.14 6.67a368.83 368.83 0 0 0 1.542-.197c7.084-.892 15.014-1.802 21.883-2.453l1.736-.168-6.013-4.493-.207-.158V36.087l.209-.156 5.994-4.399-12.004.838zm142.74-2.883-11.24 3.3v44.611l-4.17 4.761 15.45 1.63-5.49-6.358-.13-.147V35.726l.14-.149 5.44-6.09zm-11.24 47.911-4.88-19.698-.97-1.853-12.4-23.479-4.48 1.877 22.73 43.153zm-22.73-43.153v42.401l-11.55 3.453 16.86.935V56.638l-5.31-22.393zl-11.5-.916 6.05 4.414.22.153 5.23-3.65zm-94.607-2.537v13.906l8.58-7.543 3.943.24.489.03 5.587-3.572-.406-.022c-3.692-.183-6.466-.38-9.677-.605l-5.397-.408-3.12-2.026zm36.757 2.104-2.97 1.566s-8.98-.305-13.424-.523l-1.537-.08-.193-.006v40.75l-11.873 5.615c.54-.043 1.066-.08 1.623-.106a668.883 668.883 0 0 1 20.774-1.062c.59-.024 1.14-.045 1.71-.063l-6.11-4.834-.2-.156V38.796l.54.03 3.16.15 8.52 7.801V33.812h-.02zm35.47.496-3.66 1.064v41.024l-5.14 3.1c.12 0 .24.002.4 0 4.45.048 13.73.365 13.73.365l2.85.13-6.14-5.05-.19-.157V36.431c0-.615-.21-1.486-1.85-2.123zm-3.66 20.576h-19.02v20.178l-11.93 4.49c.31-.006 1.5-.035 1.51-.039 5.65-.125 10.54-.182 15.38-.182h.14c.08 0 .17-.006.26-.006v-20.67h.52l6.76.008h.72l.34.004h.19v-.006l5.13-3.777zm-19.02 0 6.37-3.533.03-.002V40.855l6.43-.102v.008l6.19-5.389c-4.75.136-10.03.202-15.73.274-2.81.133-3.29 2.318-3.29 4.127v15.111z" fill="#024"/><path d="M.857 1.127 7.999 5.35 30.782 9.1l19.637 3.23 4.397-1.847L.857 1.127zm29.925 7.972-8.091 4.406v67.04l-9.274 10.378 17.365-10.379V9.1zm218.1-5.26c-4.63.836-23.62 4.263-29.66 5.149-5.91.864-8.91 4.094-8.91 9.6V29.641c0 .034.01.067.01.101v.715c0 .221.01.435.01.647v.115c0 .213.01.423.01.627v.031c.01.198.01.394.02.584v.08c.01.193.01.382.02.567v.08c.02.376.04.737.07 1.082v.072c.01.17.03.338.04.5 0 .013 0 .026.01.04.01.158.03.315.04.468.01.011.01.02.01.031a90.66 90.66 0 0 0 .07.514c.04.3.09.587.15.861 0 .015 0 .03.01.045.02.135.05.267.09.396 0 .013 0 .025.01.038.06.261.13.511.22.751 0 .015.01.03.01.043.04.12.09.238.13.352 0 .003 0 .006.01.01.04.114.09.225.14.336 0 .007.01.016.01.023.05.11.11.217.16.322.01.012.01.022.02.034.11.211.23.417.37.615a24.452 24.452 0 0 0 .23.322c0 .006.01.012.01.018.08.097.15.192.23.287v.002c.08.093.17.187.25.28l.03.028c.18.185.36.365.56.543.01.005.01.012.02.018.1.088.2.174.31.262l.03.021c.22.176.45.351.69.525l.03.024c.13.088.25.176.38.264.01 0 .01.002.01.002l.42.275s1.03.644 2.66 1.512c.01.005.02.01.03.013 2.32 1.24 5.91 3.034 10.01 4.967v.002l6.22 2.938v22.101c0 1.643-.14 3.296-1.18 4.244-.71.648-1.72.877-3.18.735l-2.75-.317-1.55-.174-.29-.037-8.62 2.703c7.35.854 9.92 1.626 17.17 2.62.01-.002 2.9.372 3.22.418 4.61.616 5.82-2.614 5.87-5.387v-28.15s-.25-.405-2.52-1.612c-1.43-.76-3.81-1.842-6.96-3.324l-14.32-6.736c-.95-.966-2.31-2.903-2.31-6.13v-14.59c0-3.353 1.01-6.615 6.78-7.646 5.77-1.026 15.39-2.54 15.39-2.54l10.06-4.364zM51.022 28.876l12.272 3.494 12.004-.838a731.4 731.4 0 0 1-23.602-2.572c-.293-.04-.503-.064-.674-.084zm12.272 3.494-6.297 2.705v43.29L50.155 84.8l13.139-6.67V32.37zm142.74-2.883-16.21 1.764.09 26.45 4.88 19.697V32.786l11.24-3.299zm-11.24 47.911-22.73-43.153 5.31 22.393 13.25 25.521 4.17-4.76zm-22.73-43.153-5.23 3.651v37.318l-6.32 4.885 11.55-3.453v-42.4zl4.48-1.877-15.97.961 11.49.916zm-94.607-2.537 3.119 2.024 5.397.41c3.21.225 5.985.422 9.677.605l.406.02-5.587 3.574v37.05l-6.252 5.743L96.09 75.52V34.77l.193.006 1.537.08c4.444.218 13.424.523 13.424.523l2.97-1.566c-.16 0-.38-.006-.39-.006-13.92-.34-22.895-1.012-35.98-2.076-.12 0-.252-.008-.387-.022zm68.087 1.934c-.46.004-.98.02-1.56.04-.17.003-.33.008-.5.013-.3.007-.61.017-.91.025l-.11.002-1.02.027c-1.78.047-3.6.091-5.44.13-.2.003-.41.01-.61.013l-.92.017-.82.014-.82.014-.99.013a240.866 240.866 0 0 1-2.39.026c-2.41.017-3.76.06-5.54.711-1.83.722-2.05 1.637-2.05 2.265v37.65l-6.79 4.95 11.93-4.49V39.773c0-1.809.48-3.994 3.29-4.127 5.7-.072 10.98-.138 15.73-.274l3.66-1.064a8.773 8.773 0 0 0-.35-.125c-1.38-.46-2.38-.555-3.79-.54zm.48 1.73-6.19 5.39-.01 10.557-6.41.03h-.04l-6.37 3.535H146.024V35.372zm-.01 19.514-5.12 3.775-.01 20.834 5.13-3.099v-21.51z" fill="#4b92db"/></svg>