<svg width="278" height="89" xmlns="http://www.w3.org/2000/svg"><path d="M89.22 1.348c-4.228 0-6.611 1.444-6.611 3.897 0 2.279 1.443 3.392 4.47 3.723l3.793.417c1.478.156 2.001.47 2.001 1.235 0 .974-1.044 1.427-3.289 1.427-2.54 0-4.435-.975-5.463-2.42l-2.503 1.759c1.27 1.948 4.14 3.148 7.793 3.148 4.454 0 7.01-1.514 7.01-4.244 0-2.297-1.41-3.306-4.818-3.653l-3.41-.331c-1.584-.174-2.105-.47-2.105-1.235 0-.836 1.044-1.287 2.958-1.287 2.365 0 4.14.748 5.061 1.965l2.21-1.862c-1.531-1.722-3.967-2.54-7.098-2.54zm86.145 0c-5.063 0-8.213 2.87-8.213 6.732 0 3.723 2.732 6.454 7.255 6.454 3.132 0 4.888-1.252 5.672-2.54l.156 2.123h2.679v-6.89h-7.932v2.175h4.662v.052c-.105 1.375-1.67 2.628-4.35 2.628-2.818 0-4.47-1.636-4.47-4.036 0-2.523 1.618-4.16 4.437-4.16 2.12 0 3.408.907 3.878 2.125l3.792-.627c-.764-2.487-3.67-4.036-7.566-4.036zm44.332 0c-5.027 0-8.28 2.593-8.28 6.593 0 3.985 3.253 6.593 8.28 6.593 5.01 0 8.281-2.592 8.281-6.593 0-4-3.271-6.593-8.28-6.593zm-190.475.417 4.28 12.352h4l2.889-7.898c.139-.348.243-.748.278-1.078h.07c.035.33.14.73.279 1.078l2.887 7.898h4.001l4.28-12.352H48.62L46.15 9.75c-.105.4-.245.8-.262 1.182h-.052c-.052-.382-.209-.799-.348-1.182L42.53 1.765h-3.653L35.92 9.75c-.14.383-.296.8-.348 1.182h-.069c-.017-.382-.14-.782-.244-1.182l-2.47-7.985zm34.746 0-6.176 12.352h3.775l1.149-2.488h6.888l1.148 2.488h3.757L68.352 1.765zm41.57 0v12.352h3.513V9.07h7.428v5.046h3.515V1.765h-3.515v4.872h-7.428V1.765zm24.62 0v12.352h3.514V1.765zm13.658 0v12.352h3.185V5.609h.07c.173.4.625 1.027.973 1.41l6.697 7.098h3.497V1.765h-3.183v8.42h-.07a6.575 6.575 0 0 0-.974-1.409l-6.453-7.011zm46.735 0v2.731h5.133v9.62h3.514v-9.62h5.15V1.765zm46.352 0v12.352h3.185V5.609h.068c.175.4.628 1.027.975 1.41l6.698 7.098h3.496V1.765h-3.183v8.42h-.07a6.528 6.528 0 0 0-.974-1.409l-6.453-7.011zM66.148 3.87h.034c.208.643.61 1.688.8 2.123l1.584 3.392h-4.802l1.583-3.392c.191-.435.592-1.48.8-2.123zm153.556.088c2.748 0 4.591 1.6 4.591 3.983s-1.843 3.985-4.591 3.985-4.593-1.601-4.593-3.985 1.844-3.983 4.593-3.983zM1.483 21.04v6.933h275.18V21.04zm12.45 12.874c-7.923 0-12.45 4.245-12.45 12.591V62.21c0 8.347 4.527 12.875 12.309 12.875 7.922 0 12.59-3.962 12.59-11.602V61.22l-9.479-3.962v6.933c0 2.12-1.131 3.536-2.97 3.536-1.839 0-2.972-1.415-2.972-3.536V44.808c0-2.122 1.133-3.537 2.972-3.537s2.97 1.415 2.97 3.537v6.083l9.48-3.536v-2.547c0-7.215-4.67-10.894-12.45-10.894zm27.588 0c-7.782 0-12.45 4.669-12.45 12.875v14.997c0 8.63 4.668 13.298 12.45 13.298 7.64 0 12.451-4.668 12.451-13.298V46.789c0-8.206-4.811-12.875-12.45-12.875zm222.688 0c-6.083 0-11.884 2.971-11.884 9.762v2.122c0 4.244 1.556 7.074 5.658 9.479l6.51 3.961c2.121 1.274 2.546 2.405 2.546 3.961v1.698c0 1.698-.99 2.83-2.83 2.83s-2.97-1.132-2.97-2.83v-5.093l-9.197 3.254v.85c0 6.507 4.386 11.176 12.167 11.176 8.064 0 12.45-4.386 12.45-9.62v-3.82c0-3.962-1.556-6.508-6.366-9.338l-6.084-3.537c-1.697-.99-2.547-2.264-2.547-3.679V43.96c0-1.839.99-2.83 2.83-2.83 1.839 0 2.83.991 2.83 2.83v4.385l9.338-3.395v-.566c0-7.922-5.094-10.469-12.451-10.469zm-207.542.99v39.048h7.64v-27.87h.282l4.387 27.87h5.66l4.385-27.87h.282v27.87h7.64V34.904H74.637l-2.69 22.07h-.282l-2.688-22.07zm32.822 0v39.048h7.64v-27.87h.283l4.386 27.87h5.66l4.385-27.87h.283v27.87h7.64V34.904h-12.308l-2.689 22.07h-.282l-2.69-22.07zm37.634 0-5.8 39.048h9.054l.99-7.356h6.79l.991 7.356h9.054l-5.8-39.048zm22.778 0v39.048h7.923V52.306h.283l7.356 21.646h8.63V34.904h-7.922V53.58h-.283l-6.65-18.676zm26.88 0v39.048h11.037c8.771 0 13.582-4.527 13.582-13.298V47.638c0-8.065-4.81-12.734-13.582-12.734zm27.305 0v39.048h19.525v-6.224h-10.329V56.975h9.338V50.75h-9.338v-9.62h9.904v-6.226zm21.93 0v39.048h9.196V58.815h3.112l3.538 15.137h9.479l-5.094-17.683c2.83-1.698 4.386-4.668 4.386-8.913v-1.557c0-6.932-3.396-10.894-12.31-10.894zm-184.49 6.225c1.84 0 2.971 1.415 2.971 3.537V64.19c0 2.121-1.131 3.537-2.97 3.537-1.84 0-2.971-1.416-2.971-3.537V44.666c0-2.122 1.131-3.537 2.97-3.537zm144.45 0h1.84c2.971 0 4.102 1.698 4.102 5.66V61.36c0 4.104-1.13 6.367-4.102 6.367h-1.84zm49.235 0h2.404c2.547 0 3.537 1.273 3.537 4.244v2.264c0 3.679-.99 4.952-3.537 4.952h-2.404zm-100.59 1.414h.282l2.264 17.261h-4.81zM1.49 80.898v6.933H276.67v-6.933z" fill="#5a1414"/></svg>